<svg version="1.1" viewBox="0.0 0.0 600.0 371.0" fill="none" stroke="none" stroke-linecap="square" stroke-miterlimit="10" width="600" height="371" xmlns:xlink="http://www.w3.org/1999/xlink" xmlns="http://www.w3.org/2000/svg"><path fill="#ffffff" d="M0 0L600.0 0L600.0 371.0L0 371.0L0 0Z" fill-rule="nonzero"/><path stroke="#333333" stroke-width="1.0" stroke-linecap="butt" d="M126.5 51.5L126.5 300.5" fill-rule="nonzero"/><path stroke="#cccccc" stroke-width="1.0" stroke-linecap="butt" d="M265.5 51.5L265.5 300.5" fill-rule="nonzero"/><path stroke="#cccccc" stroke-width="1.0" stroke-linecap="butt" d="M404.5 51.5L404.5 300.5" fill-rule="nonzero"/><path stroke="#cccccc" stroke-width="1.0" stroke-linecap="butt" d="M543.5 51.5L543.5 300.5" fill-rule="nonzero"/><path stroke="#333333" stroke-width="1.0" stroke-linecap="butt" d="M126.5 300.5L581.5 300.5" fill-rule="nonzero"/><path stroke="#cccccc" stroke-width="1.0" stroke-linecap="butt" d="M126.5 250.5L581.5 250.5" fill-rule="nonzero"/><path stroke="#cccccc" stroke-width="1.0" stroke-linecap="butt" d="M126.5 201.5L581.5 201.5" fill-rule="nonzero"/><path stroke="#cccccc" stroke-width="1.0" stroke-linecap="butt" d="M126.5 151.5L581.5 151.5" fill-rule="nonzero"/><path stroke="#cccccc" stroke-width="1.0" stroke-linecap="butt" d="M126.5 101.5L581.5 101.5" fill-rule="nonzero"/><path stroke="#cccccc" stroke-width="1.0" stroke-linecap="butt" d="M126.5 51.5L581.5 51.5" fill-rule="nonzero"/><clipPath id="id_0"><path d="M126.55 51.916668L581.45 51.916668L581.45 300.45L126.55 300.45L126.55 51.916668Z" clip-rule="nonzero"/></clipPath><path stroke="#4285f4" stroke-width="2.0" stroke-linecap="butt" clip-path="url(#id_0)" d="M126.55 300.45L126.66106 300.44995L126.77212 300.4499L126.99424 300.44977L127.43848 300.44937L130.10391 300.44656L140.76562 300.4224L183.4125 300.1465L354.0 295.6923L581.45 281.59366" fill-rule="nonzero"/><path stroke="#ea4335" stroke-width="2.0" stroke-linecap="butt" clip-path="url(#id_0)" d="M126.55 300.44998L126.66106 300.44992L126.77212 300.44983L126.99424 300.44965L127.43848 300.44922L130.10391 300.445L140.76562 300.38007L183.4125 298.7502L354.0 248.17213L581.45 55.799168" fill-rule="nonzero"/><path fill="#000000" fill-opacity="0.0" clip-path="url(#id_0)" d="M129.55 300.45C129.55 302.10684 128.20685 303.45 126.55 303.45C124.89314 303.45 123.55 302.10684 123.55 300.45C123.55 298.79315 124.89314 297.45 126.55 297.45C128.20685 297.45 129.55 298.79315 129.55 300.45Z" fill-rule="nonzero"/><path fill="#000000" fill-opacity="0.0" clip-path="url(#id_0)" d="M129.66106 300.44995C129.66106 302.1068 128.31792 303.44995 126.66106 303.44995C125.0042 303.44995 123.66106 302.1068 123.66106 300.44995C123.66106 298.7931 125.0042 297.44995 126.66106 297.44995C128.31792 297.44995 129.66106 298.7931 129.66106 300.44995Z" fill-rule="nonzero"/><path fill="#000000" fill-opacity="0.0" clip-path="url(#id_0)" d="M129.77213 300.4499C129.77213 302.10675 128.42897 303.4499 126.77212 303.4499C125.115265 303.4499 123.77212 302.10675 123.77212 300.4499C123.77212 298.79306 125.115265 297.4499 126.77212 297.4499C128.42897 297.4499 129.77213 298.79306 129.77213 300.4499Z" fill-rule="nonzero"/><path fill="#000000" fill-opacity="0.0" clip-path="url(#id_0)" d="M129.99423 300.44977C129.99423 302.10663 128.6511 303.44977 126.99424 303.44977C125.33739 303.44977 123.99424 302.10663 123.99424 300.44977C123.99424 298.79294 125.33739 297.44977 126.99424 297.44977C128.6511 297.44977 129.99423 298.79294 129.99423 300.44977Z" fill-rule="nonzero"/><path fill="#000000" fill-opacity="0.0" clip-path="url(#id_0)" d="M130.43848 300.44937C130.43848 302.10623 129.09534 303.44937 127.43848 303.44937C125.781624 303.44937 124.43848 302.10623 124.43848 300.44937C124.43848 298.7925 125.781624 297.44937 127.43848 297.44937C129.09534 297.44937 130.43848 298.7925 130.43848 300.44937Z" fill-rule="nonzero"/><path fill="#000000" fill-opacity="0.0" clip-path="url(#id_0)" d="M133.10391 300.44656C133.10391 302.10342 131.76076 303.44656 130.10391 303.44656C128.44705 303.44656 127.103905 302.10342 127.103905 300.44656C127.103905 298.7897 128.44705 297.44656 130.10391 297.44656C131.76076 297.44656 133.10391 298.7897 133.10391 300.44656Z" fill-rule="nonzero"/><path fill="#000000" fill-opacity="0.0" clip-path="url(#id_0)" d="M143.76562 300.4224C143.76562 302.07925 142.42249 303.4224 140.76562 303.4224C139.10876 303.4224 137.76562 302.07925 137.76562 300.4224C137.76562 298.76553 139.10876 297.4224 140.76562 297.4224C142.42249 297.4224 143.76562 298.76553 143.76562 300.4224Z" fill-rule="nonzero"/><path fill="#000000" fill-opacity="0.0" clip-path="url(#id_0)" d="M186.4125 300.1465C186.4125 301.80334 185.06935 303.1465 183.4125 303.1465C181.75565 303.1465 180.4125 301.80334 180.4125 300.1465C180.4125 298.48965 181.75565 297.1465 183.4125 297.1465C185.06935 297.1465 186.4125 298.48965 186.4125 300.1465Z" fill-rule="nonzero"/><path fill="#000000" fill-opacity="0.0" clip-path="url(#id_0)" d="M357.0 295.6923C357.0 297.34915 355.65686 298.6923 354.0 298.6923C352.34314 298.6923 351.0 297.34915 351.0 295.6923C351.0 294.03546 352.34314 292.6923 354.0 292.6923C355.65686 292.6923 357.0 294.03546 357.0 295.6923Z" fill-rule="nonzero"/><path fill="#000000" fill-opacity="0.0" clip-path="url(#id_0)" d="M584.45 281.59366C584.45 283.25052 583.1069 284.59366 581.45 284.59366C579.79315 284.59366 578.45 283.25052 578.45 281.59366C578.45 279.9368 579.79315 278.59366 581.45 278.59366C583.1069 278.59366 584.45 279.9368 584.45 281.59366Z" fill-rule="nonzero"/><path fill="#000000" fill-opacity="0.0" clip-path="url(#id_0)" d="M129.55 300.44998C129.55 302.10684 128.20685 303.44998 126.55 303.44998C124.89314 303.44998 123.55 302.10684 123.55 300.44998C123.55 298.79315 124.89314 297.44998 126.55 297.44998C128.20685 297.44998 129.55 298.79315 129.55 300.44998Z" fill-rule="nonzero"/><path fill="#000000" fill-opacity="0.0" clip-path="url(#id_0)" d="M129.66106 300.44992C129.66106 302.10678 128.31792 303.44992 126.66106 303.44992C125.0042 303.44992 123.66106 302.10678 123.66106 300.44992C123.66106 298.79306 125.0042 297.44992 126.66106 297.44992C128.31792 297.44992 129.66106 298.79306 129.66106 300.44992Z" fill-rule="nonzero"/><path fill="#000000" fill-opacity="0.0" clip-path="url(#id_0)" d="M129.77213 300.44983C129.77213 302.1067 128.42897 303.44983 126.77212 303.44983C125.115265 303.44983 123.77212 302.1067 123.77212 300.44983C123.77212 298.79297 125.115265 297.44983 126.77212 297.44983C128.42897 297.44983 129.77213 298.79297 129.77213 300.44983Z" fill-rule="nonzero"/><path fill="#000000" fill-opacity="0.0" clip-path="url(#id_0)" d="M129.99423 300.44965C129.99423 302.1065 128.6511 303.44965 126.99424 303.44965C125.33739 303.44965 123.99424 302.1065 123.99424 300.44965C123.99424 298.7928 125.33739 297.44965 126.99424 297.44965C128.6511 297.44965 129.99423 298.7928 129.99423 300.44965Z" fill-rule="nonzero"/><path fill="#000000" fill-opacity="0.0" clip-path="url(#id_0)" d="M130.43848 300.44922C130.43848 302.10608 129.09534 303.44922 127.43848 303.44922C125.781624 303.44922 124.43848 302.10608 124.43848 300.44922C124.43848 298.79236 125.781624 297.44922 127.43848 297.44922C129.09534 297.44922 130.43848 298.79236 130.43848 300.44922Z" fill-rule="nonzero"/><path fill="#000000" fill-opacity="0.0" clip-path="url(#id_0)" d="M133.10391 300.445C133.10391 302.10187 131.76076 303.445 130.10391 303.445C128.44705 303.445 127.103905 302.10187 127.103905 300.445C127.103905 298.78818 128.44705 297.445 130.10391 297.445C131.76076 297.445 133.10391 298.78818 133.10391 300.445Z" fill-rule="nonzero"/><path fill="#000000" fill-opacity="0.0" clip-path="url(#id_0)" d="M143.76562 300.38007C143.76562 302.0369 142.42249 303.38007 140.76562 303.38007C139.10876 303.38007 137.76562 302.0369 137.76562 300.38007C137.76562 298.7232 139.10876 297.38007 140.76562 297.38007C142.42249 297.38007 143.76562 298.7232 143.76562 300.38007Z" fill-rule="nonzero"/><path fill="#000000" fill-opacity="0.0" clip-path="url(#id_0)" d="M186.4125 298.7502C186.4125 300.40704 185.06935 301.7502 183.4125 301.7502C181.75565 301.7502 180.4125 300.40704 180.4125 298.7502C180.4125 297.09335 181.75565 295.7502 183.4125 295.7502C185.06935 295.7502 186.4125 297.09335 186.4125 298.7502Z" fill-rule="nonzero"/><path fill="#000000" fill-opacity="0.0" clip-path="url(#id_0)" d="M357.0 248.17213C357.0 249.829 355.65686 251.17213 354.0 251.17213C352.34314 251.17213 351.0 249.829 351.0 248.17213C351.0 246.51529 352.34314 245.17213 354.0 245.17213C355.65686 245.17213 357.0 246.51529 357.0 248.17213Z" fill-rule="nonzero"/><path fill="#000000" fill-opacity="0.0" clip-path="url(#id_0)" d="M584.45 55.799168C584.45 57.456024 583.1069 58.799168 581.45 58.799168C579.79315 58.799168 578.45 57.456024 578.45 55.799168C578.45 54.142315 579.79315 52.799168 581.45 52.799168C583.1069 52.799168 584.45 54.142315 584.45 55.799168Z" fill-rule="nonzero"/><path fill="#000000" d="M331.60938 349.59064L332.10938 347.10626L331.125 347.10626L331.125 346.23126L332.29688 346.23126L332.71875 344.10626L331.125 344.10626L331.125 343.23126L332.90625 343.23126L333.40625 340.71564L334.28125 340.71564L333.78125 343.23126L335.625 343.23126L336.14062 340.71564L337.01562 340.71564L336.51562 343.23126L337.51562 343.23126L337.51562 344.10626L336.32812 344.10626L335.89062 346.23126L337.51562 346.23126L337.51562 347.10626L335.71875 347.10626L335.20312 349.59064L334.32812 349.59064L334.82812 347.10626L333.0 347.10626L332.48438 349.59064L331.60938 349.59064ZM333.17188 346.23126L335.01562 346.23126L335.45312 344.10626L333.60938 344.10626L333.17188 346.23126ZM343.51562 349.45L341.15625 343.23126L342.26562 343.23126L343.60938 346.95Q343.8125 347.5594 344.0 348.2Q344.14062 347.71564 344.39062 347.02814L345.78125 343.23126L346.85938 343.23126L344.5 349.45L343.51562 349.45ZM351.85938 348.6844Q351.26562 349.1844 350.71875 349.3875Q350.1875 349.59064 349.5625 349.59064Q348.53125 349.59064 347.98438 349.09064Q347.4375 348.59064 347.4375 347.8094Q347.4375 347.35626 347.64062 346.98126Q347.84375 346.59064 348.1875 346.3719Q348.53125 346.1375 348.95312 346.02814Q349.25 345.9344 349.89062 345.85626Q351.15625 345.71564 351.76562 345.4969Q351.76562 345.27814 351.76562 345.23126Q351.76562 344.575 351.46875 344.3094Q351.0625 343.96564 350.26562 343.96564Q349.53125 343.96564 349.17188 344.23126Q348.8125 344.48126 348.64062 345.1375L347.60938 344.9969Q347.75 344.34064 348.07812 343.9344Q348.40625 343.52814 349.01562 343.3094Q349.625 343.09064 350.42188 343.09064Q351.21875 343.09064 351.71875 343.27814Q352.21875 343.46564 352.45312 343.7469Q352.6875 344.02814 352.78125 344.46564Q352.82812 344.73126 352.82812 345.4344L352.82812 346.84064Q352.82812 348.3094 352.89062 348.7Q352.96875 349.09064 353.17188 349.45L352.0625 349.45Q351.90625 349.1219 351.85938 348.6844ZM351.76562 346.325Q351.1875 346.5594 350.04688 346.73126Q349.39062 346.825 349.125 346.95Q348.85938 347.0594 348.70312 347.27814Q348.5625 347.4969 348.5625 347.77814Q348.5625 348.2 348.875 348.48126Q349.20312 348.7625 349.8125 348.7625Q350.42188 348.7625 350.89062 348.4969Q351.375 348.23126 351.59375 347.7625Q351.76562 347.40314 351.76562 346.71564L351.76562 346.325ZM354.76562 349.45L354.76562 340.85626L355.82812 340.85626L355.82812 349.45L354.76562 349.45ZM361.875 349.45L361.875 348.52814Q361.14062 349.59064 359.89062 349.59064Q359.34375 349.59064 358.85938 349.3875Q358.39062 349.16876 358.15625 348.85626Q357.92188 348.52814 357.82812 348.0594Q357.76562 347.7625 357.76562 347.075L357.76562 343.23126L358.82812 343.23126L358.82812 346.6844Q358.82812 347.4969 358.89062 347.79376Q358.98438 348.2 359.29688 348.45Q359.625 348.6844 360.10938 348.6844Q360.57812 348.6844 360.98438 348.45Q361.40625 348.2 361.57812 347.77814Q361.76562 347.35626 361.76562 346.5594L361.76562 343.23126L362.8125 343.23126L362.8125 349.45L361.875 349.45ZM369.04688 347.45L370.14062 347.575Q369.89062 348.52814 369.1875 349.0594Q368.48438 349.59064 367.40625 349.59064Q366.04688 349.59064 365.23438 348.7469Q364.4375 347.90314 364.4375 346.3875Q364.4375 344.825 365.25 343.96564Q366.0625 343.09064 367.34375 343.09064Q368.59375 343.09064 369.375 343.9344Q370.17188 344.77814 370.17188 346.325Q370.17188 346.41876 370.17188 346.60626L365.53125 346.60626Q365.59375 347.6375 366.10938 348.1844Q366.625 348.71564 367.40625 348.71564Q367.98438 348.71564 368.39062 348.41876Q368.8125 348.10626 369.04688 347.45ZM365.59375 345.7469L369.0625 345.7469Q369.0 344.95 368.67188 344.5594Q368.15625 343.95 367.35938 343.95Q366.625 343.95 366.125 344.4344Q365.64062 344.91876 365.59375 345.7469ZM371.375 347.59064L372.40625 347.4344Q372.5 348.0594 372.89062 348.3875Q373.29688 348.71564 374.03125 348.71564Q374.75 348.71564 375.09375 348.4344Q375.45312 348.1375 375.45312 347.73126Q375.45312 347.3719 375.14062 347.16876Q374.92188 347.02814 374.0625 346.8094Q372.90625 346.5125 372.45312 346.3094Q372.01562 346.09064 371.78125 345.71564Q371.54688 345.34064 371.54688 344.8719Q371.54688 344.46564 371.73438 344.10626Q371.92188 343.7469 372.25 343.5125Q372.5 343.34064 372.92188 343.21564Q373.34375 343.09064 373.84375 343.09064Q374.5625 343.09064 375.10938 343.3094Q375.67188 343.5125 375.9375 343.8719Q376.20312 344.23126 376.29688 344.825L375.26562 344.96564Q375.20312 344.4969 374.85938 344.23126Q374.53125 343.95 373.90625 343.95Q373.1875 343.95 372.875 344.2Q372.5625 344.4344 372.5625 344.7625Q372.5625 344.96564 372.6875 345.1219Q372.82812 345.29376 373.09375 345.40314Q373.25 345.46564 374.03125 345.66876Q375.15625 345.98126 375.59375 346.16876Q376.03125 346.35626 376.28125 346.71564Q376.53125 347.075 376.53125 347.6219Q376.53125 348.15314 376.21875 348.6219Q375.92188 349.075 375.34375 349.34064Q374.76562 349.59064 374.03125 349.59064Q372.8125 349.59064 372.17188 349.09064Q371.54688 348.575 371.375 347.59064Z" fill-rule="nonzero"/><path fill="#000000" d="M29.550013 196.88646L23.331263 196.88646L23.331263 195.94896L24.206263 195.94896Q23.190638 195.26146 23.190638 193.96458Q23.190638 193.40208 23.393763 192.93333Q23.596888 192.44896 23.925013 192.21458Q24.253138 191.98021 24.690638 191.88646Q24.987513 191.83958 25.721888 191.83958L29.550013 191.83958L29.550013 192.88646L25.768763 192.88646Q25.112513 192.88646 24.800013 193.01146Q24.487513 193.13646 24.300013 193.44896Q24.096888 193.76146 24.096888 194.18333Q24.096888 194.85521 24.534388 195.35521Q24.956263 195.83958 26.143763 195.83958L29.550013 195.83958L29.550013 196.88646ZM27.690638 190.30833L27.534388 189.27708Q28.159388 189.18333 28.487513 188.79271Q28.815638 188.38646 28.815638 187.65208Q28.815638 186.93333 28.534388 186.58958Q28.237513 186.23021 27.831263 186.23021Q27.471888 186.23021 27.268763 186.54271Q27.128138 186.76146 26.909388 187.62083Q26.612513 188.77708 26.409388 189.23021Q26.190638 189.66771 25.815638 189.90208Q25.440638 190.13646 24.971888 190.13646Q24.565638 190.13646 24.206263 189.94896Q23.846888 189.76146 23.612513 189.43333Q23.440638 189.18333 23.315638 188.76146Q23.190638 188.33958 23.190638 187.83958Q23.190638 187.12083 23.409388 186.57396Q23.612513 186.01146 23.971888 185.74583Q24.331263 185.48021 24.925013 185.38646L25.065638 186.41771Q24.596888 186.48021 24.331263 186.82396Q24.050013 187.15208 24.050013 187.77708Q24.050013 188.49583 24.300013 188.80833Q24.534388 189.12083 24.862513 189.12083Q25.065638 189.12083 25.221888 188.99583Q25.393763 188.85521 25.503138 188.58958Q25.565638 188.43333 25.768763 187.65208Q26.081263 186.52708 26.268763 186.08958Q26.456263 185.65208 26.815638 185.40208Q27.175013 185.15208 27.721888 185.15208Q28.253138 185.15208 28.721888 185.46458Q29.175013 185.76146 29.440638 186.33958Q29.690638 186.91771 29.690638 187.65208Q29.690638 188.87083 29.190638 189.51146Q28.675013 190.13646 27.690638 190.30833ZM29.690638 184.68333L20.815638 182.19896L20.815638 181.35521L29.690638 183.83958L29.690638 184.68333ZM26.440638 181.27708Q24.706263 181.27708 23.878138 180.32396Q23.190638 179.52708 23.190638 178.37083Q23.190638 177.08958 24.034388 176.27708Q24.862513 175.44896 26.346888 175.44896Q27.550013 175.44896 28.237513 175.80833Q28.925013 176.16771 29.315638 176.87083Q29.690638 177.55833 29.690638 178.37083Q29.690638 179.66771 28.862513 180.48021Q28.018763 181.27708 26.440638 181.27708ZM26.440638 180.19896Q27.628138 180.19896 28.221888 179.68333Q28.815638 179.15208 28.815638 178.37083Q28.815638 177.57396 28.221888 177.05833Q27.628138 176.54271 26.409388 176.54271Q25.253138 176.54271 24.659388 177.07396Q24.065638 177.58958 24.065638 178.37083Q24.065638 179.15208 24.659388 179.68333Q25.237513 180.19896 26.440638 180.19896ZM31.940638 173.88646L23.331263 173.88646L23.331263 172.93333L24.128138 172.93333Q23.659388 172.58958 23.425013 172.16771Q23.190638 171.73021 23.190638 171.12083Q23.190638 170.32396 23.596888 169.71458Q24.003138 169.10521 24.753138 168.80833Q25.503138 168.49583 26.393763 168.49583Q27.346888 168.49583 28.112513 168.83958Q28.878138 169.16771 29.284388 169.82396Q29.690638 170.48021 29.690638 171.19896Q29.690638 171.73021 29.471888 172.15208Q29.237513 172.57396 28.909388 172.83958L31.940638 172.83958L31.940638 173.88646ZM26.471888 172.93333Q27.675013 172.93333 28.253138 172.44896Q28.815638 171.96458 28.815638 171.27708Q28.815638 170.57396 28.221888 170.07396Q27.628138 169.57396 26.378138 169.57396Q25.190638 169.57396 24.612513 170.05833Q24.018763 170.54271 24.018763 171.23021Q24.018763 171.90208 24.643763 172.41771Q25.268763 172.93333 26.471888 172.93333Z" fill-rule="nonzero"/><path fill="#000000" d="M114.05 300.21564Q114.05 298.6844 114.3625 297.7625Q114.675 296.825 115.28438 296.325Q115.90938 295.825 116.84688 295.825Q117.53438 295.825 118.05 296.10626Q118.58125 296.3875 118.925 296.91876Q119.26875 297.4344 119.45625 298.1844Q119.64375 298.9344 119.64375 300.21564Q119.64375 301.73126 119.33125 302.65314Q119.03438 303.575 118.40938 304.09064Q117.8 304.59064 116.84688 304.59064Q115.6125 304.59064 114.89375 303.7Q114.05 302.6375 114.05 300.21564ZM115.12813 300.21564Q115.12813 302.325 115.62813 303.02814Q116.12813 303.73126 116.84688 303.73126Q117.58125 303.73126 118.06563 303.02814Q118.56563 302.325 118.56563 300.21564Q118.56563 298.09064 118.06563 297.40314Q117.58125 296.7 116.83125 296.7Q116.1125 296.7 115.675 297.3094Q115.12813 298.09064 115.12813 300.21564Z" fill-rule="nonzero"/><path fill="#000000" d="M55.01875 254.74333L53.971874 254.74333L53.971874 248.02458Q53.58125 248.38396 52.95625 248.75896Q52.346874 249.11833 51.8625 249.2902L51.8625 248.27458Q52.7375 247.8527 53.39375 247.27458Q54.065624 246.68083 54.346874 246.11833L55.01875 246.11833L55.01875 254.74333ZM58.05 250.50896Q58.05 248.9777 58.3625 248.05583Q58.675 247.11833 59.284374 246.61833Q59.909374 246.11833 60.846874 246.11833Q61.534374 246.11833 62.05 246.39958Q62.58125 246.68083 62.925 247.21208Q63.26875 247.7277 63.45625 248.4777Q63.64375 249.2277 63.64375 250.50896Q63.64375 252.02458 63.33125 252.94646Q63.034374 253.86833 62.409374 254.38396Q61.8 254.88396 60.846874 254.88396Q59.6125 254.88396 58.89375 253.99333Q58.05 252.93083 58.05 250.50896ZM59.128124 250.50896Q59.128124 252.61833 59.628124 253.32146Q60.128124 254.02458 60.846874 254.02458Q61.58125 254.02458 62.065624 253.32146Q62.565624 252.61833 62.565624 250.50896Q62.565624 248.38396 62.065624 247.69646Q61.58125 246.99333 60.83125 246.99333Q60.1125 246.99333 59.675 247.6027Q59.128124 248.38396 59.128124 250.50896ZM65.05 250.50896Q65.05 248.9777 65.3625 248.05583Q65.675 247.11833 66.28438 246.61833Q66.90938 246.11833 67.84688 246.11833Q68.53438 246.11833 69.05 246.39958Q69.58125 246.68083 69.925 247.21208Q70.26875 247.7277 70.45625 248.4777Q70.64375 249.2277 70.64375 250.50896Q70.64375 252.02458 70.33125 252.94646Q70.03438 253.86833 69.40938 254.38396Q68.8 254.88396 67.84688 254.88396Q66.6125 254.88396 65.89375 253.99333Q65.05 252.93083 65.05 250.50896ZM66.12813 250.50896Q66.12813 252.61833 66.62813 253.32146Q67.12813 254.02458 67.84688 254.02458Q68.58125 254.02458 69.06563 253.32146Q69.56563 252.61833 69.56563 250.50896Q69.56563 248.38396 69.06563 247.69646Q68.58125 246.99333 67.83125 246.99333Q67.1125 246.99333 66.675 247.6027Q66.12813 248.38396 66.12813 250.50896ZM72.05 250.50896Q72.05 248.9777 72.3625 248.05583Q72.675 247.11833 73.28438 246.61833Q73.90938 246.11833 74.84688 246.11833Q75.53438 246.11833 76.05 246.39958Q76.58125 246.68083 76.925 247.21208Q77.26875 247.7277 77.45625 248.4777Q77.64375 249.2277 77.64375 250.50896Q77.64375 252.02458 77.33125 252.94646Q77.03438 253.86833 76.40938 254.38396Q75.8 254.88396 74.84688 254.88396Q73.6125 254.88396 72.89375 253.99333Q72.05 252.93083 72.05 250.50896ZM73.12813 250.50896Q73.12813 252.61833 73.62813 253.32146Q74.12813 254.02458 74.84688 254.02458Q75.58125 254.02458 76.06563 253.32146Q76.56563 252.61833 76.56563 250.50896Q76.56563 248.38396 76.06563 247.69646Q75.58125 246.99333 74.83125 246.99333Q74.1125 246.99333 73.675 247.6027Q73.12813 248.38396 73.12813 250.50896ZM79.05 250.50896Q79.05 248.9777 79.3625 248.05583Q79.675 247.11833 80.28438 246.61833Q80.90938 246.11833 81.84688 246.11833Q82.53438 246.11833 83.05 246.39958Q83.58125 246.68083 83.925 247.21208Q84.26875 247.7277 84.45625 248.4777Q84.64375 249.2277 84.64375 250.50896Q84.64375 252.02458 84.33125 252.94646Q84.03438 253.86833 83.40938 254.38396Q82.8 254.88396 81.84688 254.88396Q80.6125 254.88396 79.89375 253.99333Q79.05 252.93083 79.05 250.50896ZM80.12813 250.50896Q80.12813 252.61833 80.62813 253.32146Q81.12813 254.02458 81.84688 254.02458Q82.58125 254.02458 83.06563 253.32146Q83.56563 252.61833 83.56563 250.50896Q83.56563 248.38396 83.06563 247.69646Q82.58125 246.99333 81.83125 246.99333Q81.1125 246.99333 80.675 247.6027Q80.12813 248.38396 80.12813 250.50896ZM86.05 250.50896Q86.05 248.9777 86.3625 248.05583Q86.675 247.11833 87.28438 246.61833Q87.90938 246.11833 88.84688 246.11833Q89.53438 246.11833 90.05 246.39958Q90.58125 246.68083 90.925 247.21208Q91.26875 247.7277 91.45625 248.4777Q91.64375 249.2277 91.64375 250.50896Q91.64375 252.02458 91.33125 252.94646Q91.03438 253.86833 90.40938 254.38396Q89.8 254.88396 88.84688 254.88396Q87.6125 254.88396 86.89375 253.99333Q86.05 252.93083 86.05 250.50896ZM87.12813 250.50896Q87.12813 252.61833 87.62813 253.32146Q88.12813 254.02458 88.84688 254.02458Q89.58125 254.02458 90.06563 253.32146Q90.56563 252.61833 90.56563 250.50896Q90.56563 248.38396 90.06563 247.69646Q89.58125 246.99333 88.83125 246.99333Q88.1125 246.99333 87.675 247.6027Q87.12813 248.38396 87.12813 250.50896ZM93.05 250.50896Q93.05 248.9777 93.3625 248.05583Q93.675 247.11833 94.28438 246.61833Q94.90938 246.11833 95.84688 246.11833Q96.53438 246.11833 97.05 246.39958Q97.58125 246.68083 97.925 247.21208Q98.26875 247.7277 98.45625 248.4777Q98.64375 249.2277 98.64375 250.50896Q98.64375 252.02458 98.33125 252.94646Q98.03438 253.86833 97.40938 254.38396Q96.8 254.88396 95.84688 254.88396Q94.6125 254.88396 93.89375 253.99333Q93.05 252.93083 93.05 250.50896ZM94.12813 250.50896Q94.12813 252.61833 94.62813 253.32146Q95.12813 254.02458 95.84688 254.02458Q96.58125 254.02458 97.06563 253.32146Q97.56563 252.61833 97.56563 250.50896Q97.56563 248.38396 97.06563 247.69646Q96.58125 246.99333 95.83125 246.99333Q95.1125 246.99333 94.675 247.6027Q94.12813 248.38396 94.12813 250.50896ZM100.05 250.50896Q100.05 248.9777 100.3625 248.05583Q100.675 247.11833 101.28438 246.61833Q101.90938 246.11833 102.84688 246.11833Q103.53438 246.11833 104.05 246.39958Q104.58125 246.68083 104.925 247.21208Q105.26875 247.7277 105.45625 248.4777Q105.64375 249.2277 105.64375 250.50896Q105.64375 252.02458 105.33125 252.94646Q105.03438 253.86833 104.40938 254.38396Q103.8 254.88396 102.84688 254.88396Q101.6125 254.88396 100.89375 253.99333Q100.05 252.93083 100.05 250.50896ZM101.12813 250.50896Q101.12813 252.61833 101.62813 253.32146Q102.12813 254.02458 102.84688 254.02458Q103.58125 254.02458 104.06563 253.32146Q104.56563 252.61833 104.56563 250.50896Q104.56563 248.38396 104.06563 247.69646Q103.58125 246.99333 102.83125 246.99333Q102.1125 246.99333 101.675 247.6027Q101.12813 248.38396 101.12813 250.50896ZM107.05 250.50896Q107.05 248.9777 107.3625 248.05583Q107.675 247.11833 108.28438 246.61833Q108.90938 246.11833 109.84688 246.11833Q110.53438 246.11833 111.05 246.39958Q111.58125 246.68083 111.925 247.21208Q112.26875 247.7277 112.45625 248.4777Q112.64375 249.2277 112.64375 250.50896Q112.64375 252.02458 112.33125 252.94646Q112.03438 253.86833 111.40938 254.38396Q110.8 254.88396 109.84688 254.88396Q108.6125 254.88396 107.89375 253.99333Q107.05 252.93083 107.05 250.50896ZM108.12813 250.50896Q108.12813 252.61833 108.62813 253.32146Q109.12813 254.02458 109.84688 254.02458Q110.58125 254.02458 111.06563 253.32146Q111.56563 252.61833 111.56563 250.50896Q111.56563 248.38396 111.06563 247.69646Q110.58125 246.99333 109.83125 246.99333Q109.1125 246.99333 108.675 247.6027Q108.12813 248.38396 108.12813 250.50896ZM114.05 250.50896Q114.05 248.9777 114.3625 248.05583Q114.675 247.11833 115.28438 246.61833Q115.90938 246.11833 116.84688 246.11833Q117.53438 246.11833 118.05 246.39958Q118.58125 246.68083 118.925 247.21208Q119.26875 247.7277 119.45625 248.4777Q119.64375 249.2277 119.64375 250.50896Q119.64375 252.02458 119.33125 252.94646Q119.03438 253.86833 118.40938 254.38396Q117.8 254.88396 116.84688 254.88396Q115.6125 254.88396 114.89375 253.99333Q114.05 252.93083 114.05 250.50896ZM115.12813 250.50896Q115.12813 252.61833 115.62813 253.32146Q116.12813 254.02458 116.84688 254.02458Q117.58125 254.02458 118.06563 253.32146Q118.56563 252.61833 118.56563 250.50896Q118.56563 248.38396 118.06563 247.69646Q117.58125 246.99333 116.83125 246.99333Q116.1125 246.99333 115.675 247.6027Q115.12813 248.38396 115.12813 250.50896Z" fill-rule="nonzero"/><path fill="#000000" d="M56.596874 204.02104L56.596874 205.03667L50.909374 205.03667Q50.909374 204.66167 51.034374 204.30229Q51.253124 203.72417 51.721874 203.16167Q52.20625 202.59917 53.1125 201.86479Q54.51875 200.70854 55.003124 200.03667Q55.503124 199.36479 55.503124 198.77104Q55.503124 198.14604 55.05 197.72417Q54.596874 197.28667 53.878124 197.28667Q53.1125 197.28667 52.659374 197.73979Q52.20625 198.19292 52.190624 199.00542L51.1125 198.89604Q51.221874 197.67729 51.940624 197.05229Q52.675 196.41167 53.909374 196.41167Q55.14375 196.41167 55.8625 197.09917Q56.58125 197.78667 56.58125 198.80229Q56.58125 199.31792 56.3625 199.81792Q56.159374 200.30229 55.659374 200.86479Q55.175 201.41167 54.05 202.36479Q53.096874 203.16167 52.815624 203.45854Q52.55 203.73979 52.378124 204.02104L56.596874 204.02104ZM58.05 200.80229Q58.05 199.27104 58.3625 198.34917Q58.675 197.41167 59.284374 196.91167Q59.909374 196.41167 60.846874 196.41167Q61.534374 196.41167 62.05 196.69292Q62.58125 196.97417 62.925 197.50542Q63.26875 198.02104 63.45625 198.77104Q63.64375 199.52104 63.64375 200.80229Q63.64375 202.31792 63.33125 203.23979Q63.034374 204.16167 62.409374 204.67729Q61.8 205.17729 60.846874 205.17729Q59.6125 205.17729 58.89375 204.28667Q58.05 203.22417 58.05 200.80229ZM59.128124 200.80229Q59.128124 202.91167 59.628124 203.61479Q60.128124 204.31792 60.846874 204.31792Q61.58125 204.31792 62.065624 203.61479Q62.565624 202.91167 62.565624 200.80229Q62.565624 198.67729 62.065624 197.98979Q61.58125 197.28667 60.83125 197.28667Q60.1125 197.28667 59.675 197.89604Q59.128124 198.67729 59.128124 200.80229ZM65.05 200.80229Q65.05 199.27104 65.3625 198.34917Q65.675 197.41167 66.28438 196.91167Q66.90938 196.41167 67.84688 196.41167Q68.53438 196.41167 69.05 196.69292Q69.58125 196.97417 69.925 197.50542Q70.26875 198.02104 70.45625 198.77104Q70.64375 199.52104 70.64375 200.80229Q70.64375 202.31792 70.33125 203.23979Q70.03438 204.16167 69.40938 204.67729Q68.8 205.17729 67.84688 205.17729Q66.6125 205.17729 65.89375 204.28667Q65.05 203.22417 65.05 200.80229ZM66.12813 200.80229Q66.12813 202.91167 66.62813 203.61479Q67.12813 204.31792 67.84688 204.31792Q68.58125 204.31792 69.06563 203.61479Q69.56563 202.91167 69.56563 200.80229Q69.56563 198.67729 69.06563 197.98979Q68.58125 197.28667 67.83125 197.28667Q67.1125 197.28667 66.675 197.89604Q66.12813 198.67729 66.12813 200.80229ZM72.05 200.80229Q72.05 199.27104 72.3625 198.34917Q72.675 197.41167 73.28438 196.91167Q73.90938 196.41167 74.84688 196.41167Q75.53438 196.41167 76.05 196.69292Q76.58125 196.97417 76.925 197.50542Q77.26875 198.02104 77.45625 198.77104Q77.64375 199.52104 77.64375 200.80229Q77.64375 202.31792 77.33125 203.23979Q77.03438 204.16167 76.40938 204.67729Q75.8 205.17729 74.84688 205.17729Q73.6125 205.17729 72.89375 204.28667Q72.05 203.22417 72.05 200.80229ZM73.12813 200.80229Q73.12813 202.91167 73.62813 203.61479Q74.12813 204.31792 74.84688 204.31792Q75.58125 204.31792 76.06563 203.61479Q76.56563 202.91167 76.56563 200.80229Q76.56563 198.67729 76.06563 197.98979Q75.58125 197.28667 74.83125 197.28667Q74.1125 197.28667 73.675 197.89604Q73.12813 198.67729 73.12813 200.80229ZM79.05 200.80229Q79.05 199.27104 79.3625 198.34917Q79.675 197.41167 80.28438 196.91167Q80.90938 196.41167 81.84688 196.41167Q82.53438 196.41167 83.05 196.69292Q83.58125 196.97417 83.925 197.50542Q84.26875 198.02104 84.45625 198.77104Q84.64375 199.52104 84.64375 200.80229Q84.64375 202.31792 84.33125 203.23979Q84.03438 204.16167 83.40938 204.67729Q82.8 205.17729 81.84688 205.17729Q80.6125 205.17729 79.89375 204.28667Q79.05 203.22417 79.05 200.80229ZM80.12813 200.80229Q80.12813 202.91167 80.62813 203.61479Q81.12813 204.31792 81.84688 204.31792Q82.58125 204.31792 83.06563 203.61479Q83.56563 202.91167 83.56563 200.80229Q83.56563 198.67729 83.06563 197.98979Q82.58125 197.28667 81.83125 197.28667Q81.1125 197.28667 80.675 197.89604Q80.12813 198.67729 80.12813 200.80229ZM86.05 200.80229Q86.05 199.27104 86.3625 198.34917Q86.675 197.41167 87.28438 196.91167Q87.90938 196.41167 88.84688 196.41167Q89.53438 196.41167 90.05 196.69292Q90.58125 196.97417 90.925 197.50542Q91.26875 198.02104 91.45625 198.77104Q91.64375 199.52104 91.64375 200.80229Q91.64375 202.31792 91.33125 203.23979Q91.03438 204.16167 90.40938 204.67729Q89.8 205.17729 88.84688 205.17729Q87.6125 205.17729 86.89375 204.28667Q86.05 203.22417 86.05 200.80229ZM87.12813 200.80229Q87.12813 202.91167 87.62813 203.61479Q88.12813 204.31792 88.84688 204.31792Q89.58125 204.31792 90.06563 203.61479Q90.56563 202.91167 90.56563 200.80229Q90.56563 198.67729 90.06563 197.98979Q89.58125 197.28667 88.83125 197.28667Q88.1125 197.28667 87.675 197.89604Q87.12813 198.67729 87.12813 200.80229ZM93.05 200.80229Q93.05 199.27104 93.3625 198.34917Q93.675 197.41167 94.28438 196.91167Q94.90938 196.41167 95.84688 196.41167Q96.53438 196.41167 97.05 196.69292Q97.58125 196.97417 97.925 197.50542Q98.26875 198.02104 98.45625 198.77104Q98.64375 199.52104 98.64375 200.80229Q98.64375 202.31792 98.33125 203.23979Q98.03438 204.16167 97.40938 204.67729Q96.8 205.17729 95.84688 205.17729Q94.6125 205.17729 93.89375 204.28667Q93.05 203.22417 93.05 200.80229ZM94.12813 200.80229Q94.12813 202.91167 94.62813 203.61479Q95.12813 204.31792 95.84688 204.31792Q96.58125 204.31792 97.06563 203.61479Q97.56563 202.91167 97.56563 200.80229Q97.56563 198.67729 97.06563 197.98979Q96.58125 197.28667 95.83125 197.28667Q95.1125 197.28667 94.675 197.89604Q94.12813 198.67729 94.12813 200.80229ZM100.05 200.80229Q100.05 199.27104 100.3625 198.34917Q100.675 197.41167 101.28438 196.91167Q101.90938 196.41167 102.84688 196.41167Q103.53438 196.41167 104.05 196.69292Q104.58125 196.97417 104.925 197.50542Q105.26875 198.02104 105.45625 198.77104Q105.64375 199.52104 105.64375 200.80229Q105.64375 202.31792 105.33125 203.23979Q105.03438 204.16167 104.40938 204.67729Q103.8 205.17729 102.84688 205.17729Q101.6125 205.17729 100.89375 204.28667Q100.05 203.22417 100.05 200.80229ZM101.12813 200.80229Q101.12813 202.91167 101.62813 203.61479Q102.12813 204.31792 102.84688 204.31792Q103.58125 204.31792 104.06563 203.61479Q104.56563 202.91167 104.56563 200.80229Q104.56563 198.67729 104.06563 197.98979Q103.58125 197.28667 102.83125 197.28667Q102.1125 197.28667 101.675 197.89604Q101.12813 198.67729 101.12813 200.80229ZM107.05 200.80229Q107.05 199.27104 107.3625 198.34917Q107.675 197.41167 108.28438 196.91167Q108.90938 196.41167 109.84688 196.41167Q110.53438 196.41167 111.05 196.69292Q111.58125 196.97417 111.925 197.50542Q112.26875 198.02104 112.45625 198.77104Q112.64375 199.52104 112.64375 200.80229Q112.64375 202.31792 112.33125 203.23979Q112.03438 204.16167 111.40938 204.67729Q110.8 205.17729 109.84688 205.17729Q108.6125 205.17729 107.89375 204.28667Q107.05 203.22417 107.05 200.80229ZM108.12813 200.80229Q108.12813 202.91167 108.62813 203.61479Q109.12813 204.31792 109.84688 204.31792Q110.58125 204.31792 111.06563 203.61479Q111.56563 202.91167 111.56563 200.80229Q111.56563 198.67729 111.06563 197.98979Q110.58125 197.28667 109.83125 197.28667Q109.1125 197.28667 108.675 197.89604Q108.12813 198.67729 108.12813 200.80229ZM114.05 200.80229Q114.05 199.27104 114.3625 198.34917Q114.675 197.41167 115.28438 196.91167Q115.90938 196.41167 116.84688 196.41167Q117.53438 196.41167 118.05 196.69292Q118.58125 196.97417 118.925 197.50542Q119.26875 198.02104 119.45625 198.77104Q119.64375 199.52104 119.64375 200.80229Q119.64375 202.31792 119.33125 203.23979Q119.03438 204.16167 118.40938 204.67729Q117.8 205.17729 116.84688 205.17729Q115.6125 205.17729 114.89375 204.28667Q114.05 203.22417 114.05 200.80229ZM115.12813 200.80229Q115.12813 202.91167 115.62813 203.61479Q116.12813 204.31792 116.84688 204.31792Q117.58125 204.31792 118.06563 203.61479Q118.56563 202.91167 118.56563 200.80229Q118.56563 198.67729 118.06563 197.98979Q117.58125 197.28667 116.83125 197.28667Q116.1125 197.28667 115.675 197.89604Q115.12813 198.67729 115.12813 200.80229Z" fill-rule="nonzero"/><path fill="#000000" d="M51.05 153.06438L52.1125 152.92375Q52.284374 153.81438 52.721874 154.22063Q53.159374 154.61125 53.784374 154.61125Q54.534374 154.61125 55.05 154.09563Q55.565624 153.58 55.565624 152.81438Q55.565624 152.09563 55.08125 151.62688Q54.6125 151.1425 53.878124 151.1425Q53.58125 151.1425 53.128124 151.2675L53.253124 150.33Q53.3625 150.34563 53.425 150.34563Q54.096874 150.34563 54.628124 150.00188Q55.175 149.6425 55.175 148.90813Q55.175 148.33 54.784374 147.955Q54.39375 147.56438 53.76875 147.56438Q53.159374 147.56438 52.7375 147.955Q52.33125 148.34563 52.221874 149.11125L51.159374 148.92375Q51.346874 147.87688 52.034374 147.29875Q52.721874 146.705 53.7375 146.705Q54.440624 146.705 55.034374 147.0175Q55.628124 147.31438 55.940624 147.83Q56.253124 148.34563 56.253124 148.93938Q56.253124 149.48625 55.95625 149.955Q55.659374 150.40813 55.08125 150.67375Q55.83125 150.84563 56.253124 151.40813Q56.675 151.955 56.675 152.79875Q56.675 153.92375 55.846874 154.705Q55.034374 155.48625 53.784374 155.48625Q52.659374 155.48625 51.909374 154.81438Q51.159374 154.12688 51.05 153.06438ZM58.05 151.09563Q58.05 149.56438 58.3625 148.6425Q58.675 147.705 59.284374 147.205Q59.909374 146.705 60.846874 146.705Q61.534374 146.705 62.05 146.98625Q62.58125 147.2675 62.925 147.79875Q63.26875 148.31438 63.45625 149.06438Q63.64375 149.81438 63.64375 151.09563Q63.64375 152.61125 63.33125 153.53313Q63.034374 154.455 62.409374 154.97063Q61.8 155.47063 60.846874 155.47063Q59.6125 155.47063 58.89375 154.58Q58.05 153.5175 58.05 151.09563ZM59.128124 151.09563Q59.128124 153.205 59.628124 153.90813Q60.128124 154.61125 60.846874 154.61125Q61.58125 154.61125 62.065624 153.90813Q62.565624 153.205 62.565624 151.09563Q62.565624 148.97063 62.065624 148.28313Q61.58125 147.58 60.83125 147.58Q60.1125 147.58 59.675 148.18938Q59.128124 148.97063 59.128124 151.09563ZM65.05 151.09563Q65.05 149.56438 65.3625 148.6425Q65.675 147.705 66.28438 147.205Q66.90938 146.705 67.84688 146.705Q68.53438 146.705 69.05 146.98625Q69.58125 147.2675 69.925 147.79875Q70.26875 148.31438 70.45625 149.06438Q70.64375 149.81438 70.64375 151.09563Q70.64375 152.61125 70.33125 153.53313Q70.03438 154.455 69.40938 154.97063Q68.8 155.47063 67.84688 155.47063Q66.6125 155.47063 65.89375 154.58Q65.05 153.5175 65.05 151.09563ZM66.12813 151.09563Q66.12813 153.205 66.62813 153.90813Q67.12813 154.61125 67.84688 154.61125Q68.58125 154.61125 69.06563 153.90813Q69.56563 153.205 69.56563 151.09563Q69.56563 148.97063 69.06563 148.28313Q68.58125 147.58 67.83125 147.58Q67.1125 147.58 66.675 148.18938Q66.12813 148.97063 66.12813 151.09563ZM72.05 151.09563Q72.05 149.56438 72.3625 148.6425Q72.675 147.705 73.28438 147.205Q73.90938 146.705 74.84688 146.705Q75.53438 146.705 76.05 146.98625Q76.58125 147.2675 76.925 147.79875Q77.26875 148.31438 77.45625 149.06438Q77.64375 149.81438 77.64375 151.09563Q77.64375 152.61125 77.33125 153.53313Q77.03438 154.455 76.40938 154.97063Q75.8 155.47063 74.84688 155.47063Q73.6125 155.47063 72.89375 154.58Q72.05 153.5175 72.05 151.09563ZM73.12813 151.09563Q73.12813 153.205 73.62813 153.90813Q74.12813 154.61125 74.84688 154.61125Q75.58125 154.61125 76.06563 153.90813Q76.56563 153.205 76.56563 151.09563Q76.56563 148.97063 76.06563 148.28313Q75.58125 147.58 74.83125 147.58Q74.1125 147.58 73.675 148.18938Q73.12813 148.97063 73.12813 151.09563ZM79.05 151.09563Q79.05 149.56438 79.3625 148.6425Q79.675 147.705 80.28438 147.205Q80.90938 146.705 81.84688 146.705Q82.53438 146.705 83.05 146.98625Q83.58125 147.2675 83.925 147.79875Q84.26875 148.31438 84.45625 149.06438Q84.64375 149.81438 84.64375 151.09563Q84.64375 152.61125 84.33125 153.53313Q84.03438 154.455 83.40938 154.97063Q82.8 155.47063 81.84688 155.47063Q80.6125 155.47063 79.89375 154.58Q79.05 153.5175 79.05 151.09563ZM80.12813 151.09563Q80.12813 153.205 80.62813 153.90813Q81.12813 154.61125 81.84688 154.61125Q82.58125 154.61125 83.06563 153.90813Q83.56563 153.205 83.56563 151.09563Q83.56563 148.97063 83.06563 148.28313Q82.58125 147.58 81.83125 147.58Q81.1125 147.58 80.675 148.18938Q80.12813 148.97063 80.12813 151.09563ZM86.05 151.09563Q86.05 149.56438 86.3625 148.6425Q86.675 147.705 87.28438 147.205Q87.90938 146.705 88.84688 146.705Q89.53438 146.705 90.05 146.98625Q90.58125 147.2675 90.925 147.79875Q91.26875 148.31438 91.45625 149.06438Q91.64375 149.81438 91.64375 151.09563Q91.64375 152.61125 91.33125 153.53313Q91.03438 154.455 90.40938 154.97063Q89.8 155.47063 88.84688 155.47063Q87.6125 155.47063 86.89375 154.58Q86.05 153.5175 86.05 151.09563ZM87.12813 151.09563Q87.12813 153.205 87.62813 153.90813Q88.12813 154.61125 88.84688 154.61125Q89.58125 154.61125 90.06563 153.90813Q90.56563 153.205 90.56563 151.09563Q90.56563 148.97063 90.06563 148.28313Q89.58125 147.58 88.83125 147.58Q88.1125 147.58 87.675 148.18938Q87.12813 148.97063 87.12813 151.09563ZM93.05 151.09563Q93.05 149.56438 93.3625 148.6425Q93.675 147.705 94.28438 147.205Q94.90938 146.705 95.84688 146.705Q96.53438 146.705 97.05 146.98625Q97.58125 147.2675 97.925 147.79875Q98.26875 148.31438 98.45625 149.06438Q98.64375 149.81438 98.64375 151.09563Q98.64375 152.61125 98.33125 153.53313Q98.03438 154.455 97.40938 154.97063Q96.8 155.47063 95.84688 155.47063Q94.6125 155.47063 93.89375 154.58Q93.05 153.5175 93.05 151.09563ZM94.12813 151.09563Q94.12813 153.205 94.62813 153.90813Q95.12813 154.61125 95.84688 154.61125Q96.58125 154.61125 97.06563 153.90813Q97.56563 153.205 97.56563 151.09563Q97.56563 148.97063 97.06563 148.28313Q96.58125 147.58 95.83125 147.58Q95.1125 147.58 94.675 148.18938Q94.12813 148.97063 94.12813 151.09563ZM100.05 151.09563Q100.05 149.56438 100.3625 148.6425Q100.675 147.705 101.28438 147.205Q101.90938 146.705 102.84688 146.705Q103.53438 146.705 104.05 146.98625Q104.58125 147.2675 104.925 147.79875Q105.26875 148.31438 105.45625 149.06438Q105.64375 149.81438 105.64375 151.09563Q105.64375 152.61125 105.33125 153.53313Q105.03438 154.455 104.40938 154.97063Q103.8 155.47063 102.84688 155.47063Q101.6125 155.47063 100.89375 154.58Q100.05 153.5175 100.05 151.09563ZM101.12813 151.09563Q101.12813 153.205 101.62813 153.90813Q102.12813 154.61125 102.84688 154.61125Q103.58125 154.61125 104.06563 153.90813Q104.56563 153.205 104.56563 151.09563Q104.56563 148.97063 104.06563 148.28313Q103.58125 147.58 102.83125 147.58Q102.1125 147.58 101.675 148.18938Q101.12813 148.97063 101.12813 151.09563ZM107.05 151.09563Q107.05 149.56438 107.3625 148.6425Q107.675 147.705 108.28438 147.205Q108.90938 146.705 109.84688 146.705Q110.53438 146.705 111.05 146.98625Q111.58125 147.2675 111.925 147.79875Q112.26875 148.31438 112.45625 149.06438Q112.64375 149.81438 112.64375 151.09563Q112.64375 152.61125 112.33125 153.53313Q112.03438 154.455 111.40938 154.97063Q110.8 155.47063 109.84688 155.47063Q108.6125 155.47063 107.89375 154.58Q107.05 153.5175 107.05 151.09563ZM108.12813 151.09563Q108.12813 153.205 108.62813 153.90813Q109.12813 154.61125 109.84688 154.61125Q110.58125 154.61125 111.06563 153.90813Q111.56563 153.205 111.56563 151.09563Q111.56563 148.97063 111.06563 148.28313Q110.58125 147.58 109.83125 147.58Q109.1125 147.58 108.675 148.18938Q108.12813 148.97063 108.12813 151.09563ZM114.05 151.09563Q114.05 149.56438 114.3625 148.6425Q114.675 147.705 115.28438 147.205Q115.90938 146.705 116.84688 146.705Q117.53438 146.705 118.05 146.98625Q118.58125 147.2675 118.925 147.79875Q119.26875 148.31438 119.45625 149.06438Q119.64375 149.81438 119.64375 151.09563Q119.64375 152.61125 119.33125 153.53313Q119.03438 154.455 118.40938 154.97063Q117.8 155.47063 116.84688 155.47063Q115.6125 155.47063 114.89375 154.58Q114.05 153.5175 114.05 151.09563ZM115.12813 151.09563Q115.12813 153.205 115.62813 153.90813Q116.12813 154.61125 116.84688 154.61125Q117.58125 154.61125 118.06563 153.90813Q118.56563 153.205 118.56563 151.09563Q118.56563 148.97063 118.06563 148.28313Q117.58125 147.58 116.83125 147.58Q116.1125 147.58 115.675 148.18938Q115.12813 148.97063 115.12813 151.09563Z" fill-rule="nonzero"/><path fill="#000000" d="M54.425 105.62334L54.425 103.56084L50.70625 103.56084L50.70625 102.59209L54.628124 97.02959L55.4875 97.02959L55.4875 102.59209L56.64375 102.59209L56.64375 103.56084L55.4875 103.56084L55.4875 105.62334L54.425 105.62334ZM54.425 102.59209L54.425 98.73271L51.7375 102.59209L54.425 102.59209ZM58.05 101.38896Q58.05 99.85771 58.3625 98.93584Q58.675 97.99834 59.284374 97.49834Q59.909374 96.99834 60.846874 96.99834Q61.534374 96.99834 62.05 97.27959Q62.58125 97.56084 62.925 98.09209Q63.26875 98.60771 63.45625 99.35771Q63.64375 100.10771 63.64375 101.38896Q63.64375 102.90459 63.33125 103.82646Q63.034374 104.74834 62.409374 105.26396Q61.8 105.76396 60.846874 105.76396Q59.6125 105.76396 58.89375 104.87334Q58.05 103.81084 58.05 101.38896ZM59.128124 101.38896Q59.128124 103.49834 59.628124 104.20146Q60.128124 104.90459 60.846874 104.90459Q61.58125 104.90459 62.065624 104.20146Q62.565624 103.49834 62.565624 101.38896Q62.565624 99.26396 62.065624 98.57646Q61.58125 97.87334 60.83125 97.87334Q60.1125 97.87334 59.675 98.48271Q59.128124 99.26396 59.128124 101.38896ZM65.05 101.38896Q65.05 99.85771 65.3625 98.93584Q65.675 97.99834 66.28438 97.49834Q66.90938 96.99834 67.84688 96.99834Q68.53438 96.99834 69.05 97.27959Q69.58125 97.56084 69.925 98.09209Q70.26875 98.60771 70.45625 99.35771Q70.64375 100.10771 70.64375 101.38896Q70.64375 102.90459 70.33125 103.82646Q70.03438 104.74834 69.40938 105.26396Q68.8 105.76396 67.84688 105.76396Q66.6125 105.76396 65.89375 104.87334Q65.05 103.81084 65.05 101.38896ZM66.12813 101.38896Q66.12813 103.49834 66.62813 104.20146Q67.12813 104.90459 67.84688 104.90459Q68.58125 104.90459 69.06563 104.20146Q69.56563 103.49834 69.56563 101.38896Q69.56563 99.26396 69.06563 98.57646Q68.58125 97.87334 67.83125 97.87334Q67.1125 97.87334 66.675 98.48271Q66.12813 99.26396 66.12813 101.38896ZM72.05 101.38896Q72.05 99.85771 72.3625 98.93584Q72.675 97.99834 73.28438 97.49834Q73.90938 96.99834 74.84688 96.99834Q75.53438 96.99834 76.05 97.27959Q76.58125 97.56084 76.925 98.09209Q77.26875 98.60771 77.45625 99.35771Q77.64375 100.10771 77.64375 101.38896Q77.64375 102.90459 77.33125 103.82646Q77.03438 104.74834 76.40938 105.26396Q75.8 105.76396 74.84688 105.76396Q73.6125 105.76396 72.89375 104.87334Q72.05 103.81084 72.05 101.38896ZM73.12813 101.38896Q73.12813 103.49834 73.62813 104.20146Q74.12813 104.90459 74.84688 104.90459Q75.58125 104.90459 76.06563 104.20146Q76.56563 103.49834 76.56563 101.38896Q76.56563 99.26396 76.06563 98.57646Q75.58125 97.87334 74.83125 97.87334Q74.1125 97.87334 73.675 98.48271Q73.12813 99.26396 73.12813 101.38896ZM79.05 101.38896Q79.05 99.85771 79.3625 98.93584Q79.675 97.99834 80.28438 97.49834Q80.90938 96.99834 81.84688 96.99834Q82.53438 96.99834 83.05 97.27959Q83.58125 97.56084 83.925 98.09209Q84.26875 98.60771 84.45625 99.35771Q84.64375 100.10771 84.64375 101.38896Q84.64375 102.90459 84.33125 103.82646Q84.03438 104.74834 83.40938 105.26396Q82.8 105.76396 81.84688 105.76396Q80.6125 105.76396 79.89375 104.87334Q79.05 103.81084 79.05 101.38896ZM80.12813 101.38896Q80.12813 103.49834 80.62813 104.20146Q81.12813 104.90459 81.84688 104.90459Q82.58125 104.90459 83.06563 104.20146Q83.56563 103.49834 83.56563 101.38896Q83.56563 99.26396 83.06563 98.57646Q82.58125 97.87334 81.83125 97.87334Q81.1125 97.87334 80.675 98.48271Q80.12813 99.26396 80.12813 101.38896ZM86.05 101.38896Q86.05 99.85771 86.3625 98.93584Q86.675 97.99834 87.28438 97.49834Q87.90938 96.99834 88.84688 96.99834Q89.53438 96.99834 90.05 97.27959Q90.58125 97.56084 90.925 98.09209Q91.26875 98.60771 91.45625 99.35771Q91.64375 100.10771 91.64375 101.38896Q91.64375 102.90459 91.33125 103.82646Q91.03438 104.74834 90.40938 105.26396Q89.8 105.76396 88.84688 105.76396Q87.6125 105.76396 86.89375 104.87334Q86.05 103.81084 86.05 101.38896ZM87.12813 101.38896Q87.12813 103.49834 87.62813 104.20146Q88.12813 104.90459 88.84688 104.90459Q89.58125 104.90459 90.06563 104.20146Q90.56563 103.49834 90.56563 101.38896Q90.56563 99.26396 90.06563 98.57646Q89.58125 97.87334 88.83125 97.87334Q88.1125 97.87334 87.675 98.48271Q87.12813 99.26396 87.12813 101.38896ZM93.05 101.38896Q93.05 99.85771 93.3625 98.93584Q93.675 97.99834 94.28438 97.49834Q94.90938 96.99834 95.84688 96.99834Q96.53438 96.99834 97.05 97.27959Q97.58125 97.56084 97.925 98.09209Q98.26875 98.60771 98.45625 99.35771Q98.64375 100.10771 98.64375 101.38896Q98.64375 102.90459 98.33125 103.82646Q98.03438 104.74834 97.40938 105.26396Q96.8 105.76396 95.84688 105.76396Q94.6125 105.76396 93.89375 104.87334Q93.05 103.81084 93.05 101.38896ZM94.12813 101.38896Q94.12813 103.49834 94.62813 104.20146Q95.12813 104.90459 95.84688 104.90459Q96.58125 104.90459 97.06563 104.20146Q97.56563 103.49834 97.56563 101.38896Q97.56563 99.26396 97.06563 98.57646Q96.58125 97.87334 95.83125 97.87334Q95.1125 97.87334 94.675 98.48271Q94.12813 99.26396 94.12813 101.38896ZM100.05 101.38896Q100.05 99.85771 100.3625 98.93584Q100.675 97.99834 101.28438 97.49834Q101.90938 96.99834 102.84688 96.99834Q103.53438 96.99834 104.05 97.27959Q104.58125 97.56084 104.925 98.09209Q105.26875 98.60771 105.45625 99.35771Q105.64375 100.10771 105.64375 101.38896Q105.64375 102.90459 105.33125 103.82646Q105.03438 104.74834 104.40938 105.26396Q103.8 105.76396 102.84688 105.76396Q101.6125 105.76396 100.89375 104.87334Q100.05 103.81084 100.05 101.38896ZM101.12813 101.38896Q101.12813 103.49834 101.62813 104.20146Q102.12813 104.90459 102.84688 104.90459Q103.58125 104.90459 104.06563 104.20146Q104.56563 103.49834 104.56563 101.38896Q104.56563 99.26396 104.06563 98.57646Q103.58125 97.87334 102.83125 97.87334Q102.1125 97.87334 101.675 98.48271Q101.12813 99.26396 101.12813 101.38896ZM107.05 101.38896Q107.05 99.85771 107.3625 98.93584Q107.675 97.99834 108.28438 97.49834Q108.90938 96.99834 109.84688 96.99834Q110.53438 96.99834 111.05 97.27959Q111.58125 97.56084 111.925 98.09209Q112.26875 98.60771 112.45625 99.35771Q112.64375 100.10771 112.64375 101.38896Q112.64375 102.90459 112.33125 103.82646Q112.03438 104.74834 111.40938 105.26396Q110.8 105.76396 109.84688 105.76396Q108.6125 105.76396 107.89375 104.87334Q107.05 103.81084 107.05 101.38896ZM108.12813 101.38896Q108.12813 103.49834 108.62813 104.20146Q109.12813 104.90459 109.84688 104.90459Q110.58125 104.90459 111.06563 104.20146Q111.56563 103.49834 111.56563 101.38896Q111.56563 99.26396 111.06563 98.57646Q110.58125 97.87334 109.83125 97.87334Q109.1125 97.87334 108.675 98.48271Q108.12813 99.26396 108.12813 101.38896ZM114.05 101.38896Q114.05 99.85771 114.3625 98.93584Q114.675 97.99834 115.28438 97.49834Q115.90938 96.99834 116.84688 96.99834Q117.53438 96.99834 118.05 97.27959Q118.58125 97.56084 118.925 98.09209Q119.26875 98.60771 119.45625 99.35771Q119.64375 100.10771 119.64375 101.38896Q119.64375 102.90459 119.33125 103.82646Q119.03438 104.74834 118.40938 105.26396Q117.8 105.76396 116.84688 105.76396Q115.6125 105.76396 114.89375 104.87334Q114.05 103.81084 114.05 101.38896ZM115.12813 101.38896Q115.12813 103.49834 115.62813 104.20146Q116.12813 104.90459 116.84688 104.90459Q117.58125 104.90459 118.06563 104.20146Q118.56563 103.49834 118.56563 101.38896Q118.56563 99.26396 118.06563 98.57646Q117.58125 97.87334 116.83125 97.87334Q116.1125 97.87334 115.675 98.48271Q115.12813 99.26396 115.12813 101.38896Z" fill-rule="nonzero"/><path fill="#000000" d="M51.05 53.666668L52.159374 53.572918Q52.284374 54.385418 52.721874 54.791668Q53.175 55.197918 53.815624 55.197918Q54.565624 55.197918 55.096874 54.619793Q55.628124 54.041668 55.628124 53.104168Q55.628124 52.197918 55.1125 51.682293Q54.6125 51.151043 53.784374 51.151043Q53.284374 51.151043 52.8625 51.385418Q52.45625 51.619793 52.221874 51.979168L51.2375 51.854168L52.065624 47.447918L56.346874 47.447918L56.346874 48.447918L52.909374 48.447918L52.45625 50.760418Q53.221874 50.213543 54.065624 50.213543Q55.190624 50.213543 55.95625 50.994793Q56.7375 51.776043 56.7375 53.010418Q56.7375 54.166668 56.065624 55.026043Q55.2375 56.057293 53.815624 56.057293Q52.64375 56.057293 51.89375 55.401043Q51.159374 54.744793 51.05 53.666668ZM58.05 51.682293Q58.05 50.151043 58.3625 49.229168Q58.675 48.291668 59.284374 47.791668Q59.909374 47.291668 60.846874 47.291668Q61.534374 47.291668 62.05 47.572918Q62.58125 47.854168 62.925 48.385418Q63.26875 48.901043 63.45625 49.651043Q63.64375 50.401043 63.64375 51.682293Q63.64375 53.197918 63.33125 54.119793Q63.034374 55.041668 62.409374 55.557293Q61.8 56.057293 60.846874 56.057293Q59.6125 56.057293 58.89375 55.166668Q58.05 54.104168 58.05 51.682293ZM59.128124 51.682293Q59.128124 53.791668 59.628124 54.494793Q60.128124 55.197918 60.846874 55.197918Q61.58125 55.197918 62.065624 54.494793Q62.565624 53.791668 62.565624 51.682293Q62.565624 49.557293 62.065624 48.869793Q61.58125 48.166668 60.83125 48.166668Q60.1125 48.166668 59.675 48.776043Q59.128124 49.557293 59.128124 51.682293ZM65.05 51.682293Q65.05 50.151043 65.3625 49.229168Q65.675 48.291668 66.28438 47.791668Q66.90938 47.291668 67.84688 47.291668Q68.53438 47.291668 69.05 47.572918Q69.58125 47.854168 69.925 48.385418Q70.26875 48.901043 70.45625 49.651043Q70.64375 50.401043 70.64375 51.682293Q70.64375 53.197918 70.33125 54.119793Q70.03438 55.041668 69.40938 55.557293Q68.8 56.057293 67.84688 56.057293Q66.6125 56.057293 65.89375 55.166668Q65.05 54.104168 65.05 51.682293ZM66.12813 51.682293Q66.12813 53.791668 66.62813 54.494793Q67.12813 55.197918 67.84688 55.197918Q68.58125 55.197918 69.06563 54.494793Q69.56563 53.791668 69.56563 51.682293Q69.56563 49.557293 69.06563 48.869793Q68.58125 48.166668 67.83125 48.166668Q67.1125 48.166668 66.675 48.776043Q66.12813 49.557293 66.12813 51.682293ZM72.05 51.682293Q72.05 50.151043 72.3625 49.229168Q72.675 48.291668 73.28438 47.791668Q73.90938 47.291668 74.84688 47.291668Q75.53438 47.291668 76.05 47.572918Q76.58125 47.854168 76.925 48.385418Q77.26875 48.901043 77.45625 49.651043Q77.64375 50.401043 77.64375 51.682293Q77.64375 53.197918 77.33125 54.119793Q77.03438 55.041668 76.40938 55.557293Q75.8 56.057293 74.84688 56.057293Q73.6125 56.057293 72.89375 55.166668Q72.05 54.104168 72.05 51.682293ZM73.12813 51.682293Q73.12813 53.791668 73.62813 54.494793Q74.12813 55.197918 74.84688 55.197918Q75.58125 55.197918 76.06563 54.494793Q76.56563 53.791668 76.56563 51.682293Q76.56563 49.557293 76.06563 48.869793Q75.58125 48.166668 74.83125 48.166668Q74.1125 48.166668 73.675 48.776043Q73.12813 49.557293 73.12813 51.682293ZM79.05 51.682293Q79.05 50.151043 79.3625 49.229168Q79.675 48.291668 80.28438 47.791668Q80.90938 47.291668 81.84688 47.291668Q82.53438 47.291668 83.05 47.572918Q83.58125 47.854168 83.925 48.385418Q84.26875 48.901043 84.45625 49.651043Q84.64375 50.401043 84.64375 51.682293Q84.64375 53.197918 84.33125 54.119793Q84.03438 55.041668 83.40938 55.557293Q82.8 56.057293 81.84688 56.057293Q80.6125 56.057293 79.89375 55.166668Q79.05 54.104168 79.05 51.682293ZM80.12813 51.682293Q80.12813 53.791668 80.62813 54.494793Q81.12813 55.197918 81.84688 55.197918Q82.58125 55.197918 83.06563 54.494793Q83.56563 53.791668 83.56563 51.682293Q83.56563 49.557293 83.06563 48.869793Q82.58125 48.166668 81.83125 48.166668Q81.1125 48.166668 80.675 48.776043Q80.12813 49.557293 80.12813 51.682293ZM86.05 51.682293Q86.05 50.151043 86.3625 49.229168Q86.675 48.291668 87.28438 47.791668Q87.90938 47.291668 88.84688 47.291668Q89.53438 47.291668 90.05 47.572918Q90.58125 47.854168 90.925 48.385418Q91.26875 48.901043 91.45625 49.651043Q91.64375 50.401043 91.64375 51.682293Q91.64375 53.197918 91.33125 54.119793Q91.03438 55.041668 90.40938 55.557293Q89.8 56.057293 88.84688 56.057293Q87.6125 56.057293 86.89375 55.166668Q86.05 54.104168 86.05 51.682293ZM87.12813 51.682293Q87.12813 53.791668 87.62813 54.494793Q88.12813 55.197918 88.84688 55.197918Q89.58125 55.197918 90.06563 54.494793Q90.56563 53.791668 90.56563 51.682293Q90.56563 49.557293 90.06563 48.869793Q89.58125 48.166668 88.83125 48.166668Q88.1125 48.166668 87.675 48.776043Q87.12813 49.557293 87.12813 51.682293ZM93.05 51.682293Q93.05 50.151043 93.3625 49.229168Q93.675 48.291668 94.28438 47.791668Q94.90938 47.291668 95.84688 47.291668Q96.53438 47.291668 97.05 47.572918Q97.58125 47.854168 97.925 48.385418Q98.26875 48.901043 98.45625 49.651043Q98.64375 50.401043 98.64375 51.682293Q98.64375 53.197918 98.33125 54.119793Q98.03438 55.041668 97.40938 55.557293Q96.8 56.057293 95.84688 56.057293Q94.6125 56.057293 93.89375 55.166668Q93.05 54.104168 93.05 51.682293ZM94.12813 51.682293Q94.12813 53.791668 94.62813 54.494793Q95.12813 55.197918 95.84688 55.197918Q96.58125 55.197918 97.06563 54.494793Q97.56563 53.791668 97.56563 51.682293Q97.56563 49.557293 97.06563 48.869793Q96.58125 48.166668 95.83125 48.166668Q95.1125 48.166668 94.675 48.776043Q94.12813 49.557293 94.12813 51.682293ZM100.05 51.682293Q100.05 50.151043 100.3625 49.229168Q100.675 48.291668 101.28438 47.791668Q101.90938 47.291668 102.84688 47.291668Q103.53438 47.291668 104.05 47.572918Q104.58125 47.854168 104.925 48.385418Q105.26875 48.901043 105.45625 49.651043Q105.64375 50.401043 105.64375 51.682293Q105.64375 53.197918 105.33125 54.119793Q105.03438 55.041668 104.40938 55.557293Q103.8 56.057293 102.84688 56.057293Q101.6125 56.057293 100.89375 55.166668Q100.05 54.104168 100.05 51.682293ZM101.12813 51.682293Q101.12813 53.791668 101.62813 54.494793Q102.12813 55.197918 102.84688 55.197918Q103.58125 55.197918 104.06563 54.494793Q104.56563 53.791668 104.56563 51.682293Q104.56563 49.557293 104.06563 48.869793Q103.58125 48.166668 102.83125 48.166668Q102.1125 48.166668 101.675 48.776043Q101.12813 49.557293 101.12813 51.682293ZM107.05 51.682293Q107.05 50.151043 107.3625 49.229168Q107.675 48.291668 108.28438 47.791668Q108.90938 47.291668 109.84688 47.291668Q110.53438 47.291668 111.05 47.572918Q111.58125 47.854168 111.925 48.385418Q112.26875 48.901043 112.45625 49.651043Q112.64375 50.401043 112.64375 51.682293Q112.64375 53.197918 112.33125 54.119793Q112.03438 55.041668 111.40938 55.557293Q110.8 56.057293 109.84688 56.057293Q108.6125 56.057293 107.89375 55.166668Q107.05 54.104168 107.05 51.682293ZM108.12813 51.682293Q108.12813 53.791668 108.62813 54.494793Q109.12813 55.197918 109.84688 55.197918Q110.58125 55.197918 111.06563 54.494793Q111.56563 53.791668 111.56563 51.682293Q111.56563 49.557293 111.06563 48.869793Q110.58125 48.166668 109.83125 48.166668Q109.1125 48.166668 108.675 48.776043Q108.12813 49.557293 108.12813 51.682293ZM114.05 51.682293Q114.05 50.151043 114.3625 49.229168Q114.675 48.291668 115.28438 47.791668Q115.90938 47.291668 116.84688 47.291668Q117.53438 47.291668 118.05 47.572918Q118.58125 47.854168 118.925 48.385418Q119.26875 48.901043 119.45625 49.651043Q119.64375 50.401043 119.64375 51.682293Q119.64375 53.197918 119.33125 54.119793Q119.03438 55.041668 118.40938 55.557293Q117.8 56.057293 116.84688 56.057293Q115.6125 56.057293 114.89375 55.166668Q114.05 54.104168 114.05 51.682293ZM115.12813 51.682293Q115.12813 53.791668 115.62813 54.494793Q116.12813 55.197918 116.84688 55.197918Q117.58125 55.197918 118.06563 54.494793Q118.56563 53.791668 118.56563 51.682293Q118.56563 49.557293 118.06563 48.869793Q117.58125 48.166668 116.83125 48.166668Q116.1125 48.166668 115.675 48.776043Q115.12813 49.557293 115.12813 51.682293Z" fill-rule="nonzero"/><path fill="#000000" d="M123.55 313.21564Q123.55 311.6844 123.8625 310.7625Q124.175 309.825 124.78438 309.325Q125.40938 308.825 126.34688 308.825Q127.03438 308.825 127.55 309.10626Q128.08125 309.3875 128.425 309.91876Q128.76875 310.4344 128.95625 311.1844Q129.14375 311.9344 129.14375 313.21564Q129.14375 314.73126 128.83125 315.65314Q128.53438 316.575 127.90938 317.09064Q127.3 317.59064 126.34688 317.59064Q125.1125 317.59064 124.39375 316.7Q123.55 315.6375 123.55 313.21564ZM124.62813 313.21564Q124.62813 315.325 125.12813 316.02814Q125.62813 316.73126 126.34688 316.73126Q127.08125 316.73126 127.56563 316.02814Q128.06563 315.325 128.06563 313.21564Q128.06563 311.09064 127.56563 310.40314Q127.08125 309.7 126.33125 309.7Q125.6125 309.7 125.175 310.3094Q124.62813 311.09064 124.62813 313.21564Z" fill-rule="nonzero"/><path fill="#000000" d="M252.34322 317.45L251.29634 317.45L251.29634 310.73126Q250.90572 311.09064 250.28072 311.46564Q249.67134 311.825 249.18697 311.9969L249.18697 310.98126Q250.06197 310.5594 250.71822 309.98126Q251.39009 309.3875 251.67134 308.825L252.34322 308.825L252.34322 317.45ZM255.37447 313.21564Q255.37447 311.6844 255.68697 310.7625Q255.99947 309.825 256.60883 309.325Q257.23383 308.825 258.17133 308.825Q258.85883 308.825 259.37445 309.10626Q259.9057 309.3875 260.24945 309.91876Q260.5932 310.4344 260.7807 311.1844Q260.9682 311.9344 260.9682 313.21564Q260.9682 314.73126 260.6557 315.65314Q260.35883 316.575 259.73383 317.09064Q259.12445 317.59064 258.17133 317.59064Q256.93695 317.59064 256.2182 316.7Q255.37447 315.6375 255.37447 313.21564ZM256.45258 313.21564Q256.45258 315.325 256.95258 316.02814Q257.45258 316.73126 258.17133 316.73126Q258.9057 316.73126 259.39008 316.02814Q259.89008 315.325 259.89008 313.21564Q259.89008 311.09064 259.39008 310.40314Q258.9057 309.7 258.1557 309.7Q257.43695 309.7 256.99945 310.3094Q256.45258 311.09064 256.45258 313.21564ZM262.37445 313.21564Q262.37445 311.6844 262.68695 310.7625Q262.99945 309.825 263.60883 309.325Q264.23383 308.825 265.17133 308.825Q265.85883 308.825 266.37445 309.10626Q266.9057 309.3875 267.24945 309.91876Q267.5932 310.4344 267.7807 311.1844Q267.9682 311.9344 267.9682 313.21564Q267.9682 314.73126 267.6557 315.65314Q267.35883 316.575 266.73383 317.09064Q266.12445 317.59064 265.17133 317.59064Q263.93695 317.59064 263.2182 316.7Q262.37445 315.6375 262.37445 313.21564ZM263.45258 313.21564Q263.45258 315.325 263.95258 316.02814Q264.45258 316.73126 265.17133 316.73126Q265.9057 316.73126 266.39008 316.02814Q266.89008 315.325 266.89008 313.21564Q266.89008 311.09064 266.39008 310.40314Q265.9057 309.7 265.1557 309.7Q264.43695 309.7 263.99945 310.3094Q263.45258 311.09064 263.45258 313.21564ZM269.37445 313.21564Q269.37445 311.6844 269.68695 310.7625Q269.99945 309.825 270.60883 309.325Q271.23383 308.825 272.17133 308.825Q272.85883 308.825 273.37445 309.10626Q273.9057 309.3875 274.24945 309.91876Q274.5932 310.4344 274.7807 311.1844Q274.9682 311.9344 274.9682 313.21564Q274.9682 314.73126 274.6557 315.65314Q274.35883 316.575 273.73383 317.09064Q273.12445 317.59064 272.17133 317.59064Q270.93695 317.59064 270.2182 316.7Q269.37445 315.6375 269.37445 313.21564ZM270.45258 313.21564Q270.45258 315.325 270.95258 316.02814Q271.45258 316.73126 272.17133 316.73126Q272.9057 316.73126 273.39008 316.02814Q273.89008 315.325 273.89008 313.21564Q273.89008 311.09064 273.39008 310.40314Q272.9057 309.7 272.1557 309.7Q271.43695 309.7 270.99945 310.3094Q270.45258 311.09064 270.45258 313.21564ZM276.37445 313.21564Q276.37445 311.6844 276.68695 310.7625Q276.99945 309.825 277.60883 309.325Q278.23383 308.825 279.17133 308.825Q279.85883 308.825 280.37445 309.10626Q280.9057 309.3875 281.24945 309.91876Q281.5932 310.4344 281.7807 311.1844Q281.9682 311.9344 281.9682 313.21564Q281.9682 314.73126 281.6557 315.65314Q281.35883 316.575 280.73383 317.09064Q280.12445 317.59064 279.17133 317.59064Q277.93695 317.59064 277.2182 316.7Q276.37445 315.6375 276.37445 313.21564ZM277.45258 313.21564Q277.45258 315.325 277.95258 316.02814Q278.45258 316.73126 279.17133 316.73126Q279.9057 316.73126 280.39008 316.02814Q280.89008 315.325 280.89008 313.21564Q280.89008 311.09064 280.39008 310.40314Q279.9057 309.7 279.1557 309.7Q278.43695 309.7 277.99945 310.3094Q277.45258 311.09064 277.45258 313.21564Z" fill-rule="nonzero"/><path fill="#000000" d="M392.7458 316.4344L392.7458 317.45L387.0583 317.45Q387.0583 317.075 387.1833 316.71564Q387.40204 316.1375 387.8708 315.575Q388.35516 315.0125 389.2614 314.27814Q390.66766 313.1219 391.15204 312.45Q391.65204 311.77814 391.65204 311.1844Q391.65204 310.5594 391.1989 310.1375Q390.7458 309.7 390.02704 309.7Q389.2614 309.7 388.8083 310.15314Q388.35516 310.60626 388.33954 311.41876L387.2614 311.3094Q387.3708 310.09064 388.08954 309.46564Q388.8239 308.825 390.0583 308.825Q391.29266 308.825 392.0114 309.5125Q392.73016 310.2 392.73016 311.21564Q392.73016 311.73126 392.5114 312.23126Q392.3083 312.71564 391.8083 313.27814Q391.3239 313.825 390.1989 314.77814Q389.2458 315.575 388.96454 315.8719Q388.6989 316.15314 388.52704 316.4344L392.7458 316.4344ZM394.1989 313.21564Q394.1989 311.6844 394.5114 310.7625Q394.8239 309.825 395.4333 309.325Q396.0583 308.825 396.9958 308.825Q397.6833 308.825 398.1989 309.10626Q398.73016 309.3875 399.0739 309.91876Q399.41766 310.4344 399.60516 311.1844Q399.79266 311.9344 399.79266 313.21564Q399.79266 314.73126 399.48016 315.65314Q399.1833 316.575 398.5583 317.09064Q397.9489 317.59064 396.9958 317.59064Q395.7614 317.59064 395.04266 316.7Q394.1989 315.6375 394.1989 313.21564ZM395.27704 313.21564Q395.27704 315.325 395.77704 316.02814Q396.27704 316.73126 396.9958 316.73126Q397.73016 316.73126 398.21454 316.02814Q398.71454 315.325 398.71454 313.21564Q398.71454 311.09064 398.21454 310.40314Q397.73016 309.7 396.98016 309.7Q396.2614 309.7 395.8239 310.3094Q395.27704 311.09064 395.27704 313.21564ZM401.1989 313.21564Q401.1989 311.6844 401.5114 310.7625Q401.8239 309.825 402.4333 309.325Q403.0583 308.825 403.9958 308.825Q404.6833 308.825 405.1989 309.10626Q405.73016 309.3875 406.0739 309.91876Q406.41766 310.4344 406.60516 311.1844Q406.79266 311.9344 406.79266 313.21564Q406.79266 314.73126 406.48016 315.65314Q406.1833 316.575 405.5583 317.09064Q404.9489 317.59064 403.9958 317.59064Q402.7614 317.59064 402.04266 316.7Q401.1989 315.6375 401.1989 313.21564ZM402.27704 313.21564Q402.27704 315.325 402.77704 316.02814Q403.27704 316.73126 403.9958 316.73126Q404.73016 316.73126 405.21454 316.02814Q405.71454 315.325 405.71454 313.21564Q405.71454 311.09064 405.21454 310.40314Q404.73016 309.7 403.98016 309.7Q403.2614 309.7 402.8239 310.3094Q402.27704 311.09064 402.27704 313.21564ZM408.1989 313.21564Q408.1989 311.6844 408.5114 310.7625Q408.8239 309.825 409.4333 309.325Q410.0583 308.825 410.9958 308.825Q411.6833 308.825 412.1989 309.10626Q412.73016 309.3875 413.0739 309.91876Q413.41766 310.4344 413.60516 311.1844Q413.79266 311.9344 413.79266 313.21564Q413.79266 314.73126 413.48016 315.65314Q413.1833 316.575 412.5583 317.09064Q411.9489 317.59064 410.9958 317.59064Q409.7614 317.59064 409.04266 316.7Q408.1989 315.6375 408.1989 313.21564ZM409.27704 313.21564Q409.27704 315.325 409.77704 316.02814Q410.27704 316.73126 410.9958 316.73126Q411.73016 316.73126 412.21454 316.02814Q412.71454 315.325 412.71454 313.21564Q412.71454 311.09064 412.21454 310.40314Q411.73016 309.7 410.98016 309.7Q410.2614 309.7 409.8239 310.3094Q409.27704 311.09064 409.27704 313.21564ZM415.1989 313.21564Q415.1989 311.6844 415.5114 310.7625Q415.8239 309.825 416.4333 309.325Q417.0583 308.825 417.9958 308.825Q418.6833 308.825 419.1989 309.10626Q419.73016 309.3875 420.0739 309.91876Q420.41766 310.4344 420.60516 311.1844Q420.79266 311.9344 420.79266 313.21564Q420.79266 314.73126 420.48016 315.65314Q420.1833 316.575 419.5583 317.09064Q418.9489 317.59064 417.9958 317.59064Q416.7614 317.59064 416.04266 316.7Q415.1989 315.6375 415.1989 313.21564ZM416.27704 313.21564Q416.27704 315.325 416.77704 316.02814Q417.27704 316.73126 417.9958 316.73126Q418.73016 316.73126 419.21454 316.02814Q419.71454 315.325 419.71454 313.21564Q419.71454 311.09064 419.21454 310.40314Q418.73016 309.7 417.98016 309.7Q417.2614 309.7 416.8239 310.3094Q416.27704 311.09064 416.27704 313.21564Z" fill-rule="nonzero"/><path fill="#000000" d="M526.0234 315.1844L527.0859 315.04376Q527.25775 315.9344 527.69525 316.34064Q528.13275 316.73126 528.75775 316.73126Q529.50775 316.73126 530.0234 316.21564Q530.539 315.7 530.539 314.9344Q530.539 314.21564 530.0546 313.7469Q529.5859 313.2625 528.8515 313.2625Q528.5546 313.2625 528.1015 313.3875L528.2265 312.45Q528.3359 312.46564 528.3984 312.46564Q529.07025 312.46564 529.6015 312.1219Q530.1484 311.7625 530.1484 311.02814Q530.1484 310.45 529.75775 310.075Q529.3671 309.6844 528.7421 309.6844Q528.13275 309.6844 527.7109 310.075Q527.3046 310.46564 527.19525 311.23126L526.13275 311.04376Q526.32025 309.9969 527.00775 309.41876Q527.69525 308.825 528.7109 308.825Q529.414 308.825 530.00775 309.1375Q530.6015 309.4344 530.914 309.95Q531.2265 310.46564 531.2265 311.0594Q531.2265 311.60626 530.9296 312.075Q530.63275 312.52814 530.0546 312.79376Q530.8046 312.96564 531.2265 313.52814Q531.6484 314.075 531.6484 314.91876Q531.6484 316.04376 530.82025 316.825Q530.00775 317.60626 528.75775 317.60626Q527.63275 317.60626 526.88275 316.9344Q526.13275 316.2469 526.0234 315.1844ZM533.0234 313.21564Q533.0234 311.6844 533.3359 310.7625Q533.6484 309.825 534.25775 309.325Q534.88275 308.825 535.82025 308.825Q536.50775 308.825 537.0234 309.10626Q537.5546 309.3875 537.8984 309.91876Q538.2421 310.4344 538.4296 311.1844Q538.6171 311.9344 538.6171 313.21564Q538.6171 314.73126 538.3046 315.65314Q538.00775 316.575 537.38275 317.09064Q536.7734 317.59064 535.82025 317.59064Q534.5859 317.59064 533.8671 316.7Q533.0234 315.6375 533.0234 313.21564ZM534.1015 313.21564Q534.1015 315.325 534.6015 316.02814Q535.1015 316.73126 535.82025 316.73126Q536.5546 316.73126 537.039 316.02814Q537.539 315.325 537.539 313.21564Q537.539 311.09064 537.039 310.40314Q536.5546 309.7 535.8046 309.7Q535.0859 309.7 534.6484 310.3094Q534.1015 311.09064 534.1015 313.21564ZM540.0234 313.21564Q540.0234 311.6844 540.3359 310.7625Q540.6484 309.825 541.25775 309.325Q541.88275 308.825 542.82025 308.825Q543.50775 308.825 544.0234 309.10626Q544.5546 309.3875 544.8984 309.91876Q545.2421 310.4344 545.4296 311.1844Q545.6171 311.9344 545.6171 313.21564Q545.6171 314.73126 545.3046 315.65314Q545.00775 316.575 544.38275 317.09064Q543.7734 317.59064 542.82025 317.59064Q541.5859 317.59064 540.8671 316.7Q540.0234 315.6375 540.0234 313.21564ZM541.1015 313.21564Q541.1015 315.325 541.6015 316.02814Q542.1015 316.73126 542.82025 316.73126Q543.5546 316.73126 544.039 316.02814Q544.539 315.325 544.539 313.21564Q544.539 311.09064 544.039 310.40314Q543.5546 309.7 542.8046 309.7Q542.0859 309.7 541.6484 310.3094Q541.1015 311.09064 541.1015 313.21564ZM547.0234 313.21564Q547.0234 311.6844 547.3359 310.7625Q547.6484 309.825 548.25775 309.325Q548.88275 308.825 549.82025 308.825Q550.50775 308.825 551.0234 309.10626Q551.5546 309.3875 551.8984 309.91876Q552.2421 310.4344 552.4296 311.1844Q552.6171 311.9344 552.6171 313.21564Q552.6171 314.73126 552.3046 315.65314Q552.00775 316.575 551.38275 317.09064Q550.7734 317.59064 549.82025 317.59064Q548.5859 317.59064 547.8671 316.7Q547.0234 315.6375 547.0234 313.21564ZM548.1015 313.21564Q548.1015 315.325 548.6015 316.02814Q549.1015 316.73126 549.82025 316.73126Q550.5546 316.73126 551.039 316.02814Q551.539 315.325 551.539 313.21564Q551.539 311.09064 551.039 310.40314Q550.5546 309.7 549.8046 309.7Q549.0859 309.7 548.6484 310.3094Q548.1015 311.09064 548.1015 313.21564ZM554.0234 313.21564Q554.0234 311.6844 554.3359 310.7625Q554.6484 309.825 555.25775 309.325Q555.88275 308.825 556.82025 308.825Q557.50775 308.825 558.0234 309.10626Q558.5546 309.3875 558.8984 309.91876Q559.2421 310.4344 559.4296 311.1844Q559.6171 311.9344 559.6171 313.21564Q559.6171 314.73126 559.3046 315.65314Q559.00775 316.575 558.38275 317.09064Q557.7734 317.59064 556.82025 317.59064Q555.5859 317.59064 554.8671 316.7Q554.0234 315.6375 554.0234 313.21564ZM555.1015 313.21564Q555.1015 315.325 555.6015 316.02814Q556.1015 316.73126 556.82025 316.73126Q557.5546 316.73126 558.039 316.02814Q558.539 315.325 558.539 313.21564Q558.539 311.09064 558.039 310.40314Q557.5546 309.7 556.8046 309.7Q556.0859 309.7 555.6484 310.3094Q555.1015 311.09064 555.1015 313.21564Z" fill-rule="nonzero"/><path stroke="#4285f4" stroke-width="4.0" stroke-linecap="butt" d="M249.0 25.55L261.0 25.55" fill-rule="nonzero"/><path fill="#1a1a1a" d="M269.54688 26.784374L270.60938 26.690624Q270.6875 27.346874 270.96875 27.753124Q271.25 28.159374 271.82812 28.425Q272.42188 28.675 273.15625 28.675Q273.79688 28.675 274.29688 28.4875Q274.79688 28.284374 275.03125 27.95625Q275.28125 27.6125 275.28125 27.221874Q275.28125 26.815624 275.04688 26.51875Q274.8125 26.20625 274.28125 26.003124Q273.92188 25.8625 272.73438 25.58125Q271.5625 25.3 271.09375 25.05Q270.46875 24.721874 270.17188 24.253124Q269.875 23.76875 269.875 23.175Q269.875 22.534374 270.23438 21.971874Q270.60938 21.39375 271.3125 21.1125Q272.03125 20.815624 272.89062 20.815624Q273.84375 20.815624 274.57812 21.128124Q275.3125 21.425 275.70312 22.034374Q276.09375 22.628124 276.125 23.378124L275.03125 23.45625Q274.9375 22.64375 274.42188 22.2375Q273.92188 21.815624 272.9375 21.815624Q271.90625 21.815624 271.4375 22.190624Q270.96875 22.565624 270.96875 23.096874Q270.96875 23.565624 271.29688 23.8625Q271.625 24.159374 273.0 24.471874Q274.39062 24.784374 274.90625 25.01875Q275.65625 25.378124 276.01562 25.909374Q276.375 26.425 276.375 27.128124Q276.375 27.815624 275.98438 28.425Q275.59375 29.01875 274.85938 29.3625Q274.125 29.690624 273.20312 29.690624Q272.03125 29.690624 271.23438 29.3625Q270.45312 29.01875 270.0 28.33125Q269.5625 27.64375 269.54688 26.784374ZM277.76562 29.55L277.76562 20.95625L278.82812 20.95625L278.82812 29.55L277.76562 29.55ZM280.79688 22.175L280.79688 20.95625L281.85938 20.95625L281.85938 22.175L280.79688 22.175ZM280.79688 29.55L280.79688 23.33125L281.85938 23.33125L281.85938 29.55L280.79688 29.55ZM287.85938 27.26875L288.89062 27.409374Q288.71875 28.471874 288.01562 29.08125Q287.3125 29.690624 286.29688 29.690624Q285.01562 29.690624 284.23438 28.8625Q283.46875 28.01875 283.46875 26.45625Q283.46875 25.45625 283.79688 24.70625Q284.14062 23.940624 284.8125 23.565624Q285.5 23.190624 286.3125 23.190624Q287.3125 23.190624 287.95312 23.70625Q288.60938 24.20625 288.79688 25.159374L287.76562 25.315624Q287.625 24.690624 287.25 24.378124Q286.875 24.05 286.34375 24.05Q285.54688 24.05 285.04688 24.628124Q284.54688 25.190624 284.54688 26.425Q284.54688 27.690624 285.03125 28.253124Q285.51562 28.815624 286.28125 28.815624Q286.90625 28.815624 287.3125 28.440624Q287.73438 28.065624 287.85938 27.26875ZM294.04688 27.55L295.14062 27.675Q294.89062 28.628124 294.1875 29.159374Q293.48438 29.690624 292.40625 29.690624Q291.04688 29.690624 290.23438 28.846874Q289.4375 28.003124 289.4375 26.4875Q289.4375 24.925 290.25 24.065624Q291.0625 23.190624 292.34375 23.190624Q293.59375 23.190624 294.375 24.034374Q295.17188 24.878124 295.17188 26.425Q295.17188 26.51875 295.17188 26.70625L290.53125 26.70625Q290.59375 27.7375 291.10938 28.284374Q291.625 28.815624 292.40625 28.815624Q292.98438 28.815624 293.39062 28.51875Q293.8125 28.20625 294.04688 27.55ZM290.59375 25.846874L294.0625 25.846874Q294.0 25.05 293.67188 24.659374Q293.15625 24.05 292.35938 24.05Q291.625 24.05 291.125 24.534374Q290.64062 25.01875 290.59375 25.846874Z" fill-rule="nonzero"/><path stroke="#ea4335" stroke-width="4.0" stroke-linecap="butt" d="M312.0 25.55L324.0 25.55" fill-rule="nonzero"/><path fill="#1a1a1a" d="M332.875 29.55L332.875 20.95625L334.01562 20.95625L334.01562 28.534374L338.25 28.534374L338.25 29.55L332.875 29.55ZM339.79688 22.175L339.79688 20.95625L340.85938 20.95625L340.85938 22.175L339.79688 22.175ZM339.79688 29.55L339.79688 23.33125L340.85938 23.33125L340.85938 29.55L339.79688 29.55ZM342.375 27.690624L343.40625 27.534374Q343.5 28.159374 343.89062 28.4875Q344.29688 28.815624 345.03125 28.815624Q345.75 28.815624 346.09375 28.534374Q346.45312 28.2375 346.45312 27.83125Q346.45312 27.471874 346.14062 27.26875Q345.92188 27.128124 345.0625 26.909374Q343.90625 26.6125 343.45312 26.409374Q343.01562 26.190624 342.78125 25.815624Q342.54688 25.440624 342.54688 24.971874Q342.54688 24.565624 342.73438 24.20625Q342.92188 23.846874 343.25 23.6125Q343.5 23.440624 343.92188 23.315624Q344.34375 23.190624 344.84375 23.190624Q345.5625 23.190624 346.10938 23.409374Q346.67188 23.6125 346.9375 23.971874Q347.20312 24.33125 347.29688 24.925L346.26562 25.065624Q346.20312 24.596874 345.85938 24.33125Q345.53125 24.05 344.90625 24.05Q344.1875 24.05 343.875 24.3Q343.5625 24.534374 343.5625 24.8625Q343.5625 25.065624 343.6875 25.221874Q343.82812 25.39375 344.09375 25.503124Q344.25 25.565624 345.03125 25.76875Q346.15625 26.08125 346.59375 26.26875Q347.03125 26.45625 347.28125 26.815624Q347.53125 27.175 347.53125 27.721874Q347.53125 28.253124 347.21875 28.721874Q346.92188 29.175 346.34375 29.440624Q345.76562 29.690624 345.03125 29.690624Q343.8125 29.690624 343.17188 29.190624Q342.54688 28.675 342.375 27.690624ZM351.09375 28.6125L351.25 29.534374Q350.79688 29.628124 350.45312 29.628124Q349.875 29.628124 349.5625 29.45625Q349.25 29.26875 349.10938 28.971874Q348.98438 28.675 348.98438 27.721874L348.98438 24.14375L348.21875 24.14375L348.21875 23.33125L348.98438 23.33125L348.98438 21.784374L350.03125 21.159374L350.03125 23.33125L351.09375 23.33125L351.09375 24.14375L350.03125 24.14375L350.03125 27.784374Q350.03125 28.2375 350.07812 28.3625Q350.14062 28.4875 350.26562 28.565624Q350.39062 28.64375 350.625 28.64375Q350.8125 28.64375 351.09375 28.6125Z" fill-rule="nonzero"/></svg>