<svg version="1.1" viewBox="0.0 0.0 600.0 371.0" fill="none" stroke="none" stroke-linecap="square" stroke-miterlimit="10" width="600" height="371" xmlns:xlink="http://www.w3.org/1999/xlink" xmlns="http://www.w3.org/2000/svg"><path fill="#ffffff" d="M0 0L600.0 0L600.0 371.0L0 371.0L0 0Z" fill-rule="nonzero"/><path stroke="#cccccc" stroke-width="1.0" stroke-linecap="butt" d="M215.5 51.5L215.5 300.5" fill-rule="nonzero"/><path stroke="#cccccc" stroke-width="1.0" stroke-linecap="butt" d="M333.5 51.5L333.5 300.5" fill-rule="nonzero"/><path stroke="#cccccc" stroke-width="1.0" stroke-linecap="butt" d="M451.5 51.5L451.5 300.5" fill-rule="nonzero"/><path stroke="#cccccc" stroke-width="1.0" stroke-linecap="butt" d="M570.5 51.5L570.5 300.5" fill-rule="nonzero"/><path stroke="#333333" stroke-width="1.0" stroke-linecap="butt" d="M98.5 300.5L581.5 300.5" fill-rule="nonzero"/><path stroke="#cccccc" stroke-width="1.0" stroke-linecap="butt" d="M98.5 238.5L581.5 238.5" fill-rule="nonzero"/><path stroke="#cccccc" stroke-width="1.0" stroke-linecap="butt" d="M98.5 176.5L581.5 176.5" fill-rule="nonzero"/><path stroke="#cccccc" stroke-width="1.0" stroke-linecap="butt" d="M98.5 114.5L581.5 114.5" fill-rule="nonzero"/><path stroke="#cccccc" stroke-width="1.0" stroke-linecap="butt" d="M98.5 51.5L581.5 51.5" fill-rule="nonzero"/><clipPath id="id_0"><path d="M98.55 51.916668L581.45 51.916668L581.45 300.45L98.55 300.45L98.55 51.916668Z" clip-rule="nonzero"/></clipPath><path stroke="#4285f4" stroke-width="2.0" stroke-linecap="butt" clip-path="url(#id_0)" d="M98.55 300.36612L99.49501 299.89328L101.38503 299.1623L105.16507 297.68195L112.72514 294.83316L127.84531 288.56732L158.08562 276.378L218.56624 254.69719L581.45 120.36927" fill-rule="nonzero"/><path stroke="#ea4335" stroke-width="2.0" stroke-linecap="butt" clip-path="url(#id_0)" d="M98.55 300.34592L99.49501 300.24466L101.38503 300.0303L105.16507 299.445L112.72514 298.3235L127.84531 294.0133L158.08562 283.26828L218.56624 261.50266L581.45 93.86319" fill-rule="nonzero"/><path fill="#000000" fill-opacity="0.0" clip-path="url(#id_0)" d="M101.55 300.36612C101.55 302.02298 100.206856 303.36612 98.55 303.36612C96.89314 303.36612 95.55 302.02298 95.55 300.36612C95.55 298.70926 96.89314 297.36612 98.55 297.36612C100.206856 297.36612 101.55 298.70926 101.55 300.36612Z" fill-rule="nonzero"/><path fill="#000000" fill-opacity="0.0" clip-path="url(#id_0)" d="M102.49501 299.89328C102.49501 301.55014 101.15186 302.89328 99.49501 302.89328C97.83816 302.89328 96.49501 301.55014 96.49501 299.89328C96.49501 298.23642 97.83816 296.89328 99.49501 296.89328C101.15186 296.89328 102.49501 298.23642 102.49501 299.89328Z" fill-rule="nonzero"/><path fill="#000000" fill-opacity="0.0" clip-path="url(#id_0)" d="M104.38503 299.1623C104.38503 300.81915 103.041885 302.1623 101.38503 302.1623C99.72817 302.1623 98.38503 300.81915 98.38503 299.1623C98.38503 297.50543 99.72817 296.1623 101.38503 296.1623C103.041885 296.1623 104.38503 297.50543 104.38503 299.1623Z" fill-rule="nonzero"/><path fill="#000000" fill-opacity="0.0" clip-path="url(#id_0)" d="M108.16507 297.68195C108.16507 299.3388 106.82192 300.68195 105.16507 300.68195C103.50822 300.68195 102.16507 299.3388 102.16507 297.68195C102.16507 296.02512 103.50822 294.68195 105.16507 294.68195C106.82192 294.68195 108.16507 296.02512 108.16507 297.68195Z" fill-rule="nonzero"/><path fill="#000000" fill-opacity="0.0" clip-path="url(#id_0)" d="M115.72514 294.83316C115.72514 296.49 114.382 297.83316 112.72514 297.83316C111.06829 297.83316 109.72514 296.49 109.72514 294.83316C109.72514 293.1763 111.06829 291.83316 112.72514 291.83316C114.382 291.83316 115.72514 293.1763 115.72514 294.83316Z" fill-rule="nonzero"/><path fill="#000000" fill-opacity="0.0" clip-path="url(#id_0)" d="M130.8453 288.56732C130.8453 290.22415 129.50215 291.56732 127.84531 291.56732C126.188446 291.56732 124.84531 290.22415 124.84531 288.56732C124.84531 286.91046 126.188446 285.56732 127.84531 285.56732C129.50215 285.56732 130.8453 286.91046 130.8453 288.56732Z" fill-rule="nonzero"/><path fill="#000000" fill-opacity="0.0" clip-path="url(#id_0)" d="M161.08562 276.378C161.08562 278.03485 159.74248 279.378 158.08562 279.378C156.42876 279.378 155.08562 278.03485 155.08562 276.378C155.08562 274.72113 156.42876 273.378 158.08562 273.378C159.74248 273.378 161.08562 274.72113 161.08562 276.378Z" fill-rule="nonzero"/><path fill="#000000" fill-opacity="0.0" clip-path="url(#id_0)" d="M221.56624 254.69719C221.56624 256.35403 220.2231 257.69717 218.56624 257.69717C216.9094 257.69717 215.56624 256.35403 215.56624 254.69719C215.56624 253.04033 216.9094 251.69719 218.56624 251.69719C220.2231 251.69719 221.56624 253.04033 221.56624 254.69719Z" fill-rule="nonzero"/><path fill="#000000" fill-opacity="0.0" clip-path="url(#id_0)" d="M584.45 120.36927C584.45 122.02612 583.1069 123.36927 581.45 123.36927C579.79315 123.36927 578.45 122.02612 578.45 120.36927C578.45 118.71242 579.79315 117.36927 581.45 117.36927C583.1069 117.36927 584.45 118.71242 584.45 120.36927Z" fill-rule="nonzero"/><path fill="#000000" fill-opacity="0.0" clip-path="url(#id_0)" d="M101.55 300.34592C101.55 302.00278 100.206856 303.34592 98.55 303.34592C96.89314 303.34592 95.55 302.00278 95.55 300.34592C95.55 298.6891 96.89314 297.34592 98.55 297.34592C100.206856 297.34592 101.55 298.6891 101.55 300.34592Z" fill-rule="nonzero"/><path fill="#000000" fill-opacity="0.0" clip-path="url(#id_0)" d="M102.49501 300.24466C102.49501 301.9015 101.15186 303.24466 99.49501 303.24466C97.83816 303.24466 96.49501 301.9015 96.49501 300.24466C96.49501 298.5878 97.83816 297.24466 99.49501 297.24466C101.15186 297.24466 102.49501 298.5878 102.49501 300.24466Z" fill-rule="nonzero"/><path fill="#000000" fill-opacity="0.0" clip-path="url(#id_0)" d="M104.38503 300.0303C104.38503 301.68713 103.041885 303.0303 101.38503 303.0303C99.72817 303.0303 98.38503 301.68713 98.38503 300.0303C98.38503 298.37344 99.72817 297.0303 101.38503 297.0303C103.041885 297.0303 104.38503 298.37344 104.38503 300.0303Z" fill-rule="nonzero"/><path fill="#000000" fill-opacity="0.0" clip-path="url(#id_0)" d="M108.16507 299.445C108.16507 301.10184 106.82192 302.445 105.16507 302.445C103.50822 302.445 102.16507 301.10184 102.16507 299.445C102.16507 297.78815 103.50822 296.445 105.16507 296.445C106.82192 296.445 108.16507 297.78815 108.16507 299.445Z" fill-rule="nonzero"/><path fill="#000000" fill-opacity="0.0" clip-path="url(#id_0)" d="M115.72514 298.3235C115.72514 299.98035 114.382 301.3235 112.72514 301.3235C111.06829 301.3235 109.72514 299.98035 109.72514 298.3235C109.72514 296.66663 111.06829 295.3235 112.72514 295.3235C114.382 295.3235 115.72514 296.66663 115.72514 298.3235Z" fill-rule="nonzero"/><path fill="#000000" fill-opacity="0.0" clip-path="url(#id_0)" d="M130.8453 294.0133C130.8453 295.67017 129.50215 297.0133 127.84531 297.0133C126.188446 297.0133 124.84531 295.67017 124.84531 294.0133C124.84531 292.35645 126.188446 291.0133 127.84531 291.0133C129.50215 291.0133 130.8453 292.35645 130.8453 294.0133Z" fill-rule="nonzero"/><path fill="#000000" fill-opacity="0.0" clip-path="url(#id_0)" d="M161.08562 283.26828C161.08562 284.9251 159.74248 286.26828 158.08562 286.26828C156.42876 286.26828 155.08562 284.9251 155.08562 283.26828C155.08562 281.61142 156.42876 280.26828 158.08562 280.26828C159.74248 280.26828 161.08562 281.61142 161.08562 283.26828Z" fill-rule="nonzero"/><path fill="#000000" fill-opacity="0.0" clip-path="url(#id_0)" d="M221.56624 261.50266C221.56624 263.15952 220.2231 264.50266 218.56624 264.50266C216.9094 264.50266 215.56624 263.15952 215.56624 261.50266C215.56624 259.8458 216.9094 258.50266 218.56624 258.50266C220.2231 258.50266 221.56624 259.8458 221.56624 261.50266Z" fill-rule="nonzero"/><path fill="#000000" fill-opacity="0.0" clip-path="url(#id_0)" d="M584.45 93.86319C584.45 95.52004 583.1069 96.86319 581.45 96.86319C579.79315 96.86319 578.45 95.52004 578.45 93.86319C578.45 92.20634 579.79315 90.86319 581.45 90.86319C583.1069 90.86319 584.45 92.20634 584.45 93.86319Z" fill-rule="nonzero"/><path fill="#000000" d="M320.10938 349.59064L320.60938 347.10626L319.625 347.10626L319.625 346.23126L320.79688 346.23126L321.21875 344.10626L319.625 344.10626L319.625 343.23126L321.40625 343.23126L321.90625 340.71564L322.78125 340.71564L322.28125 343.23126L324.125 343.23126L324.64062 340.71564L325.51562 340.71564L325.01562 343.23126L326.01562 343.23126L326.01562 344.10626L324.82812 344.10626L324.39062 346.23126L326.01562 346.23126L326.01562 347.10626L324.21875 347.10626L323.70312 349.59064L322.82812 349.59064L323.32812 347.10626L321.5 347.10626L320.98438 349.59064L320.10938 349.59064ZM321.67188 346.23126L323.51562 346.23126L323.95312 344.10626L322.10938 344.10626L321.67188 346.23126ZM330.28125 349.45L330.28125 343.23126L331.23438 343.23126L331.23438 344.16876Q331.59375 343.5125 331.89062 343.3094Q332.20312 343.09064 332.57812 343.09064Q333.10938 343.09064 333.65625 343.41876L333.29688 344.40314Q332.90625 344.16876 332.53125 344.16876Q332.17188 344.16876 331.89062 344.3875Q331.625 344.59064 331.51562 344.96564Q331.32812 345.52814 331.32812 346.1844L331.32812 349.45L330.28125 349.45ZM338.375 349.45L338.375 348.52814Q337.64062 349.59064 336.39062 349.59064Q335.84375 349.59064 335.35938 349.3875Q334.89062 349.16876 334.65625 348.85626Q334.42188 348.52814 334.32812 348.0594Q334.26562 347.7625 334.26562 347.075L334.26562 343.23126L335.32812 343.23126L335.32812 346.6844Q335.32812 347.4969 335.39062 347.79376Q335.48438 348.2 335.79688 348.45Q336.125 348.6844 336.60938 348.6844Q337.07812 348.6844 337.48438 348.45Q337.90625 348.2 338.07812 347.77814Q338.26562 347.35626 338.26562 346.5594L338.26562 343.23126L339.3125 343.23126L339.3125 349.45L338.375 349.45ZM341.29688 349.45L341.29688 343.23126L342.23438 343.23126L342.23438 344.10626Q342.92188 343.09064 344.21875 343.09064Q344.78125 343.09064 345.25 343.29376Q345.73438 343.4969 345.96875 343.825Q346.20312 344.15314 346.29688 344.59064Q346.34375 344.8875 346.34375 345.6219L346.34375 349.45L345.29688 349.45L345.29688 345.66876Q345.29688 345.0125 345.17188 344.7Q345.04688 344.3875 344.73438 344.2Q344.42188 343.9969 344.0 343.9969Q343.32812 343.9969 342.82812 344.4344Q342.34375 344.85626 342.34375 346.04376L342.34375 349.45L341.29688 349.45ZM352.54688 347.45L353.64062 347.575Q353.39062 348.52814 352.6875 349.0594Q351.98438 349.59064 350.90625 349.59064Q349.54688 349.59064 348.73438 348.7469Q347.9375 347.90314 347.9375 346.3875Q347.9375 344.825 348.75 343.96564Q349.5625 343.09064 350.84375 343.09064Q352.09375 343.09064 352.875 343.9344Q353.67188 344.77814 353.67188 346.325Q353.67188 346.41876 353.67188 346.60626L349.03125 346.60626Q349.09375 347.6375 349.60938 348.1844Q350.125 348.71564 350.90625 348.71564Q351.48438 348.71564 351.89062 348.41876Q352.3125 348.10626 352.54688 347.45ZM349.09375 345.7469L352.5625 345.7469Q352.5 344.95 352.17188 344.5594Q351.65625 343.95 350.85938 343.95Q350.125 343.95 349.625 344.4344Q349.14062 344.91876 349.09375 345.7469ZM354.875 347.59064L355.90625 347.4344Q356.0 348.0594 356.39062 348.3875Q356.79688 348.71564 357.53125 348.71564Q358.25 348.71564 358.59375 348.4344Q358.95312 348.1375 358.95312 347.73126Q358.95312 347.3719 358.64062 347.16876Q358.42188 347.02814 357.5625 346.8094Q356.40625 346.5125 355.95312 346.3094Q355.51562 346.09064 355.28125 345.71564Q355.04688 345.34064 355.04688 344.8719Q355.04688 344.46564 355.23438 344.10626Q355.42188 343.7469 355.75 343.5125Q356.0 343.34064 356.42188 343.21564Q356.84375 343.09064 357.34375 343.09064Q358.0625 343.09064 358.60938 343.3094Q359.17188 343.5125 359.4375 343.8719Q359.70312 344.23126 359.79688 344.825L358.76562 344.96564Q358.70312 344.4969 358.35938 344.23126Q358.03125 343.95 357.40625 343.95Q356.6875 343.95 356.375 344.2Q356.0625 344.4344 356.0625 344.7625Q356.0625 344.96564 356.1875 345.1219Q356.32812 345.29376 356.59375 345.40314Q356.75 345.46564 357.53125 345.66876Q358.65625 345.98126 359.09375 346.16876Q359.53125 346.35626 359.78125 346.71564Q360.03125 347.075 360.03125 347.6219Q360.03125 348.15314 359.71875 348.6219Q359.42188 349.075 358.84375 349.34064Q358.26562 349.59064 357.53125 349.59064Q356.3125 349.59064 355.67188 349.09064Q355.04688 348.575 354.875 347.59064Z" fill-rule="nonzero"/><path fill="#000000" d="M29.550013 196.88646L23.331263 196.88646L23.331263 195.94896L24.206263 195.94896Q23.190638 195.26146 23.190638 193.96458Q23.190638 193.40208 23.393763 192.93333Q23.596888 192.44896 23.925013 192.21458Q24.253138 191.98021 24.690638 191.88646Q24.987513 191.83958 25.721888 191.83958L29.550013 191.83958L29.550013 192.88646L25.768763 192.88646Q25.112513 192.88646 24.800013 193.01146Q24.487513 193.13646 24.300013 193.44896Q24.096888 193.76146 24.096888 194.18333Q24.096888 194.85521 24.534388 195.35521Q24.956263 195.83958 26.143763 195.83958L29.550013 195.83958L29.550013 196.88646ZM27.690638 190.30833L27.534388 189.27708Q28.159388 189.18333 28.487513 188.79271Q28.815638 188.38646 28.815638 187.65208Q28.815638 186.93333 28.534388 186.58958Q28.237513 186.23021 27.831263 186.23021Q27.471888 186.23021 27.268763 186.54271Q27.128138 186.76146 26.909388 187.62083Q26.612513 188.77708 26.409388 189.23021Q26.190638 189.66771 25.815638 189.90208Q25.440638 190.13646 24.971888 190.13646Q24.565638 190.13646 24.206263 189.94896Q23.846888 189.76146 23.612513 189.43333Q23.440638 189.18333 23.315638 188.76146Q23.190638 188.33958 23.190638 187.83958Q23.190638 187.12083 23.409388 186.57396Q23.612513 186.01146 23.971888 185.74583Q24.331263 185.48021 24.925013 185.38646L25.065638 186.41771Q24.596888 186.48021 24.331263 186.82396Q24.050013 187.15208 24.050013 187.77708Q24.050013 188.49583 24.300013 188.80833Q24.534388 189.12083 24.862513 189.12083Q25.065638 189.12083 25.221888 188.99583Q25.393763 188.85521 25.503138 188.58958Q25.565638 188.43333 25.768763 187.65208Q26.081263 186.52708 26.268763 186.08958Q26.456263 185.65208 26.815638 185.40208Q27.175013 185.15208 27.721888 185.15208Q28.253138 185.15208 28.721888 185.46458Q29.175013 185.76146 29.440638 186.33958Q29.690638 186.91771 29.690638 187.65208Q29.690638 188.87083 29.190638 189.51146Q28.675013 190.13646 27.690638 190.30833ZM29.690638 184.68333L20.815638 182.19896L20.815638 181.35521L29.690638 183.83958L29.690638 184.68333ZM26.440638 181.27708Q24.706263 181.27708 23.878138 180.32396Q23.190638 179.52708 23.190638 178.37083Q23.190638 177.08958 24.034388 176.27708Q24.862513 175.44896 26.346888 175.44896Q27.550013 175.44896 28.237513 175.80833Q28.925013 176.16771 29.315638 176.87083Q29.690638 177.55833 29.690638 178.37083Q29.690638 179.66771 28.862513 180.48021Q28.018763 181.27708 26.440638 181.27708ZM26.440638 180.19896Q27.628138 180.19896 28.221888 179.68333Q28.815638 179.15208 28.815638 178.37083Q28.815638 177.57396 28.221888 177.05833Q27.628138 176.54271 26.409388 176.54271Q25.253138 176.54271 24.659388 177.07396Q24.065638 177.58958 24.065638 178.37083Q24.065638 179.15208 24.659388 179.68333Q25.237513 180.19896 26.440638 180.19896ZM31.940638 173.88646L23.331263 173.88646L23.331263 172.93333L24.128138 172.93333Q23.659388 172.58958 23.425013 172.16771Q23.190638 171.73021 23.190638 171.12083Q23.190638 170.32396 23.596888 169.71458Q24.003138 169.10521 24.753138 168.80833Q25.503138 168.49583 26.393763 168.49583Q27.346888 168.49583 28.112513 168.83958Q28.878138 169.16771 29.284388 169.82396Q29.690638 170.48021 29.690638 171.19896Q29.690638 171.73021 29.471888 172.15208Q29.237513 172.57396 28.909388 172.83958L31.940638 172.83958L31.940638 173.88646ZM26.471888 172.93333Q27.675013 172.93333 28.253138 172.44896Q28.815638 171.96458 28.815638 171.27708Q28.815638 170.57396 28.221888 170.07396Q27.628138 169.57396 26.378138 169.57396Q25.190638 169.57396 24.612513 170.05833Q24.018763 170.54271 24.018763 171.23021Q24.018763 171.90208 24.643763 172.41771Q25.268763 172.93333 26.471888 172.93333Z" fill-rule="nonzero"/><path fill="#000000" d="M86.05 300.21564Q86.05 298.6844 86.3625 297.7625Q86.675 296.825 87.28438 296.325Q87.90938 295.825 88.84688 295.825Q89.53438 295.825 90.05 296.10626Q90.58125 296.3875 90.925 296.91876Q91.26875 297.4344 91.45625 298.1844Q91.64375 298.9344 91.64375 300.21564Q91.64375 301.73126 91.33125 302.65314Q91.03438 303.575 90.40938 304.09064Q89.8 304.59064 88.84688 304.59064Q87.6125 304.59064 86.89375 303.7Q86.05 302.6375 86.05 300.21564ZM87.12813 300.21564Q87.12813 302.325 87.62813 303.02814Q88.12813 303.73126 88.84688 303.73126Q89.58125 303.73126 90.06563 303.02814Q90.56563 302.325 90.56563 300.21564Q90.56563 298.09064 90.06563 297.40314Q89.58125 296.7 88.83125 296.7Q88.1125 296.7 87.675 297.3094Q87.12813 298.09064 87.12813 300.21564Z" fill-rule="nonzero"/><path fill="#000000" d="M56.596874 241.30104L56.596874 242.31667L50.909374 242.31667Q50.909374 241.94167 51.034374 241.58229Q51.253124 241.00417 51.721874 240.44167Q52.20625 239.87917 53.1125 239.14479Q54.51875 237.98854 55.003124 237.31667Q55.503124 236.64479 55.503124 236.05104Q55.503124 235.42604 55.05 235.00417Q54.596874 234.56667 53.878124 234.56667Q53.1125 234.56667 52.659374 235.01979Q52.20625 235.47292 52.190624 236.28542L51.1125 236.17604Q51.221874 234.95729 51.940624 234.33229Q52.675 233.69167 53.909374 233.69167Q55.14375 233.69167 55.8625 234.37917Q56.58125 235.06667 56.58125 236.08229Q56.58125 236.59792 56.3625 237.09792Q56.159374 237.58229 55.659374 238.14479Q55.175 238.69167 54.05 239.64479Q53.096874 240.44167 52.815624 240.73854Q52.55 241.01979 52.378124 241.30104L56.596874 241.30104ZM58.05 238.08229Q58.05 236.55104 58.3625 235.62917Q58.675 234.69167 59.284374 234.19167Q59.909374 233.69167 60.846874 233.69167Q61.534374 233.69167 62.05 233.97292Q62.58125 234.25417 62.925 234.78542Q63.26875 235.30104 63.45625 236.05104Q63.64375 236.80104 63.64375 238.08229Q63.64375 239.59792 63.33125 240.51979Q63.034374 241.44167 62.409374 241.95729Q61.8 242.45729 60.846874 242.45729Q59.6125 242.45729 58.89375 241.56667Q58.05 240.50417 58.05 238.08229ZM59.128124 238.08229Q59.128124 240.19167 59.628124 240.89479Q60.128124 241.59792 60.846874 241.59792Q61.58125 241.59792 62.065624 240.89479Q62.565624 240.19167 62.565624 238.08229Q62.565624 235.95729 62.065624 235.26979Q61.58125 234.56667 60.83125 234.56667Q60.1125 234.56667 59.675 235.17604Q59.128124 235.95729 59.128124 238.08229ZM65.05 238.08229Q65.05 236.55104 65.3625 235.62917Q65.675 234.69167 66.28438 234.19167Q66.90938 233.69167 67.84688 233.69167Q68.53438 233.69167 69.05 233.97292Q69.58125 234.25417 69.925 234.78542Q70.26875 235.30104 70.45625 236.05104Q70.64375 236.80104 70.64375 238.08229Q70.64375 239.59792 70.33125 240.51979Q70.03438 241.44167 69.40938 241.95729Q68.8 242.45729 67.84688 242.45729Q66.6125 242.45729 65.89375 241.56667Q65.05 240.50417 65.05 238.08229ZM66.12813 238.08229Q66.12813 240.19167 66.62813 240.89479Q67.12813 241.59792 67.84688 241.59792Q68.58125 241.59792 69.06563 240.89479Q69.56563 240.19167 69.56563 238.08229Q69.56563 235.95729 69.06563 235.26979Q68.58125 234.56667 67.83125 234.56667Q67.1125 234.56667 66.675 235.17604Q66.12813 235.95729 66.12813 238.08229ZM72.05 238.08229Q72.05 236.55104 72.3625 235.62917Q72.675 234.69167 73.28438 234.19167Q73.90938 233.69167 74.84688 233.69167Q75.53438 233.69167 76.05 233.97292Q76.58125 234.25417 76.925 234.78542Q77.26875 235.30104 77.45625 236.05104Q77.64375 236.80104 77.64375 238.08229Q77.64375 239.59792 77.33125 240.51979Q77.03438 241.44167 76.40938 241.95729Q75.8 242.45729 74.84688 242.45729Q73.6125 242.45729 72.89375 241.56667Q72.05 240.50417 72.05 238.08229ZM73.12813 238.08229Q73.12813 240.19167 73.62813 240.89479Q74.12813 241.59792 74.84688 241.59792Q75.58125 241.59792 76.06563 240.89479Q76.56563 240.19167 76.56563 238.08229Q76.56563 235.95729 76.06563 235.26979Q75.58125 234.56667 74.83125 234.56667Q74.1125 234.56667 73.675 235.17604Q73.12813 235.95729 73.12813 238.08229ZM79.05 238.08229Q79.05 236.55104 79.3625 235.62917Q79.675 234.69167 80.28438 234.19167Q80.90938 233.69167 81.84688 233.69167Q82.53438 233.69167 83.05 233.97292Q83.58125 234.25417 83.925 234.78542Q84.26875 235.30104 84.45625 236.05104Q84.64375 236.80104 84.64375 238.08229Q84.64375 239.59792 84.33125 240.51979Q84.03438 241.44167 83.40938 241.95729Q82.8 242.45729 81.84688 242.45729Q80.6125 242.45729 79.89375 241.56667Q79.05 240.50417 79.05 238.08229ZM80.12813 238.08229Q80.12813 240.19167 80.62813 240.89479Q81.12813 241.59792 81.84688 241.59792Q82.58125 241.59792 83.06563 240.89479Q83.56563 240.19167 83.56563 238.08229Q83.56563 235.95729 83.06563 235.26979Q82.58125 234.56667 81.83125 234.56667Q81.1125 234.56667 80.675 235.17604Q80.12813 235.95729 80.12813 238.08229ZM86.05 238.08229Q86.05 236.55104 86.3625 235.62917Q86.675 234.69167 87.28438 234.19167Q87.90938 233.69167 88.84688 233.69167Q89.53438 233.69167 90.05 233.97292Q90.58125 234.25417 90.925 234.78542Q91.26875 235.30104 91.45625 236.05104Q91.64375 236.80104 91.64375 238.08229Q91.64375 239.59792 91.33125 240.51979Q91.03438 241.44167 90.40938 241.95729Q89.8 242.45729 88.84688 242.45729Q87.6125 242.45729 86.89375 241.56667Q86.05 240.50417 86.05 238.08229ZM87.12813 238.08229Q87.12813 240.19167 87.62813 240.89479Q88.12813 241.59792 88.84688 241.59792Q89.58125 241.59792 90.06563 240.89479Q90.56563 240.19167 90.56563 238.08229Q90.56563 235.95729 90.06563 235.26979Q89.58125 234.56667 88.83125 234.56667Q88.1125 234.56667 87.675 235.17604Q87.12813 235.95729 87.12813 238.08229Z" fill-rule="nonzero"/><path fill="#000000" d="M54.425 180.18333L54.425 178.12083L50.70625 178.12083L50.70625 177.15208L54.628124 171.58958L55.4875 171.58958L55.4875 177.15208L56.64375 177.15208L56.64375 178.12083L55.4875 178.12083L55.4875 180.18333L54.425 180.18333ZM54.425 177.15208L54.425 173.29271L51.7375 177.15208L54.425 177.15208ZM58.05 175.94896Q58.05 174.41771 58.3625 173.49583Q58.675 172.55833 59.284374 172.05833Q59.909374 171.55833 60.846874 171.55833Q61.534374 171.55833 62.05 171.83958Q62.58125 172.12083 62.925 172.65208Q63.26875 173.16771 63.45625 173.91771Q63.64375 174.66771 63.64375 175.94896Q63.64375 177.46458 63.33125 178.38646Q63.034374 179.30833 62.409374 179.82396Q61.8 180.32396 60.846874 180.32396Q59.6125 180.32396 58.89375 179.43333Q58.05 178.37083 58.05 175.94896ZM59.128124 175.94896Q59.128124 178.05833 59.628124 178.76146Q60.128124 179.46458 60.846874 179.46458Q61.58125 179.46458 62.065624 178.76146Q62.565624 178.05833 62.565624 175.94896Q62.565624 173.82396 62.065624 173.13646Q61.58125 172.43333 60.83125 172.43333Q60.1125 172.43333 59.675 173.04271Q59.128124 173.82396 59.128124 175.94896ZM65.05 175.94896Q65.05 174.41771 65.3625 173.49583Q65.675 172.55833 66.28438 172.05833Q66.90938 171.55833 67.84688 171.55833Q68.53438 171.55833 69.05 171.83958Q69.58125 172.12083 69.925 172.65208Q70.26875 173.16771 70.45625 173.91771Q70.64375 174.66771 70.64375 175.94896Q70.64375 177.46458 70.33125 178.38646Q70.03438 179.30833 69.40938 179.82396Q68.8 180.32396 67.84688 180.32396Q66.6125 180.32396 65.89375 179.43333Q65.05 178.37083 65.05 175.94896ZM66.12813 175.94896Q66.12813 178.05833 66.62813 178.76146Q67.12813 179.46458 67.84688 179.46458Q68.58125 179.46458 69.06563 178.76146Q69.56563 178.05833 69.56563 175.94896Q69.56563 173.82396 69.06563 173.13646Q68.58125 172.43333 67.83125 172.43333Q67.1125 172.43333 66.675 173.04271Q66.12813 173.82396 66.12813 175.94896ZM72.05 175.94896Q72.05 174.41771 72.3625 173.49583Q72.675 172.55833 73.28438 172.05833Q73.90938 171.55833 74.84688 171.55833Q75.53438 171.55833 76.05 171.83958Q76.58125 172.12083 76.925 172.65208Q77.26875 173.16771 77.45625 173.91771Q77.64375 174.66771 77.64375 175.94896Q77.64375 177.46458 77.33125 178.38646Q77.03438 179.30833 76.40938 179.82396Q75.8 180.32396 74.84688 180.32396Q73.6125 180.32396 72.89375 179.43333Q72.05 178.37083 72.05 175.94896ZM73.12813 175.94896Q73.12813 178.05833 73.62813 178.76146Q74.12813 179.46458 74.84688 179.46458Q75.58125 179.46458 76.06563 178.76146Q76.56563 178.05833 76.56563 175.94896Q76.56563 173.82396 76.06563 173.13646Q75.58125 172.43333 74.83125 172.43333Q74.1125 172.43333 73.675 173.04271Q73.12813 173.82396 73.12813 175.94896ZM79.05 175.94896Q79.05 174.41771 79.3625 173.49583Q79.675 172.55833 80.28438 172.05833Q80.90938 171.55833 81.84688 171.55833Q82.53438 171.55833 83.05 171.83958Q83.58125 172.12083 83.925 172.65208Q84.26875 173.16771 84.45625 173.91771Q84.64375 174.66771 84.64375 175.94896Q84.64375 177.46458 84.33125 178.38646Q84.03438 179.30833 83.40938 179.82396Q82.8 180.32396 81.84688 180.32396Q80.6125 180.32396 79.89375 179.43333Q79.05 178.37083 79.05 175.94896ZM80.12813 175.94896Q80.12813 178.05833 80.62813 178.76146Q81.12813 179.46458 81.84688 179.46458Q82.58125 179.46458 83.06563 178.76146Q83.56563 178.05833 83.56563 175.94896Q83.56563 173.82396 83.06563 173.13646Q82.58125 172.43333 81.83125 172.43333Q81.1125 172.43333 80.675 173.04271Q80.12813 173.82396 80.12813 175.94896ZM86.05 175.94896Q86.05 174.41771 86.3625 173.49583Q86.675 172.55833 87.28438 172.05833Q87.90938 171.55833 88.84688 171.55833Q89.53438 171.55833 90.05 171.83958Q90.58125 172.12083 90.925 172.65208Q91.26875 173.16771 91.45625 173.91771Q91.64375 174.66771 91.64375 175.94896Q91.64375 177.46458 91.33125 178.38646Q91.03438 179.30833 90.40938 179.82396Q89.8 180.32396 88.84688 180.32396Q87.6125 180.32396 86.89375 179.43333Q86.05 178.37083 86.05 175.94896ZM87.12813 175.94896Q87.12813 178.05833 87.62813 178.76146Q88.12813 179.46458 88.84688 179.46458Q89.58125 179.46458 90.06563 178.76146Q90.56563 178.05833 90.56563 175.94896Q90.56563 173.82396 90.06563 173.13646Q89.58125 172.43333 88.83125 172.43333Q88.1125 172.43333 87.675 173.04271Q87.12813 173.82396 87.12813 175.94896Z" fill-rule="nonzero"/><path fill="#000000" d="M56.51875 111.56563L55.471874 111.64375Q55.33125 111.01875 55.08125 110.7375Q54.64375 110.28438 54.01875 110.28438Q53.51875 110.28438 53.128124 110.56563Q52.64375 110.94063 52.346874 111.64375Q52.065624 112.33125 52.05 113.6125Q52.425 113.03438 52.971874 112.75313Q53.534374 112.47188 54.14375 112.47188Q55.190624 112.47188 55.925 113.25313Q56.675 114.03438 56.675 115.25313Q56.675 116.06563 56.315624 116.76875Q55.971874 117.45625 55.3625 117.83125Q54.753124 118.19063 53.9875 118.19063Q52.659374 118.19063 51.83125 117.22188Q51.003124 116.25313 51.003124 114.03438Q51.003124 111.53438 51.925 110.40938Q52.721874 109.425 54.08125 109.425Q55.096874 109.425 55.7375 110.00313Q56.39375 110.56563 56.51875 111.56563ZM52.221874 115.26875Q52.221874 115.81563 52.440624 116.31563Q52.675 116.8 53.08125 117.06563Q53.503124 117.33125 53.971874 117.33125Q54.628124 117.33125 55.1125 116.8Q55.596874 116.25313 55.596874 115.33125Q55.596874 114.44063 55.1125 113.925Q54.64375 113.40938 53.925 113.40938Q53.20625 113.40938 52.70625 113.925Q52.221874 114.44063 52.221874 115.26875ZM58.05 113.81563Q58.05 112.28438 58.3625 111.3625Q58.675 110.425 59.284374 109.925Q59.909374 109.425 60.846874 109.425Q61.534374 109.425 62.05 109.70625Q62.58125 109.9875 62.925 110.51875Q63.26875 111.03438 63.45625 111.78438Q63.64375 112.53438 63.64375 113.81563Q63.64375 115.33125 63.33125 116.25313Q63.034374 117.175 62.409374 117.69063Q61.8 118.19063 60.846874 118.19063Q59.6125 118.19063 58.89375 117.3Q58.05 116.2375 58.05 113.81563ZM59.128124 113.81563Q59.128124 115.925 59.628124 116.62813Q60.128124 117.33125 60.846874 117.33125Q61.58125 117.33125 62.065624 116.62813Q62.565624 115.925 62.565624 113.81563Q62.565624 111.69063 62.065624 111.00313Q61.58125 110.3 60.83125 110.3Q60.1125 110.3 59.675 110.90938Q59.128124 111.69063 59.128124 113.81563ZM65.05 113.81563Q65.05 112.28438 65.3625 111.3625Q65.675 110.425 66.28438 109.925Q66.90938 109.425 67.84688 109.425Q68.53438 109.425 69.05 109.70625Q69.58125 109.9875 69.925 110.51875Q70.26875 111.03438 70.45625 111.78438Q70.64375 112.53438 70.64375 113.81563Q70.64375 115.33125 70.33125 116.25313Q70.03438 117.175 69.40938 117.69063Q68.8 118.19063 67.84688 118.19063Q66.6125 118.19063 65.89375 117.3Q65.05 116.2375 65.05 113.81563ZM66.12813 113.81563Q66.12813 115.925 66.62813 116.62813Q67.12813 117.33125 67.84688 117.33125Q68.58125 117.33125 69.06563 116.62813Q69.56563 115.925 69.56563 113.81563Q69.56563 111.69063 69.06563 111.00313Q68.58125 110.3 67.83125 110.3Q67.1125 110.3 66.675 110.90938Q66.12813 111.69063 66.12813 113.81563ZM72.05 113.81563Q72.05 112.28438 72.3625 111.3625Q72.675 110.425 73.28438 109.925Q73.90938 109.425 74.84688 109.425Q75.53438 109.425 76.05 109.70625Q76.58125 109.9875 76.925 110.51875Q77.26875 111.03438 77.45625 111.78438Q77.64375 112.53438 77.64375 113.81563Q77.64375 115.33125 77.33125 116.25313Q77.03438 117.175 76.40938 117.69063Q75.8 118.19063 74.84688 118.19063Q73.6125 118.19063 72.89375 117.3Q72.05 116.2375 72.05 113.81563ZM73.12813 113.81563Q73.12813 115.925 73.62813 116.62813Q74.12813 117.33125 74.84688 117.33125Q75.58125 117.33125 76.06563 116.62813Q76.56563 115.925 76.56563 113.81563Q76.56563 111.69063 76.06563 111.00313Q75.58125 110.3 74.83125 110.3Q74.1125 110.3 73.675 110.90938Q73.12813 111.69063 73.12813 113.81563ZM79.05 113.81563Q79.05 112.28438 79.3625 111.3625Q79.675 110.425 80.28438 109.925Q80.90938 109.425 81.84688 109.425Q82.53438 109.425 83.05 109.70625Q83.58125 109.9875 83.925 110.51875Q84.26875 111.03438 84.45625 111.78438Q84.64375 112.53438 84.64375 113.81563Q84.64375 115.33125 84.33125 116.25313Q84.03438 117.175 83.40938 117.69063Q82.8 118.19063 81.84688 118.19063Q80.6125 118.19063 79.89375 117.3Q79.05 116.2375 79.05 113.81563ZM80.12813 113.81563Q80.12813 115.925 80.62813 116.62813Q81.12813 117.33125 81.84688 117.33125Q82.58125 117.33125 83.06563 116.62813Q83.56563 115.925 83.56563 113.81563Q83.56563 111.69063 83.06563 111.00313Q82.58125 110.3 81.83125 110.3Q81.1125 110.3 80.675 110.90938Q80.12813 111.69063 80.12813 113.81563ZM86.05 113.81563Q86.05 112.28438 86.3625 111.3625Q86.675 110.425 87.28438 109.925Q87.90938 109.425 88.84688 109.425Q89.53438 109.425 90.05 109.70625Q90.58125 109.9875 90.925 110.51875Q91.26875 111.03438 91.45625 111.78438Q91.64375 112.53438 91.64375 113.81563Q91.64375 115.33125 91.33125 116.25313Q91.03438 117.175 90.40938 117.69063Q89.8 118.19063 88.84688 118.19063Q87.6125 118.19063 86.89375 117.3Q86.05 116.2375 86.05 113.81563ZM87.12813 113.81563Q87.12813 115.925 87.62813 116.62813Q88.12813 117.33125 88.84688 117.33125Q89.58125 117.33125 90.06563 116.62813Q90.56563 115.925 90.56563 113.81563Q90.56563 111.69063 90.06563 111.00313Q89.58125 110.3 88.83125 110.3Q88.1125 110.3 87.675 110.90938Q87.12813 111.69063 87.12813 113.81563Z" fill-rule="nonzero"/><path fill="#000000" d="M52.675 51.260418Q52.01875 51.010418 51.690624 50.572918Q51.378124 50.119793 51.378124 49.510418Q51.378124 48.572918 52.05 47.932293Q52.7375 47.291668 53.846874 47.291668Q54.971874 47.291668 55.659374 47.947918Q56.346874 48.604168 56.346874 49.541668Q56.346874 50.135418 56.034374 50.572918Q55.721874 51.010418 55.08125 51.260418Q55.878124 51.510418 56.284374 52.088543Q56.690624 52.666668 56.690624 53.463543Q56.690624 54.557293 55.909374 55.307293Q55.14375 56.057293 53.8625 56.057293Q52.596874 56.057293 51.815624 55.307293Q51.034374 54.557293 51.034374 53.432293Q51.034374 52.588543 51.45625 52.026043Q51.89375 51.463543 52.675 51.260418ZM52.45625 49.463543Q52.45625 50.072918 52.846874 50.463543Q53.253124 50.854168 53.878124 50.854168Q54.4875 50.854168 54.878124 50.479168Q55.26875 50.088543 55.26875 49.526043Q55.26875 48.947918 54.8625 48.557293Q54.45625 48.151043 53.8625 48.151043Q53.253124 48.151043 52.846874 48.541668Q52.45625 48.932293 52.45625 49.463543ZM52.128124 53.432293Q52.128124 53.885418 52.33125 54.307293Q52.55 54.729168 52.971874 54.963543Q53.39375 55.197918 53.878124 55.197918Q54.628124 55.197918 55.1125 54.713543Q55.6125 54.229168 55.6125 53.479168Q55.6125 52.713543 55.1125 52.213543Q54.6125 51.713543 53.846874 51.713543Q53.096874 51.713543 52.6125 52.213543Q52.128124 52.697918 52.128124 53.432293ZM58.05 51.682293Q58.05 50.151043 58.3625 49.229168Q58.675 48.291668 59.284374 47.791668Q59.909374 47.291668 60.846874 47.291668Q61.534374 47.291668 62.05 47.572918Q62.58125 47.854168 62.925 48.385418Q63.26875 48.901043 63.45625 49.651043Q63.64375 50.401043 63.64375 51.682293Q63.64375 53.197918 63.33125 54.119793Q63.034374 55.041668 62.409374 55.557293Q61.8 56.057293 60.846874 56.057293Q59.6125 56.057293 58.89375 55.166668Q58.05 54.104168 58.05 51.682293ZM59.128124 51.682293Q59.128124 53.791668 59.628124 54.494793Q60.128124 55.197918 60.846874 55.197918Q61.58125 55.197918 62.065624 54.494793Q62.565624 53.791668 62.565624 51.682293Q62.565624 49.557293 62.065624 48.869793Q61.58125 48.166668 60.83125 48.166668Q60.1125 48.166668 59.675 48.776043Q59.128124 49.557293 59.128124 51.682293ZM65.05 51.682293Q65.05 50.151043 65.3625 49.229168Q65.675 48.291668 66.28438 47.791668Q66.90938 47.291668 67.84688 47.291668Q68.53438 47.291668 69.05 47.572918Q69.58125 47.854168 69.925 48.385418Q70.26875 48.901043 70.45625 49.651043Q70.64375 50.401043 70.64375 51.682293Q70.64375 53.197918 70.33125 54.119793Q70.03438 55.041668 69.40938 55.557293Q68.8 56.057293 67.84688 56.057293Q66.6125 56.057293 65.89375 55.166668Q65.05 54.104168 65.05 51.682293ZM66.12813 51.682293Q66.12813 53.791668 66.62813 54.494793Q67.12813 55.197918 67.84688 55.197918Q68.58125 55.197918 69.06563 54.494793Q69.56563 53.791668 69.56563 51.682293Q69.56563 49.557293 69.06563 48.869793Q68.58125 48.166668 67.83125 48.166668Q67.1125 48.166668 66.675 48.776043Q66.12813 49.557293 66.12813 51.682293ZM72.05 51.682293Q72.05 50.151043 72.3625 49.229168Q72.675 48.291668 73.28438 47.791668Q73.90938 47.291668 74.84688 47.291668Q75.53438 47.291668 76.05 47.572918Q76.58125 47.854168 76.925 48.385418Q77.26875 48.901043 77.45625 49.651043Q77.64375 50.401043 77.64375 51.682293Q77.64375 53.197918 77.33125 54.119793Q77.03438 55.041668 76.40938 55.557293Q75.8 56.057293 74.84688 56.057293Q73.6125 56.057293 72.89375 55.166668Q72.05 54.104168 72.05 51.682293ZM73.12813 51.682293Q73.12813 53.791668 73.62813 54.494793Q74.12813 55.197918 74.84688 55.197918Q75.58125 55.197918 76.06563 54.494793Q76.56563 53.791668 76.56563 51.682293Q76.56563 49.557293 76.06563 48.869793Q75.58125 48.166668 74.83125 48.166668Q74.1125 48.166668 73.675 48.776043Q73.12813 49.557293 73.12813 51.682293ZM79.05 51.682293Q79.05 50.151043 79.3625 49.229168Q79.675 48.291668 80.28438 47.791668Q80.90938 47.291668 81.84688 47.291668Q82.53438 47.291668 83.05 47.572918Q83.58125 47.854168 83.925 48.385418Q84.26875 48.901043 84.45625 49.651043Q84.64375 50.401043 84.64375 51.682293Q84.64375 53.197918 84.33125 54.119793Q84.03438 55.041668 83.40938 55.557293Q82.8 56.057293 81.84688 56.057293Q80.6125 56.057293 79.89375 55.166668Q79.05 54.104168 79.05 51.682293ZM80.12813 51.682293Q80.12813 53.791668 80.62813 54.494793Q81.12813 55.197918 81.84688 55.197918Q82.58125 55.197918 83.06563 54.494793Q83.56563 53.791668 83.56563 51.682293Q83.56563 49.557293 83.06563 48.869793Q82.58125 48.166668 81.83125 48.166668Q81.1125 48.166668 80.675 48.776043Q80.12813 49.557293 80.12813 51.682293ZM86.05 51.682293Q86.05 50.151043 86.3625 49.229168Q86.675 48.291668 87.28438 47.791668Q87.90938 47.291668 88.84688 47.291668Q89.53438 47.291668 90.05 47.572918Q90.58125 47.854168 90.925 48.385418Q91.26875 48.901043 91.45625 49.651043Q91.64375 50.401043 91.64375 51.682293Q91.64375 53.197918 91.33125 54.119793Q91.03438 55.041668 90.40938 55.557293Q89.8 56.057293 88.84688 56.057293Q87.6125 56.057293 86.89375 55.166668Q86.05 54.104168 86.05 51.682293ZM87.12813 51.682293Q87.12813 53.791668 87.62813 54.494793Q88.12813 55.197918 88.84688 55.197918Q89.58125 55.197918 90.06563 54.494793Q90.56563 53.791668 90.56563 51.682293Q90.56563 49.557293 90.06563 48.869793Q89.58125 48.166668 88.83125 48.166668Q88.1125 48.166668 87.675 48.776043Q87.12813 49.557293 87.12813 51.682293Z" fill-rule="nonzero"/><path fill="#000000" d="M206.19997 317.45L205.15309 317.45L205.15309 310.73126Q204.76247 311.09064 204.13747 311.46564Q203.52809 311.825 203.04372 311.9969L203.04372 310.98126Q203.91872 310.5594 204.57497 309.98126Q205.24684 309.3875 205.52809 308.825L206.19997 308.825L206.19997 317.45ZM209.23122 313.21564Q209.23122 311.6844 209.54372 310.7625Q209.85622 309.825 210.46559 309.325Q211.09059 308.825 212.02809 308.825Q212.71559 308.825 213.23122 309.10626Q213.76247 309.3875 214.10622 309.91876Q214.44997 310.4344 214.63747 311.1844Q214.82497 311.9344 214.82497 313.21564Q214.82497 314.73126 214.51247 315.65314Q214.21559 316.575 213.59059 317.09064Q212.98122 317.59064 212.02809 317.59064Q210.79372 317.59064 210.07497 316.7Q209.23122 315.6375 209.23122 313.21564ZM210.30934 313.21564Q210.30934 315.325 210.80934 316.02814Q211.30934 316.73126 212.02809 316.73126Q212.76247 316.73126 213.24684 316.02814Q213.74684 315.325 213.74684 313.21564Q213.74684 311.09064 213.24684 310.40314Q212.76247 309.7 212.01247 309.7Q211.29372 309.7 210.85622 310.3094Q210.30934 311.09064 210.30934 313.21564ZM216.23122 313.21564Q216.23122 311.6844 216.54372 310.7625Q216.85622 309.825 217.46559 309.325Q218.09059 308.825 219.02809 308.825Q219.71559 308.825 220.23122 309.10626Q220.76247 309.3875 221.10622 309.91876Q221.44997 310.4344 221.63747 311.1844Q221.82497 311.9344 221.82497 313.21564Q221.82497 314.73126 221.51247 315.65314Q221.21559 316.575 220.59059 317.09064Q219.98122 317.59064 219.02809 317.59064Q217.79372 317.59064 217.07497 316.7Q216.23122 315.6375 216.23122 313.21564ZM217.30934 313.21564Q217.30934 315.325 217.80934 316.02814Q218.30934 316.73126 219.02809 316.73126Q219.76247 316.73126 220.24684 316.02814Q220.74684 315.325 220.74684 313.21564Q220.74684 311.09064 220.24684 310.40314Q219.76247 309.7 219.01247 309.7Q218.29372 309.7 217.85622 310.3094Q217.30934 311.09064 217.30934 313.21564ZM223.23122 313.21564Q223.23122 311.6844 223.54372 310.7625Q223.85622 309.825 224.46559 309.325Q225.09059 308.825 226.02809 308.825Q226.71559 308.825 227.23122 309.10626Q227.76247 309.3875 228.10622 309.91876Q228.44997 310.4344 228.63747 311.1844Q228.82497 311.9344 228.82497 313.21564Q228.82497 314.73126 228.51247 315.65314Q228.21559 316.575 227.59059 317.09064Q226.98122 317.59064 226.02809 317.59064Q224.79372 317.59064 224.07497 316.7Q223.23122 315.6375 223.23122 313.21564ZM224.30934 313.21564Q224.30934 315.325 224.80934 316.02814Q225.30934 316.73126 226.02809 316.73126Q226.76247 316.73126 227.24684 316.02814Q227.74684 315.325 227.74684 313.21564Q227.74684 311.09064 227.24684 310.40314Q226.76247 309.7 226.01247 309.7Q225.29372 309.7 224.85622 310.3094Q224.30934 311.09064 224.30934 313.21564Z" fill-rule="nonzero"/><path fill="#000000" d="M325.9043 316.4344L325.9043 317.45L320.2168 317.45Q320.2168 317.075 320.3418 316.71564Q320.56055 316.1375 321.0293 315.575Q321.51367 315.0125 322.41992 314.27814Q323.82617 313.1219 324.31055 312.45Q324.81055 311.77814 324.81055 311.1844Q324.81055 310.5594 324.35742 310.1375Q323.9043 309.7 323.18555 309.7Q322.41992 309.7 321.9668 310.15314Q321.51367 310.60626 321.49805 311.41876L320.41992 311.3094Q320.5293 310.09064 321.24805 309.46564Q321.98242 308.825 323.2168 308.825Q324.45117 308.825 325.16992 309.5125Q325.88867 310.2 325.88867 311.21564Q325.88867 311.73126 325.66992 312.23126Q325.4668 312.71564 324.9668 313.27814Q324.48242 313.825 323.35742 314.77814Q322.4043 315.575 322.12305 315.8719Q321.85742 316.15314 321.68555 316.4344L325.9043 316.4344ZM327.35742 313.21564Q327.35742 311.6844 327.66992 310.7625Q327.98242 309.825 328.5918 309.325Q329.2168 308.825 330.1543 308.825Q330.8418 308.825 331.35742 309.10626Q331.88867 309.3875 332.23242 309.91876Q332.57617 310.4344 332.76367 311.1844Q332.95117 311.9344 332.95117 313.21564Q332.95117 314.73126 332.63867 315.65314Q332.3418 316.575 331.7168 317.09064Q331.10742 317.59064 330.1543 317.59064Q328.91992 317.59064 328.20117 316.7Q327.35742 315.6375 327.35742 313.21564ZM328.43555 313.21564Q328.43555 315.325 328.93555 316.02814Q329.43555 316.73126 330.1543 316.73126Q330.88867 316.73126 331.37305 316.02814Q331.87305 315.325 331.87305 313.21564Q331.87305 311.09064 331.37305 310.40314Q330.88867 309.7 330.13867 309.7Q329.41992 309.7 328.98242 310.3094Q328.43555 311.09064 328.43555 313.21564ZM334.35742 313.21564Q334.35742 311.6844 334.66992 310.7625Q334.98242 309.825 335.5918 309.325Q336.2168 308.825 337.1543 308.825Q337.8418 308.825 338.35742 309.10626Q338.88867 309.3875 339.23242 309.91876Q339.57617 310.4344 339.76367 311.1844Q339.95117 311.9344 339.95117 313.21564Q339.95117 314.73126 339.63867 315.65314Q339.3418 316.575 338.7168 317.09064Q338.10742 317.59064 337.1543 317.59064Q335.91992 317.59064 335.20117 316.7Q334.35742 315.6375 334.35742 313.21564ZM335.43555 313.21564Q335.43555 315.325 335.93555 316.02814Q336.43555 316.73126 337.1543 316.73126Q337.88867 316.73126 338.37305 316.02814Q338.87305 315.325 338.87305 313.21564Q338.87305 311.09064 338.37305 310.40314Q337.88867 309.7 337.13867 309.7Q336.41992 309.7 335.98242 310.3094Q335.43555 311.09064 335.43555 313.21564ZM341.35742 313.21564Q341.35742 311.6844 341.66992 310.7625Q341.98242 309.825 342.5918 309.325Q343.2168 308.825 344.1543 308.825Q344.8418 308.825 345.35742 309.10626Q345.88867 309.3875 346.23242 309.91876Q346.57617 310.4344 346.76367 311.1844Q346.95117 311.9344 346.95117 313.21564Q346.95117 314.73126 346.63867 315.65314Q346.3418 316.575 345.7168 317.09064Q345.10742 317.59064 344.1543 317.59064Q342.91992 317.59064 342.20117 316.7Q341.35742 315.6375 341.35742 313.21564ZM342.43555 313.21564Q342.43555 315.325 342.93555 316.02814Q343.43555 316.73126 344.1543 316.73126Q344.88867 316.73126 345.37305 316.02814Q345.87305 315.325 345.87305 313.21564Q345.87305 311.09064 345.37305 310.40314Q344.88867 309.7 344.13867 309.7Q343.41992 309.7 342.98242 310.3094Q342.43555 311.09064 342.43555 313.21564Z" fill-rule="nonzero"/><path fill="#000000" d="M438.48367 315.1844L439.54617 315.04376Q439.71805 315.9344 440.15555 316.34064Q440.59305 316.73126 441.21805 316.73126Q441.96805 316.73126 442.48367 316.21564Q442.9993 315.7 442.9993 314.9344Q442.9993 314.21564 442.51492 313.7469Q442.04617 313.2625 441.3118 313.2625Q441.01492 313.2625 440.5618 313.3875L440.6868 312.45Q440.79617 312.46564 440.85867 312.46564Q441.53055 312.46564 442.0618 312.1219Q442.60867 311.7625 442.60867 311.02814Q442.60867 310.45 442.21805 310.075Q441.82742 309.6844 441.20242 309.6844Q440.59305 309.6844 440.17117 310.075Q439.76492 310.46564 439.65555 311.23126L438.59305 311.04376Q438.78055 309.9969 439.46805 309.41876Q440.15555 308.825 441.17117 308.825Q441.8743 308.825 442.46805 309.1375Q443.0618 309.4344 443.3743 309.95Q443.6868 310.46564 443.6868 311.0594Q443.6868 311.60626 443.38992 312.075Q443.09305 312.52814 442.51492 312.79376Q443.26492 312.96564 443.6868 313.52814Q444.10867 314.075 444.10867 314.91876Q444.10867 316.04376 443.28055 316.825Q442.46805 317.60626 441.21805 317.60626Q440.09305 317.60626 439.34305 316.9344Q438.59305 316.2469 438.48367 315.1844ZM445.48367 313.21564Q445.48367 311.6844 445.79617 310.7625Q446.10867 309.825 446.71805 309.325Q447.34305 308.825 448.28055 308.825Q448.96805 308.825 449.48367 309.10626Q450.01492 309.3875 450.35867 309.91876Q450.70242 310.4344 450.88992 311.1844Q451.07742 311.9344 451.07742 313.21564Q451.07742 314.73126 450.76492 315.65314Q450.46805 316.575 449.84305 317.09064Q449.23367 317.59064 448.28055 317.59064Q447.04617 317.59064 446.32742 316.7Q445.48367 315.6375 445.48367 313.21564ZM446.5618 313.21564Q446.5618 315.325 447.0618 316.02814Q447.5618 316.73126 448.28055 316.73126Q449.01492 316.73126 449.4993 316.02814Q449.9993 315.325 449.9993 313.21564Q449.9993 311.09064 449.4993 310.40314Q449.01492 309.7 448.26492 309.7Q447.54617 309.7 447.10867 310.3094Q446.5618 311.09064 446.5618 313.21564ZM452.48367 313.21564Q452.48367 311.6844 452.79617 310.7625Q453.10867 309.825 453.71805 309.325Q454.34305 308.825 455.28055 308.825Q455.96805 308.825 456.48367 309.10626Q457.01492 309.3875 457.35867 309.91876Q457.70242 310.4344 457.88992 311.1844Q458.07742 311.9344 458.07742 313.21564Q458.07742 314.73126 457.76492 315.65314Q457.46805 316.575 456.84305 317.09064Q456.23367 317.59064 455.28055 317.59064Q454.04617 317.59064 453.32742 316.7Q452.48367 315.6375 452.48367 313.21564ZM453.5618 313.21564Q453.5618 315.325 454.0618 316.02814Q454.5618 316.73126 455.28055 316.73126Q456.01492 316.73126 456.4993 316.02814Q456.9993 315.325 456.9993 313.21564Q456.9993 311.09064 456.4993 310.40314Q456.01492 309.7 455.26492 309.7Q454.54617 309.7 454.10867 310.3094Q453.5618 311.09064 453.5618 313.21564ZM459.48367 313.21564Q459.48367 311.6844 459.79617 310.7625Q460.10867 309.825 460.71805 309.325Q461.34305 308.825 462.28055 308.825Q462.96805 308.825 463.48367 309.10626Q464.01492 309.3875 464.35867 309.91876Q464.70242 310.4344 464.88992 311.1844Q465.07742 311.9344 465.07742 313.21564Q465.07742 314.73126 464.76492 315.65314Q464.46805 316.575 463.84305 317.09064Q463.23367 317.59064 462.28055 317.59064Q461.04617 317.59064 460.32742 316.7Q459.48367 315.6375 459.48367 313.21564ZM460.5618 313.21564Q460.5618 315.325 461.0618 316.02814Q461.5618 316.73126 462.28055 316.73126Q463.01492 316.73126 463.4993 316.02814Q463.9993 315.325 463.9993 313.21564Q463.9993 311.09064 463.4993 310.40314Q463.01492 309.7 462.26492 309.7Q461.54617 309.7 461.10867 310.3094Q460.5618 311.09064 460.5618 313.21564Z" fill-rule="nonzero"/><path fill="#000000" d="M559.98486 317.45L559.98486 315.3875L556.2661 315.3875L556.2661 314.41876L560.188 308.85626L561.04736 308.85626L561.04736 314.41876L562.2036 314.41876L562.2036 315.3875L561.04736 315.3875L561.04736 317.45L559.98486 317.45ZM559.98486 314.41876L559.98486 310.5594L557.29736 314.41876L559.98486 314.41876ZM563.60986 313.21564Q563.60986 311.6844 563.92236 310.7625Q564.23486 309.825 564.84424 309.325Q565.46924 308.825 566.40674 308.825Q567.09424 308.825 567.60986 309.10626Q568.1411 309.3875 568.48486 309.91876Q568.8286 310.4344 569.0161 311.1844Q569.2036 311.9344 569.2036 313.21564Q569.2036 314.73126 568.8911 315.65314Q568.59424 316.575 567.96924 317.09064Q567.35986 317.59064 566.40674 317.59064Q565.17236 317.59064 564.4536 316.7Q563.60986 315.6375 563.60986 313.21564ZM564.688 313.21564Q564.688 315.325 565.188 316.02814Q565.688 316.73126 566.40674 316.73126Q567.1411 316.73126 567.6255 316.02814Q568.1255 315.325 568.1255 313.21564Q568.1255 311.09064 567.6255 310.40314Q567.1411 309.7 566.3911 309.7Q565.67236 309.7 565.23486 310.3094Q564.688 311.09064 564.688 313.21564ZM570.60986 313.21564Q570.60986 311.6844 570.92236 310.7625Q571.23486 309.825 571.84424 309.325Q572.46924 308.825 573.40674 308.825Q574.09424 308.825 574.60986 309.10626Q575.1411 309.3875 575.48486 309.91876Q575.8286 310.4344 576.0161 311.1844Q576.2036 311.9344 576.2036 313.21564Q576.2036 314.73126 575.8911 315.65314Q575.59424 316.575 574.96924 317.09064Q574.35986 317.59064 573.40674 317.59064Q572.17236 317.59064 571.4536 316.7Q570.60986 315.6375 570.60986 313.21564ZM571.688 313.21564Q571.688 315.325 572.188 316.02814Q572.688 316.73126 573.40674 316.73126Q574.1411 316.73126 574.6255 316.02814Q575.1255 315.325 575.1255 313.21564Q575.1255 311.09064 574.6255 310.40314Q574.1411 309.7 573.3911 309.7Q572.67236 309.7 572.23486 310.3094Q571.688 311.09064 571.688 313.21564ZM577.60986 313.21564Q577.60986 311.6844 577.92236 310.7625Q578.23486 309.825 578.84424 309.325Q579.46924 308.825 580.40674 308.825Q581.09424 308.825 581.60986 309.10626Q582.1411 309.3875 582.48486 309.91876Q582.8286 310.4344 583.0161 311.1844Q583.2036 311.9344 583.2036 313.21564Q583.2036 314.73126 582.8911 315.65314Q582.59424 316.575 581.96924 317.09064Q581.35986 317.59064 580.40674 317.59064Q579.17236 317.59064 578.4536 316.7Q577.60986 315.6375 577.60986 313.21564ZM578.688 313.21564Q578.688 315.325 579.188 316.02814Q579.688 316.73126 580.40674 316.73126Q581.1411 316.73126 581.6255 316.02814Q582.1255 315.325 582.1255 313.21564Q582.1255 311.09064 581.6255 310.40314Q581.1411 309.7 580.3911 309.7Q579.67236 309.7 579.23486 310.3094Q578.688 311.09064 578.688 313.21564Z" fill-rule="nonzero"/><path stroke="#4285f4" stroke-width="4.0" stroke-linecap="butt" d="M249.0 25.55L261.0 25.55" fill-rule="nonzero"/><path fill="#1a1a1a" d="M269.89062 29.55L269.89062 20.95625L271.60938 20.95625L273.64062 27.034374Q273.92188 27.89375 274.04688 28.315624Q274.1875 27.846874 274.5 26.940624L276.5625 20.95625L278.09375 20.95625L278.09375 29.55L277.0 29.55L277.0 22.3625L274.5 29.55L273.46875 29.55L270.98438 22.2375L270.98438 29.55L269.89062 29.55ZM283.85938 28.784374Q283.26562 29.284374 282.71875 29.4875Q282.1875 29.690624 281.5625 29.690624Q280.53125 29.690624 279.98438 29.190624Q279.4375 28.690624 279.4375 27.909374Q279.4375 27.45625 279.64062 27.08125Q279.84375 26.690624 280.1875 26.471874Q280.53125 26.2375 280.95312 26.128124Q281.25 26.034374 281.89062 25.95625Q283.15625 25.815624 283.76562 25.596874Q283.76562 25.378124 283.76562 25.33125Q283.76562 24.675 283.46875 24.409374Q283.0625 24.065624 282.26562 24.065624Q281.53125 24.065624 281.17188 24.33125Q280.8125 24.58125 280.64062 25.2375L279.60938 25.096874Q279.75 24.440624 280.07812 24.034374Q280.40625 23.628124 281.01562 23.409374Q281.625 23.190624 282.42188 23.190624Q283.21875 23.190624 283.71875 23.378124Q284.21875 23.565624 284.45312 23.846874Q284.6875 24.128124 284.78125 24.565624Q284.82812 24.83125 284.82812 25.534374L284.82812 26.940624Q284.82812 28.409374 284.89062 28.8Q284.96875 29.190624 285.17188 29.55L284.0625 29.55Q283.90625 29.221874 283.85938 28.784374ZM283.76562 26.425Q283.1875 26.659374 282.04688 26.83125Q281.39062 26.925 281.125 27.05Q280.85938 27.159374 280.70312 27.378124Q280.5625 27.596874 280.5625 27.878124Q280.5625 28.3 280.875 28.58125Q281.20312 28.8625 281.8125 28.8625Q282.42188 28.8625 282.89062 28.596874Q283.375 28.33125 283.59375 27.8625Q283.76562 27.503124 283.76562 26.815624L283.76562 26.425ZM286.79688 31.940624L286.79688 23.33125L287.75 23.33125L287.75 24.128124Q288.09375 23.659374 288.51562 23.425Q288.95312 23.190624 289.5625 23.190624Q290.35938 23.190624 290.96875 23.596874Q291.57812 24.003124 291.875 24.753124Q292.1875 25.503124 292.1875 26.39375Q292.1875 27.346874 291.84375 28.1125Q291.51562 28.878124 290.85938 29.284374Q290.20312 29.690624 289.48438 29.690624Q288.95312 29.690624 288.53125 29.471874Q288.10938 29.2375 287.84375 28.909374L287.84375 31.940624L286.79688 31.940624ZM287.75 26.471874Q287.75 27.675 288.23438 28.253124Q288.71875 28.815624 289.40625 28.815624Q290.10938 28.815624 290.60938 28.221874Q291.10938 27.628124 291.10938 26.378124Q291.10938 25.190624 290.625 24.6125Q290.14062 24.01875 289.45312 24.01875Q288.78125 24.01875 288.26562 24.64375Q287.75 25.26875 287.75 26.471874Z" fill-rule="nonzero"/><path stroke="#ea4335" stroke-width="4.0" stroke-linecap="butt" d="M309.0 25.55L321.0 25.55" fill-rule="nonzero"/><path fill="#1a1a1a" d="M329.54688 26.784374L330.60938 26.690624Q330.6875 27.346874 330.96875 27.753124Q331.25 28.159374 331.82812 28.425Q332.42188 28.675 333.15625 28.675Q333.79688 28.675 334.29688 28.4875Q334.79688 28.284374 335.03125 27.95625Q335.28125 27.6125 335.28125 27.221874Q335.28125 26.815624 335.04688 26.51875Q334.8125 26.20625 334.28125 26.003124Q333.92188 25.8625 332.73438 25.58125Q331.5625 25.3 331.09375 25.05Q330.46875 24.721874 330.17188 24.253124Q329.875 23.76875 329.875 23.175Q329.875 22.534374 330.23438 21.971874Q330.60938 21.39375 331.3125 21.1125Q332.03125 20.815624 332.89062 20.815624Q333.84375 20.815624 334.57812 21.128124Q335.3125 21.425 335.70312 22.034374Q336.09375 22.628124 336.125 23.378124L335.03125 23.45625Q334.9375 22.64375 334.42188 22.2375Q333.92188 21.815624 332.9375 21.815624Q331.90625 21.815624 331.4375 22.190624Q330.96875 22.565624 330.96875 23.096874Q330.96875 23.565624 331.29688 23.8625Q331.625 24.159374 333.0 24.471874Q334.39062 24.784374 334.90625 25.01875Q335.65625 25.378124 336.01562 25.909374Q336.375 26.425 336.375 27.128124Q336.375 27.815624 335.98438 28.425Q335.59375 29.01875 334.85938 29.3625Q334.125 29.690624 333.20312 29.690624Q332.03125 29.690624 331.23438 29.3625Q330.45312 29.01875 330.0 28.33125Q329.5625 27.64375 329.54688 26.784374ZM337.40625 26.440624Q337.40625 24.70625 338.35938 23.878124Q339.15625 23.190624 340.3125 23.190624Q341.59375 23.190624 342.40625 24.034374Q343.23438 24.8625 343.23438 26.346874Q343.23438 27.55 342.875 28.2375Q342.51562 28.925 341.8125 29.315624Q341.125 29.690624 340.3125 29.690624Q339.01562 29.690624 338.20312 28.8625Q337.40625 28.01875 337.40625 26.440624ZM338.48438 26.440624Q338.48438 27.628124 339.0 28.221874Q339.53125 28.815624 340.3125 28.815624Q341.10938 28.815624 341.625 28.221874Q342.14062 27.628124 342.14062 26.409374Q342.14062 25.253124 341.60938 24.659374Q341.09375 24.065624 340.3125 24.065624Q339.53125 24.065624 339.0 24.659374Q338.48438 25.2375 338.48438 26.440624ZM344.78125 29.55L344.78125 23.33125L345.73438 23.33125L345.73438 24.26875Q346.09375 23.6125 346.39062 23.409374Q346.70312 23.190624 347.07812 23.190624Q347.60938 23.190624 348.15625 23.51875L347.79688 24.503124Q347.40625 24.26875 347.03125 24.26875Q346.67188 24.26875 346.39062 24.4875Q346.125 24.690624 346.01562 25.065624Q345.82812 25.628124 345.82812 26.284374L345.82812 29.55L344.78125 29.55ZM351.09375 28.6125L351.25 29.534374Q350.79688 29.628124 350.45312 29.628124Q349.875 29.628124 349.5625 29.45625Q349.25 29.26875 349.10938 28.971874Q348.98438 28.675 348.98438 27.721874L348.98438 24.14375L348.21875 24.14375L348.21875 23.33125L348.98438 23.33125L348.98438 21.784374L350.03125 21.159374L350.03125 23.33125L351.09375 23.33125L351.09375 24.14375L350.03125 24.14375L350.03125 27.784374Q350.03125 28.2375 350.07812 28.3625Q350.14062 28.4875 350.26562 28.565624Q350.39062 28.64375 350.625 28.64375Q350.8125 28.64375 351.09375 28.6125Z" fill-rule="nonzero"/></svg>