<svg version="1.1" viewBox="0.0 0.0 600.0 371.0" fill="none" stroke="none" stroke-linecap="square" stroke-miterlimit="10" width="600" height="371" xmlns:xlink="http://www.w3.org/1999/xlink" xmlns="http://www.w3.org/2000/svg"><path fill="#ffffff" d="M0 0L600.0 0L600.0 371.0L0 371.0L0 0Z" fill-rule="nonzero"/><path stroke="#cccccc" stroke-width="1.0" stroke-linecap="butt" d="M186.5 51.5L186.5 300.5" fill-rule="nonzero"/><path stroke="#cccccc" stroke-width="1.0" stroke-linecap="butt" d="M282.5 51.5L282.5 300.5" fill-rule="nonzero"/><path stroke="#cccccc" stroke-width="1.0" stroke-linecap="butt" d="M378.5 51.5L378.5 300.5" fill-rule="nonzero"/><path stroke="#cccccc" stroke-width="1.0" stroke-linecap="butt" d="M474.5 51.5L474.5 300.5" fill-rule="nonzero"/><path stroke="#cccccc" stroke-width="1.0" stroke-linecap="butt" d="M569.5 51.5L569.5 300.5" fill-rule="nonzero"/><path stroke="#333333" stroke-width="1.0" stroke-linecap="butt" d="M98.5 300.5L581.5 300.5" fill-rule="nonzero"/><path stroke="#cccccc" stroke-width="1.0" stroke-linecap="butt" d="M98.5 238.5L581.5 238.5" fill-rule="nonzero"/><path stroke="#cccccc" stroke-width="1.0" stroke-linecap="butt" d="M98.5 176.5L581.5 176.5" fill-rule="nonzero"/><path stroke="#cccccc" stroke-width="1.0" stroke-linecap="butt" d="M98.5 114.5L581.5 114.5" fill-rule="nonzero"/><path stroke="#cccccc" stroke-width="1.0" stroke-linecap="butt" d="M98.5 51.5L581.5 51.5" fill-rule="nonzero"/><clipPath id="id_0"><path d="M98.55 51.916668L581.45 51.916668L581.45 300.45L98.55 300.45L98.55 51.916668Z" clip-rule="nonzero"/></clipPath><path stroke="#4285f4" stroke-width="2.0" stroke-linecap="butt" clip-path="url(#id_0)" d="M98.55 300.11447L106.21508 298.22314L121.545235 295.29913L152.20555 289.37784L213.52618 277.98257L336.16745 252.91924L581.45 204.16197" fill-rule="nonzero"/><path stroke="#ea4335" stroke-width="2.0" stroke-linecap="butt" clip-path="url(#id_0)" d="M98.55 300.03372L106.21508 299.6286L121.545235 298.77115L152.20555 296.42996L213.52618 291.94394L336.16745 274.7032L581.45 231.72308" fill-rule="nonzero"/><path stroke="#fbbc04" stroke-width="2.0" stroke-linecap="butt" clip-path="url(#id_0)" d="M98.55 300.36426L106.21508 300.25864L121.545235 300.08466L152.20555 299.6373L213.52618 298.53256L336.16745 275.286L581.45 105.02576" fill-rule="nonzero"/><path fill="#000000" fill-opacity="0.0" clip-path="url(#id_0)" d="M101.55 300.11447C101.55 301.77133 100.206856 303.11447 98.55 303.11447C96.89314 303.11447 95.55 301.77133 95.55 300.11447C95.55 298.4576 96.89314 297.11447 98.55 297.11447C100.206856 297.11447 101.55 298.4576 101.55 300.11447Z" fill-rule="nonzero"/><path fill="#000000" fill-opacity="0.0" clip-path="url(#id_0)" d="M109.21508 298.22314C109.21508 299.88 107.87193 301.22314 106.21508 301.22314C104.55823 301.22314 103.21508 299.88 103.21508 298.22314C103.21508 296.56628 104.55823 295.22314 106.21508 295.22314C107.87193 295.22314 109.21508 296.56628 109.21508 298.22314Z" fill-rule="nonzero"/><path fill="#000000" fill-opacity="0.0" clip-path="url(#id_0)" d="M124.545235 295.29913C124.545235 296.956 123.202095 298.29913 121.545235 298.29913C119.88838 298.29913 118.545235 296.956 118.545235 295.29913C118.545235 293.6423 119.88838 292.29913 121.545235 292.29913C123.202095 292.29913 124.545235 293.6423 124.545235 295.29913Z" fill-rule="nonzero"/><path fill="#000000" fill-opacity="0.0" clip-path="url(#id_0)" d="M155.20555 289.37784C155.20555 291.0347 153.86241 292.37784 152.20555 292.37784C150.5487 292.37784 149.20555 291.0347 149.20555 289.37784C149.20555 287.72098 150.5487 286.37784 152.20555 286.37784C153.86241 286.37784 155.20555 287.72098 155.20555 289.37784Z" fill-rule="nonzero"/><path fill="#000000" fill-opacity="0.0" clip-path="url(#id_0)" d="M216.52618 277.98257C216.52618 279.63943 215.18304 280.98257 213.52618 280.98257C211.86934 280.98257 210.52618 279.63943 210.52618 277.98257C210.52618 276.32574 211.86934 274.98257 213.52618 274.98257C215.18304 274.98257 216.52618 276.32574 216.52618 277.98257Z" fill-rule="nonzero"/><path fill="#000000" fill-opacity="0.0" clip-path="url(#id_0)" d="M339.16745 252.91924C339.16745 254.5761 337.8243 255.91924 336.16745 255.91924C334.51062 255.91924 333.16745 254.5761 333.16745 252.91924C333.16745 251.26239 334.51062 249.91924 336.16745 249.91924C337.8243 249.91924 339.16745 251.26239 339.16745 252.91924Z" fill-rule="nonzero"/><path fill="#000000" fill-opacity="0.0" clip-path="url(#id_0)" d="M584.45 204.16197C584.45 205.81883 583.1069 207.16197 581.45 207.16197C579.79315 207.16197 578.45 205.81883 578.45 204.16197C578.45 202.50511 579.79315 201.16197 581.45 201.16197C583.1069 201.16197 584.45 202.50511 584.45 204.16197Z" fill-rule="nonzero"/><path fill="#000000" fill-opacity="0.0" clip-path="url(#id_0)" d="M101.55 300.03372C101.55 301.69055 100.206856 303.03372 98.55 303.03372C96.89314 303.03372 95.55 301.69055 95.55 300.03372C95.55 298.37686 96.89314 297.03372 98.55 297.03372C100.206856 297.03372 101.55 298.37686 101.55 300.03372Z" fill-rule="nonzero"/><path fill="#000000" fill-opacity="0.0" clip-path="url(#id_0)" d="M109.21508 299.6286C109.21508 301.28546 107.87193 302.6286 106.21508 302.6286C104.55823 302.6286 103.21508 301.28546 103.21508 299.6286C103.21508 297.97174 104.55823 296.6286 106.21508 296.6286C107.87193 296.6286 109.21508 297.97174 109.21508 299.6286Z" fill-rule="nonzero"/><path fill="#000000" fill-opacity="0.0" clip-path="url(#id_0)" d="M124.545235 298.77115C124.545235 300.428 123.202095 301.77115 121.545235 301.77115C119.88838 301.77115 118.545235 300.428 118.545235 298.77115C118.545235 297.1143 119.88838 295.77115 121.545235 295.77115C123.202095 295.77115 124.545235 297.1143 124.545235 298.77115Z" fill-rule="nonzero"/><path fill="#000000" fill-opacity="0.0" clip-path="url(#id_0)" d="M155.20555 296.42996C155.20555 298.08682 153.86241 299.42996 152.20555 299.42996C150.5487 299.42996 149.20555 298.08682 149.20555 296.42996C149.20555 294.77313 150.5487 293.42996 152.20555 293.42996C153.86241 293.42996 155.20555 294.77313 155.20555 296.42996Z" fill-rule="nonzero"/><path fill="#000000" fill-opacity="0.0" clip-path="url(#id_0)" d="M216.52618 291.94394C216.52618 293.6008 215.18304 294.94394 213.52618 294.94394C211.86934 294.94394 210.52618 293.6008 210.52618 291.94394C210.52618 290.28708 211.86934 288.94394 213.52618 288.94394C215.18304 288.94394 216.52618 290.28708 216.52618 291.94394Z" fill-rule="nonzero"/><path fill="#000000" fill-opacity="0.0" clip-path="url(#id_0)" d="M339.16745 274.7032C339.16745 276.36005 337.8243 277.7032 336.16745 277.7032C334.51062 277.7032 333.16745 276.36005 333.16745 274.7032C333.16745 273.04633 334.51062 271.7032 336.16745 271.7032C337.8243 271.7032 339.16745 273.04633 339.16745 274.7032Z" fill-rule="nonzero"/><path fill="#000000" fill-opacity="0.0" clip-path="url(#id_0)" d="M584.45 231.72308C584.45 233.37993 583.1069 234.72308 581.45 234.72308C579.79315 234.72308 578.45 233.37993 578.45 231.72308C578.45 230.06622 579.79315 228.72308 581.45 228.72308C583.1069 228.72308 584.45 230.06622 584.45 231.72308Z" fill-rule="nonzero"/><path fill="#000000" fill-opacity="0.0" clip-path="url(#id_0)" d="M101.55 300.36426C101.55 302.02112 100.206856 303.36426 98.55 303.36426C96.89314 303.36426 95.55 302.02112 95.55 300.36426C95.55 298.7074 96.89314 297.36426 98.55 297.36426C100.206856 297.36426 101.55 298.7074 101.55 300.36426Z" fill-rule="nonzero"/><path fill="#000000" fill-opacity="0.0" clip-path="url(#id_0)" d="M109.21508 300.25864C109.21508 301.9155 107.87193 303.25864 106.21508 303.25864C104.55823 303.25864 103.21508 301.9155 103.21508 300.25864C103.21508 298.60178 104.55823 297.25864 106.21508 297.25864C107.87193 297.25864 109.21508 298.60178 109.21508 300.25864Z" fill-rule="nonzero"/><path fill="#000000" fill-opacity="0.0" clip-path="url(#id_0)" d="M124.545235 300.08466C124.545235 301.74152 123.202095 303.08466 121.545235 303.08466C119.88838 303.08466 118.545235 301.74152 118.545235 300.08466C118.545235 298.4278 119.88838 297.08466 121.545235 297.08466C123.202095 297.08466 124.545235 298.4278 124.545235 300.08466Z" fill-rule="nonzero"/><path fill="#000000" fill-opacity="0.0" clip-path="url(#id_0)" d="M155.20555 299.6373C155.20555 301.29416 153.86241 302.6373 152.20555 302.6373C150.5487 302.6373 149.20555 301.29416 149.20555 299.6373C149.20555 297.98044 150.5487 296.6373 152.20555 296.6373C153.86241 296.6373 155.20555 297.98044 155.20555 299.6373Z" fill-rule="nonzero"/><path fill="#000000" fill-opacity="0.0" clip-path="url(#id_0)" d="M216.52618 298.53256C216.52618 300.18942 215.18304 301.53256 213.52618 301.53256C211.86934 301.53256 210.52618 300.18942 210.52618 298.53256C210.52618 296.8757 211.86934 295.53256 213.52618 295.53256C215.18304 295.53256 216.52618 296.8757 216.52618 298.53256Z" fill-rule="nonzero"/><path fill="#000000" fill-opacity="0.0" clip-path="url(#id_0)" d="M339.16745 275.286C339.16745 276.94284 337.8243 278.286 336.16745 278.286C334.51062 278.286 333.16745 276.94284 333.16745 275.286C333.16745 273.62915 334.51062 272.286 336.16745 272.286C337.8243 272.286 339.16745 273.62915 339.16745 275.286Z" fill-rule="nonzero"/><path fill="#000000" fill-opacity="0.0" clip-path="url(#id_0)" d="M584.45 105.02576C584.45 106.68261 583.1069 108.02576 581.45 108.02576C579.79315 108.02576 578.45 106.68261 578.45 105.02576C578.45 103.368904 579.79315 102.02576 581.45 102.02576C583.1069 102.02576 584.45 103.368904 584.45 105.02576Z" fill-rule="nonzero"/><path fill="#000000" d="M320.10938 349.59064L320.60938 347.10626L319.625 347.10626L319.625 346.23126L320.79688 346.23126L321.21875 344.10626L319.625 344.10626L319.625 343.23126L321.40625 343.23126L321.90625 340.71564L322.78125 340.71564L322.28125 343.23126L324.125 343.23126L324.64062 340.71564L325.51562 340.71564L325.01562 343.23126L326.01562 343.23126L326.01562 344.10626L324.82812 344.10626L324.39062 346.23126L326.01562 346.23126L326.01562 347.10626L324.21875 347.10626L323.70312 349.59064L322.82812 349.59064L323.32812 347.10626L321.5 347.10626L320.98438 349.59064L320.10938 349.59064ZM321.67188 346.23126L323.51562 346.23126L323.95312 344.10626L322.10938 344.10626L321.67188 346.23126ZM330.28125 349.45L330.28125 343.23126L331.23438 343.23126L331.23438 344.16876Q331.59375 343.5125 331.89062 343.3094Q332.20312 343.09064 332.57812 343.09064Q333.10938 343.09064 333.65625 343.41876L333.29688 344.40314Q332.90625 344.16876 332.53125 344.16876Q332.17188 344.16876 331.89062 344.3875Q331.625 344.59064 331.51562 344.96564Q331.32812 345.52814 331.32812 346.1844L331.32812 349.45L330.28125 349.45ZM338.375 349.45L338.375 348.52814Q337.64062 349.59064 336.39062 349.59064Q335.84375 349.59064 335.35938 349.3875Q334.89062 349.16876 334.65625 348.85626Q334.42188 348.52814 334.32812 348.0594Q334.26562 347.7625 334.26562 347.075L334.26562 343.23126L335.32812 343.23126L335.32812 346.6844Q335.32812 347.4969 335.39062 347.79376Q335.48438 348.2 335.79688 348.45Q336.125 348.6844 336.60938 348.6844Q337.07812 348.6844 337.48438 348.45Q337.90625 348.2 338.07812 347.77814Q338.26562 347.35626 338.26562 346.5594L338.26562 343.23126L339.3125 343.23126L339.3125 349.45L338.375 349.45ZM341.29688 349.45L341.29688 343.23126L342.23438 343.23126L342.23438 344.10626Q342.92188 343.09064 344.21875 343.09064Q344.78125 343.09064 345.25 343.29376Q345.73438 343.4969 345.96875 343.825Q346.20312 344.15314 346.29688 344.59064Q346.34375 344.8875 346.34375 345.6219L346.34375 349.45L345.29688 349.45L345.29688 345.66876Q345.29688 345.0125 345.17188 344.7Q345.04688 344.3875 344.73438 344.2Q344.42188 343.9969 344.0 343.9969Q343.32812 343.9969 342.82812 344.4344Q342.34375 344.85626 342.34375 346.04376L342.34375 349.45L341.29688 349.45ZM352.54688 347.45L353.64062 347.575Q353.39062 348.52814 352.6875 349.0594Q351.98438 349.59064 350.90625 349.59064Q349.54688 349.59064 348.73438 348.7469Q347.9375 347.90314 347.9375 346.3875Q347.9375 344.825 348.75 343.96564Q349.5625 343.09064 350.84375 343.09064Q352.09375 343.09064 352.875 343.9344Q353.67188 344.77814 353.67188 346.325Q353.67188 346.41876 353.67188 346.60626L349.03125 346.60626Q349.09375 347.6375 349.60938 348.1844Q350.125 348.71564 350.90625 348.71564Q351.48438 348.71564 351.89062 348.41876Q352.3125 348.10626 352.54688 347.45ZM349.09375 345.7469L352.5625 345.7469Q352.5 344.95 352.17188 344.5594Q351.65625 343.95 350.85938 343.95Q350.125 343.95 349.625 344.4344Q349.14062 344.91876 349.09375 345.7469ZM354.875 347.59064L355.90625 347.4344Q356.0 348.0594 356.39062 348.3875Q356.79688 348.71564 357.53125 348.71564Q358.25 348.71564 358.59375 348.4344Q358.95312 348.1375 358.95312 347.73126Q358.95312 347.3719 358.64062 347.16876Q358.42188 347.02814 357.5625 346.8094Q356.40625 346.5125 355.95312 346.3094Q355.51562 346.09064 355.28125 345.71564Q355.04688 345.34064 355.04688 344.8719Q355.04688 344.46564 355.23438 344.10626Q355.42188 343.7469 355.75 343.5125Q356.0 343.34064 356.42188 343.21564Q356.84375 343.09064 357.34375 343.09064Q358.0625 343.09064 358.60938 343.3094Q359.17188 343.5125 359.4375 343.8719Q359.70312 344.23126 359.79688 344.825L358.76562 344.96564Q358.70312 344.4969 358.35938 344.23126Q358.03125 343.95 357.40625 343.95Q356.6875 343.95 356.375 344.2Q356.0625 344.4344 356.0625 344.7625Q356.0625 344.96564 356.1875 345.1219Q356.32812 345.29376 356.59375 345.40314Q356.75 345.46564 357.53125 345.66876Q358.65625 345.98126 359.09375 346.16876Q359.53125 346.35626 359.78125 346.71564Q360.03125 347.075 360.03125 347.6219Q360.03125 348.15314 359.71875 348.6219Q359.42188 349.075 358.84375 349.34064Q358.26562 349.59064 357.53125 349.59064Q356.3125 349.59064 355.67188 349.09064Q355.04688 348.575 354.875 347.59064Z" fill-rule="nonzero"/><path fill="#000000" d="M29.550013 196.88646L23.331263 196.88646L23.331263 195.94896L24.206263 195.94896Q23.190638 195.26146 23.190638 193.96458Q23.190638 193.40208 23.393763 192.93333Q23.596888 192.44896 23.925013 192.21458Q24.253138 191.98021 24.690638 191.88646Q24.987513 191.83958 25.721888 191.83958L29.550013 191.83958L29.550013 192.88646L25.768763 192.88646Q25.112513 192.88646 24.800013 193.01146Q24.487513 193.13646 24.300013 193.44896Q24.096888 193.76146 24.096888 194.18333Q24.096888 194.85521 24.534388 195.35521Q24.956263 195.83958 26.143763 195.83958L29.550013 195.83958L29.550013 196.88646ZM27.690638 190.30833L27.534388 189.27708Q28.159388 189.18333 28.487513 188.79271Q28.815638 188.38646 28.815638 187.65208Q28.815638 186.93333 28.534388 186.58958Q28.237513 186.23021 27.831263 186.23021Q27.471888 186.23021 27.268763 186.54271Q27.128138 186.76146 26.909388 187.62083Q26.612513 188.77708 26.409388 189.23021Q26.190638 189.66771 25.815638 189.90208Q25.440638 190.13646 24.971888 190.13646Q24.565638 190.13646 24.206263 189.94896Q23.846888 189.76146 23.612513 189.43333Q23.440638 189.18333 23.315638 188.76146Q23.190638 188.33958 23.190638 187.83958Q23.190638 187.12083 23.409388 186.57396Q23.612513 186.01146 23.971888 185.74583Q24.331263 185.48021 24.925013 185.38646L25.065638 186.41771Q24.596888 186.48021 24.331263 186.82396Q24.050013 187.15208 24.050013 187.77708Q24.050013 188.49583 24.300013 188.80833Q24.534388 189.12083 24.862513 189.12083Q25.065638 189.12083 25.221888 188.99583Q25.393763 188.85521 25.503138 188.58958Q25.565638 188.43333 25.768763 187.65208Q26.081263 186.52708 26.268763 186.08958Q26.456263 185.65208 26.815638 185.40208Q27.175013 185.15208 27.721888 185.15208Q28.253138 185.15208 28.721888 185.46458Q29.175013 185.76146 29.440638 186.33958Q29.690638 186.91771 29.690638 187.65208Q29.690638 188.87083 29.190638 189.51146Q28.675013 190.13646 27.690638 190.30833ZM29.690638 184.68333L20.815638 182.19896L20.815638 181.35521L29.690638 183.83958L29.690638 184.68333ZM26.440638 181.27708Q24.706263 181.27708 23.878138 180.32396Q23.190638 179.52708 23.190638 178.37083Q23.190638 177.08958 24.034388 176.27708Q24.862513 175.44896 26.346888 175.44896Q27.550013 175.44896 28.237513 175.80833Q28.925013 176.16771 29.315638 176.87083Q29.690638 177.55833 29.690638 178.37083Q29.690638 179.66771 28.862513 180.48021Q28.018763 181.27708 26.440638 181.27708ZM26.440638 180.19896Q27.628138 180.19896 28.221888 179.68333Q28.815638 179.15208 28.815638 178.37083Q28.815638 177.57396 28.221888 177.05833Q27.628138 176.54271 26.409388 176.54271Q25.253138 176.54271 24.659388 177.07396Q24.065638 177.58958 24.065638 178.37083Q24.065638 179.15208 24.659388 179.68333Q25.237513 180.19896 26.440638 180.19896ZM31.940638 173.88646L23.331263 173.88646L23.331263 172.93333L24.128138 172.93333Q23.659388 172.58958 23.425013 172.16771Q23.190638 171.73021 23.190638 171.12083Q23.190638 170.32396 23.596888 169.71458Q24.003138 169.10521 24.753138 168.80833Q25.503138 168.49583 26.393763 168.49583Q27.346888 168.49583 28.112513 168.83958Q28.878138 169.16771 29.284388 169.82396Q29.690638 170.48021 29.690638 171.19896Q29.690638 171.73021 29.471888 172.15208Q29.237513 172.57396 28.909388 172.83958L31.940638 172.83958L31.940638 173.88646ZM26.471888 172.93333Q27.675013 172.93333 28.253138 172.44896Q28.815638 171.96458 28.815638 171.27708Q28.815638 170.57396 28.221888 170.07396Q27.628138 169.57396 26.378138 169.57396Q25.190638 169.57396 24.612513 170.05833Q24.018763 170.54271 24.018763 171.23021Q24.018763 171.90208 24.643763 172.41771Q25.268763 172.93333 26.471888 172.93333Z" fill-rule="nonzero"/><path fill="#000000" d="M86.05 300.21564Q86.05 298.6844 86.3625 297.7625Q86.675 296.825 87.28438 296.325Q87.90938 295.825 88.84688 295.825Q89.53438 295.825 90.05 296.10626Q90.58125 296.3875 90.925 296.91876Q91.26875 297.4344 91.45625 298.1844Q91.64375 298.9344 91.64375 300.21564Q91.64375 301.73126 91.33125 302.65314Q91.03438 303.575 90.40938 304.09064Q89.8 304.59064 88.84688 304.59064Q87.6125 304.59064 86.89375 303.7Q86.05 302.6375 86.05 300.21564ZM87.12813 300.21564Q87.12813 302.325 87.62813 303.02814Q88.12813 303.73126 88.84688 303.73126Q89.58125 303.73126 90.06563 303.02814Q90.56563 302.325 90.56563 300.21564Q90.56563 298.09064 90.06563 297.40314Q89.58125 296.7 88.83125 296.7Q88.1125 296.7 87.675 297.3094Q87.12813 298.09064 87.12813 300.21564Z" fill-rule="nonzero"/><path fill="#000000" d="M58.05 240.06667L59.159374 239.97292Q59.284374 240.78542 59.721874 241.19167Q60.175 241.59792 60.815624 241.59792Q61.565624 241.59792 62.096874 241.01979Q62.628124 240.44167 62.628124 239.50417Q62.628124 238.59792 62.1125 238.08229Q61.6125 237.55104 60.784374 237.55104Q60.284374 237.55104 59.8625 237.78542Q59.45625 238.01979 59.221874 238.37917L58.2375 238.25417L59.065624 233.84792L63.346874 233.84792L63.346874 234.84792L59.909374 234.84792L59.45625 237.16042Q60.221874 236.61354 61.065624 236.61354Q62.190624 236.61354 62.95625 237.39479Q63.7375 238.17604 63.7375 239.41042Q63.7375 240.56667 63.065624 241.42604Q62.2375 242.45729 60.815624 242.45729Q59.64375 242.45729 58.89375 241.80104Q58.159374 241.14479 58.05 240.06667ZM65.05 238.08229Q65.05 236.55104 65.3625 235.62917Q65.675 234.69167 66.28438 234.19167Q66.90938 233.69167 67.84688 233.69167Q68.53438 233.69167 69.05 233.97292Q69.58125 234.25417 69.925 234.78542Q70.26875 235.30104 70.45625 236.05104Q70.64375 236.80104 70.64375 238.08229Q70.64375 239.59792 70.33125 240.51979Q70.03438 241.44167 69.40938 241.95729Q68.8 242.45729 67.84688 242.45729Q66.6125 242.45729 65.89375 241.56667Q65.05 240.50417 65.05 238.08229ZM66.12813 238.08229Q66.12813 240.19167 66.62813 240.89479Q67.12813 241.59792 67.84688 241.59792Q68.58125 241.59792 69.06563 240.89479Q69.56563 240.19167 69.56563 238.08229Q69.56563 235.95729 69.06563 235.26979Q68.58125 234.56667 67.83125 234.56667Q67.1125 234.56667 66.675 235.17604Q66.12813 235.95729 66.12813 238.08229ZM72.05 238.08229Q72.05 236.55104 72.3625 235.62917Q72.675 234.69167 73.28438 234.19167Q73.90938 233.69167 74.84688 233.69167Q75.53438 233.69167 76.05 233.97292Q76.58125 234.25417 76.925 234.78542Q77.26875 235.30104 77.45625 236.05104Q77.64375 236.80104 77.64375 238.08229Q77.64375 239.59792 77.33125 240.51979Q77.03438 241.44167 76.40938 241.95729Q75.8 242.45729 74.84688 242.45729Q73.6125 242.45729 72.89375 241.56667Q72.05 240.50417 72.05 238.08229ZM73.12813 238.08229Q73.12813 240.19167 73.62813 240.89479Q74.12813 241.59792 74.84688 241.59792Q75.58125 241.59792 76.06563 240.89479Q76.56563 240.19167 76.56563 238.08229Q76.56563 235.95729 76.06563 235.26979Q75.58125 234.56667 74.83125 234.56667Q74.1125 234.56667 73.675 235.17604Q73.12813 235.95729 73.12813 238.08229ZM79.05 238.08229Q79.05 236.55104 79.3625 235.62917Q79.675 234.69167 80.28438 234.19167Q80.90938 233.69167 81.84688 233.69167Q82.53438 233.69167 83.05 233.97292Q83.58125 234.25417 83.925 234.78542Q84.26875 235.30104 84.45625 236.05104Q84.64375 236.80104 84.64375 238.08229Q84.64375 239.59792 84.33125 240.51979Q84.03438 241.44167 83.40938 241.95729Q82.8 242.45729 81.84688 242.45729Q80.6125 242.45729 79.89375 241.56667Q79.05 240.50417 79.05 238.08229ZM80.12813 238.08229Q80.12813 240.19167 80.62813 240.89479Q81.12813 241.59792 81.84688 241.59792Q82.58125 241.59792 83.06563 240.89479Q83.56563 240.19167 83.56563 238.08229Q83.56563 235.95729 83.06563 235.26979Q82.58125 234.56667 81.83125 234.56667Q81.1125 234.56667 80.675 235.17604Q80.12813 235.95729 80.12813 238.08229ZM86.05 238.08229Q86.05 236.55104 86.3625 235.62917Q86.675 234.69167 87.28438 234.19167Q87.90938 233.69167 88.84688 233.69167Q89.53438 233.69167 90.05 233.97292Q90.58125 234.25417 90.925 234.78542Q91.26875 235.30104 91.45625 236.05104Q91.64375 236.80104 91.64375 238.08229Q91.64375 239.59792 91.33125 240.51979Q91.03438 241.44167 90.40938 241.95729Q89.8 242.45729 88.84688 242.45729Q87.6125 242.45729 86.89375 241.56667Q86.05 240.50417 86.05 238.08229ZM87.12813 238.08229Q87.12813 240.19167 87.62813 240.89479Q88.12813 241.59792 88.84688 241.59792Q89.58125 241.59792 90.06563 240.89479Q90.56563 240.19167 90.56563 238.08229Q90.56563 235.95729 90.06563 235.26979Q89.58125 234.56667 88.83125 234.56667Q88.1125 234.56667 87.675 235.17604Q87.12813 235.95729 87.12813 238.08229Z" fill-rule="nonzero"/><path fill="#000000" d="M55.01875 180.18333L53.971874 180.18333L53.971874 173.46458Q53.58125 173.82396 52.95625 174.19896Q52.346874 174.55833 51.8625 174.73021L51.8625 173.71458Q52.7375 173.29271 53.39375 172.71458Q54.065624 172.12083 54.346874 171.55833L55.01875 171.55833L55.01875 180.18333ZM58.05 175.94896Q58.05 174.41771 58.3625 173.49583Q58.675 172.55833 59.284374 172.05833Q59.909374 171.55833 60.846874 171.55833Q61.534374 171.55833 62.05 171.83958Q62.58125 172.12083 62.925 172.65208Q63.26875 173.16771 63.45625 173.91771Q63.64375 174.66771 63.64375 175.94896Q63.64375 177.46458 63.33125 178.38646Q63.034374 179.30833 62.409374 179.82396Q61.8 180.32396 60.846874 180.32396Q59.6125 180.32396 58.89375 179.43333Q58.05 178.37083 58.05 175.94896ZM59.128124 175.94896Q59.128124 178.05833 59.628124 178.76146Q60.128124 179.46458 60.846874 179.46458Q61.58125 179.46458 62.065624 178.76146Q62.565624 178.05833 62.565624 175.94896Q62.565624 173.82396 62.065624 173.13646Q61.58125 172.43333 60.83125 172.43333Q60.1125 172.43333 59.675 173.04271Q59.128124 173.82396 59.128124 175.94896ZM65.05 175.94896Q65.05 174.41771 65.3625 173.49583Q65.675 172.55833 66.28438 172.05833Q66.90938 171.55833 67.84688 171.55833Q68.53438 171.55833 69.05 171.83958Q69.58125 172.12083 69.925 172.65208Q70.26875 173.16771 70.45625 173.91771Q70.64375 174.66771 70.64375 175.94896Q70.64375 177.46458 70.33125 178.38646Q70.03438 179.30833 69.40938 179.82396Q68.8 180.32396 67.84688 180.32396Q66.6125 180.32396 65.89375 179.43333Q65.05 178.37083 65.05 175.94896ZM66.12813 175.94896Q66.12813 178.05833 66.62813 178.76146Q67.12813 179.46458 67.84688 179.46458Q68.58125 179.46458 69.06563 178.76146Q69.56563 178.05833 69.56563 175.94896Q69.56563 173.82396 69.06563 173.13646Q68.58125 172.43333 67.83125 172.43333Q67.1125 172.43333 66.675 173.04271Q66.12813 173.82396 66.12813 175.94896ZM72.05 175.94896Q72.05 174.41771 72.3625 173.49583Q72.675 172.55833 73.28438 172.05833Q73.90938 171.55833 74.84688 171.55833Q75.53438 171.55833 76.05 171.83958Q76.58125 172.12083 76.925 172.65208Q77.26875 173.16771 77.45625 173.91771Q77.64375 174.66771 77.64375 175.94896Q77.64375 177.46458 77.33125 178.38646Q77.03438 179.30833 76.40938 179.82396Q75.8 180.32396 74.84688 180.32396Q73.6125 180.32396 72.89375 179.43333Q72.05 178.37083 72.05 175.94896ZM73.12813 175.94896Q73.12813 178.05833 73.62813 178.76146Q74.12813 179.46458 74.84688 179.46458Q75.58125 179.46458 76.06563 178.76146Q76.56563 178.05833 76.56563 175.94896Q76.56563 173.82396 76.06563 173.13646Q75.58125 172.43333 74.83125 172.43333Q74.1125 172.43333 73.675 173.04271Q73.12813 173.82396 73.12813 175.94896ZM79.05 175.94896Q79.05 174.41771 79.3625 173.49583Q79.675 172.55833 80.28438 172.05833Q80.90938 171.55833 81.84688 171.55833Q82.53438 171.55833 83.05 171.83958Q83.58125 172.12083 83.925 172.65208Q84.26875 173.16771 84.45625 173.91771Q84.64375 174.66771 84.64375 175.94896Q84.64375 177.46458 84.33125 178.38646Q84.03438 179.30833 83.40938 179.82396Q82.8 180.32396 81.84688 180.32396Q80.6125 180.32396 79.89375 179.43333Q79.05 178.37083 79.05 175.94896ZM80.12813 175.94896Q80.12813 178.05833 80.62813 178.76146Q81.12813 179.46458 81.84688 179.46458Q82.58125 179.46458 83.06563 178.76146Q83.56563 178.05833 83.56563 175.94896Q83.56563 173.82396 83.06563 173.13646Q82.58125 172.43333 81.83125 172.43333Q81.1125 172.43333 80.675 173.04271Q80.12813 173.82396 80.12813 175.94896ZM86.05 175.94896Q86.05 174.41771 86.3625 173.49583Q86.675 172.55833 87.28438 172.05833Q87.90938 171.55833 88.84688 171.55833Q89.53438 171.55833 90.05 171.83958Q90.58125 172.12083 90.925 172.65208Q91.26875 173.16771 91.45625 173.91771Q91.64375 174.66771 91.64375 175.94896Q91.64375 177.46458 91.33125 178.38646Q91.03438 179.30833 90.40938 179.82396Q89.8 180.32396 88.84688 180.32396Q87.6125 180.32396 86.89375 179.43333Q86.05 178.37083 86.05 175.94896ZM87.12813 175.94896Q87.12813 178.05833 87.62813 178.76146Q88.12813 179.46458 88.84688 179.46458Q89.58125 179.46458 90.06563 178.76146Q90.56563 178.05833 90.56563 175.94896Q90.56563 173.82396 90.06563 173.13646Q89.58125 172.43333 88.83125 172.43333Q88.1125 172.43333 87.675 173.04271Q87.12813 173.82396 87.12813 175.94896Z" fill-rule="nonzero"/><path fill="#000000" d="M55.01875 118.05L53.971874 118.05L53.971874 111.33125Q53.58125 111.69063 52.95625 112.06563Q52.346874 112.425 51.8625 112.59688L51.8625 111.58125Q52.7375 111.15938 53.39375 110.58125Q54.065624 109.9875 54.346874 109.425L55.01875 109.425L55.01875 118.05ZM58.05 115.8L59.159374 115.70625Q59.284374 116.51875 59.721874 116.925Q60.175 117.33125 60.815624 117.33125Q61.565624 117.33125 62.096874 116.75313Q62.628124 116.175 62.628124 115.2375Q62.628124 114.33125 62.1125 113.81563Q61.6125 113.28438 60.784374 113.28438Q60.284374 113.28438 59.8625 113.51875Q59.45625 113.75313 59.221874 114.1125L58.2375 113.9875L59.065624 109.58125L63.346874 109.58125L63.346874 110.58125L59.909374 110.58125L59.45625 112.89375Q60.221874 112.34688 61.065624 112.34688Q62.190624 112.34688 62.95625 113.12813Q63.7375 113.90938 63.7375 115.14375Q63.7375 116.3 63.065624 117.15938Q62.2375 118.19063 60.815624 118.19063Q59.64375 118.19063 58.89375 117.53438Q58.159374 116.87813 58.05 115.8ZM65.05 113.81563Q65.05 112.28438 65.3625 111.3625Q65.675 110.425 66.28438 109.925Q66.90938 109.425 67.84688 109.425Q68.53438 109.425 69.05 109.70625Q69.58125 109.9875 69.925 110.51875Q70.26875 111.03438 70.45625 111.78438Q70.64375 112.53438 70.64375 113.81563Q70.64375 115.33125 70.33125 116.25313Q70.03438 117.175 69.40938 117.69063Q68.8 118.19063 67.84688 118.19063Q66.6125 118.19063 65.89375 117.3Q65.05 116.2375 65.05 113.81563ZM66.12813 113.81563Q66.12813 115.925 66.62813 116.62813Q67.12813 117.33125 67.84688 117.33125Q68.58125 117.33125 69.06563 116.62813Q69.56563 115.925 69.56563 113.81563Q69.56563 111.69063 69.06563 111.00313Q68.58125 110.3 67.83125 110.3Q67.1125 110.3 66.675 110.90938Q66.12813 111.69063 66.12813 113.81563ZM72.05 113.81563Q72.05 112.28438 72.3625 111.3625Q72.675 110.425 73.28438 109.925Q73.90938 109.425 74.84688 109.425Q75.53438 109.425 76.05 109.70625Q76.58125 109.9875 76.925 110.51875Q77.26875 111.03438 77.45625 111.78438Q77.64375 112.53438 77.64375 113.81563Q77.64375 115.33125 77.33125 116.25313Q77.03438 117.175 76.40938 117.69063Q75.8 118.19063 74.84688 118.19063Q73.6125 118.19063 72.89375 117.3Q72.05 116.2375 72.05 113.81563ZM73.12813 113.81563Q73.12813 115.925 73.62813 116.62813Q74.12813 117.33125 74.84688 117.33125Q75.58125 117.33125 76.06563 116.62813Q76.56563 115.925 76.56563 113.81563Q76.56563 111.69063 76.06563 111.00313Q75.58125 110.3 74.83125 110.3Q74.1125 110.3 73.675 110.90938Q73.12813 111.69063 73.12813 113.81563ZM79.05 113.81563Q79.05 112.28438 79.3625 111.3625Q79.675 110.425 80.28438 109.925Q80.90938 109.425 81.84688 109.425Q82.53438 109.425 83.05 109.70625Q83.58125 109.9875 83.925 110.51875Q84.26875 111.03438 84.45625 111.78438Q84.64375 112.53438 84.64375 113.81563Q84.64375 115.33125 84.33125 116.25313Q84.03438 117.175 83.40938 117.69063Q82.8 118.19063 81.84688 118.19063Q80.6125 118.19063 79.89375 117.3Q79.05 116.2375 79.05 113.81563ZM80.12813 113.81563Q80.12813 115.925 80.62813 116.62813Q81.12813 117.33125 81.84688 117.33125Q82.58125 117.33125 83.06563 116.62813Q83.56563 115.925 83.56563 113.81563Q83.56563 111.69063 83.06563 111.00313Q82.58125 110.3 81.83125 110.3Q81.1125 110.3 80.675 110.90938Q80.12813 111.69063 80.12813 113.81563ZM86.05 113.81563Q86.05 112.28438 86.3625 111.3625Q86.675 110.425 87.28438 109.925Q87.90938 109.425 88.84688 109.425Q89.53438 109.425 90.05 109.70625Q90.58125 109.9875 90.925 110.51875Q91.26875 111.03438 91.45625 111.78438Q91.64375 112.53438 91.64375 113.81563Q91.64375 115.33125 91.33125 116.25313Q91.03438 117.175 90.40938 117.69063Q89.8 118.19063 88.84688 118.19063Q87.6125 118.19063 86.89375 117.3Q86.05 116.2375 86.05 113.81563ZM87.12813 113.81563Q87.12813 115.925 87.62813 116.62813Q88.12813 117.33125 88.84688 117.33125Q89.58125 117.33125 90.06563 116.62813Q90.56563 115.925 90.56563 113.81563Q90.56563 111.69063 90.06563 111.00313Q89.58125 110.3 88.83125 110.3Q88.1125 110.3 87.675 110.90938Q87.12813 111.69063 87.12813 113.81563Z" fill-rule="nonzero"/><path fill="#000000" d="M56.596874 54.901043L56.596874 55.916668L50.909374 55.916668Q50.909374 55.541668 51.034374 55.182293Q51.253124 54.604168 51.721874 54.041668Q52.20625 53.479168 53.1125 52.744793Q54.51875 51.588543 55.003124 50.916668Q55.503124 50.244793 55.503124 49.651043Q55.503124 49.026043 55.05 48.604168Q54.596874 48.166668 53.878124 48.166668Q53.1125 48.166668 52.659374 48.619793Q52.20625 49.072918 52.190624 49.885418L51.1125 49.776043Q51.221874 48.557293 51.940624 47.932293Q52.675 47.291668 53.909374 47.291668Q55.14375 47.291668 55.8625 47.979168Q56.58125 48.666668 56.58125 49.682293Q56.58125 50.197918 56.3625 50.697918Q56.159374 51.182293 55.659374 51.744793Q55.175 52.291668 54.05 53.244793Q53.096874 54.041668 52.815624 54.338543Q52.55 54.619793 52.378124 54.901043L56.596874 54.901043ZM58.05 51.682293Q58.05 50.151043 58.3625 49.229168Q58.675 48.291668 59.284374 47.791668Q59.909374 47.291668 60.846874 47.291668Q61.534374 47.291668 62.05 47.572918Q62.58125 47.854168 62.925 48.385418Q63.26875 48.901043 63.45625 49.651043Q63.64375 50.401043 63.64375 51.682293Q63.64375 53.197918 63.33125 54.119793Q63.034374 55.041668 62.409374 55.557293Q61.8 56.057293 60.846874 56.057293Q59.6125 56.057293 58.89375 55.166668Q58.05 54.104168 58.05 51.682293ZM59.128124 51.682293Q59.128124 53.791668 59.628124 54.494793Q60.128124 55.197918 60.846874 55.197918Q61.58125 55.197918 62.065624 54.494793Q62.565624 53.791668 62.565624 51.682293Q62.565624 49.557293 62.065624 48.869793Q61.58125 48.166668 60.83125 48.166668Q60.1125 48.166668 59.675 48.776043Q59.128124 49.557293 59.128124 51.682293ZM65.05 51.682293Q65.05 50.151043 65.3625 49.229168Q65.675 48.291668 66.28438 47.791668Q66.90938 47.291668 67.84688 47.291668Q68.53438 47.291668 69.05 47.572918Q69.58125 47.854168 69.925 48.385418Q70.26875 48.901043 70.45625 49.651043Q70.64375 50.401043 70.64375 51.682293Q70.64375 53.197918 70.33125 54.119793Q70.03438 55.041668 69.40938 55.557293Q68.8 56.057293 67.84688 56.057293Q66.6125 56.057293 65.89375 55.166668Q65.05 54.104168 65.05 51.682293ZM66.12813 51.682293Q66.12813 53.791668 66.62813 54.494793Q67.12813 55.197918 67.84688 55.197918Q68.58125 55.197918 69.06563 54.494793Q69.56563 53.791668 69.56563 51.682293Q69.56563 49.557293 69.06563 48.869793Q68.58125 48.166668 67.83125 48.166668Q67.1125 48.166668 66.675 48.776043Q66.12813 49.557293 66.12813 51.682293ZM72.05 51.682293Q72.05 50.151043 72.3625 49.229168Q72.675 48.291668 73.28438 47.791668Q73.90938 47.291668 74.84688 47.291668Q75.53438 47.291668 76.05 47.572918Q76.58125 47.854168 76.925 48.385418Q77.26875 48.901043 77.45625 49.651043Q77.64375 50.401043 77.64375 51.682293Q77.64375 53.197918 77.33125 54.119793Q77.03438 55.041668 76.40938 55.557293Q75.8 56.057293 74.84688 56.057293Q73.6125 56.057293 72.89375 55.166668Q72.05 54.104168 72.05 51.682293ZM73.12813 51.682293Q73.12813 53.791668 73.62813 54.494793Q74.12813 55.197918 74.84688 55.197918Q75.58125 55.197918 76.06563 54.494793Q76.56563 53.791668 76.56563 51.682293Q76.56563 49.557293 76.06563 48.869793Q75.58125 48.166668 74.83125 48.166668Q74.1125 48.166668 73.675 48.776043Q73.12813 49.557293 73.12813 51.682293ZM79.05 51.682293Q79.05 50.151043 79.3625 49.229168Q79.675 48.291668 80.28438 47.791668Q80.90938 47.291668 81.84688 47.291668Q82.53438 47.291668 83.05 47.572918Q83.58125 47.854168 83.925 48.385418Q84.26875 48.901043 84.45625 49.651043Q84.64375 50.401043 84.64375 51.682293Q84.64375 53.197918 84.33125 54.119793Q84.03438 55.041668 83.40938 55.557293Q82.8 56.057293 81.84688 56.057293Q80.6125 56.057293 79.89375 55.166668Q79.05 54.104168 79.05 51.682293ZM80.12813 51.682293Q80.12813 53.791668 80.62813 54.494793Q81.12813 55.197918 81.84688 55.197918Q82.58125 55.197918 83.06563 54.494793Q83.56563 53.791668 83.56563 51.682293Q83.56563 49.557293 83.06563 48.869793Q82.58125 48.166668 81.83125 48.166668Q81.1125 48.166668 80.675 48.776043Q80.12813 49.557293 80.12813 51.682293ZM86.05 51.682293Q86.05 50.151043 86.3625 49.229168Q86.675 48.291668 87.28438 47.791668Q87.90938 47.291668 88.84688 47.291668Q89.53438 47.291668 90.05 47.572918Q90.58125 47.854168 90.925 48.385418Q91.26875 48.901043 91.45625 49.651043Q91.64375 50.401043 91.64375 51.682293Q91.64375 53.197918 91.33125 54.119793Q91.03438 55.041668 90.40938 55.557293Q89.8 56.057293 88.84688 56.057293Q87.6125 56.057293 86.89375 55.166668Q86.05 54.104168 86.05 51.682293ZM87.12813 51.682293Q87.12813 53.791668 87.62813 54.494793Q88.12813 55.197918 88.84688 55.197918Q89.58125 55.197918 90.06563 54.494793Q90.56563 53.791668 90.56563 51.682293Q90.56563 49.557293 90.06563 48.869793Q89.58125 48.166668 88.83125 48.166668Q88.1125 48.166668 87.675 48.776043Q87.12813 49.557293 87.12813 51.682293Z" fill-rule="nonzero"/><path fill="#000000" d="M180.66716 317.45L179.62029 317.45L179.62029 310.73126Q179.22966 311.09064 178.60466 311.46564Q177.99529 311.825 177.51091 311.9969L177.51091 310.98126Q178.38591 310.5594 179.04216 309.98126Q179.71404 309.3875 179.99529 308.825L180.66716 308.825L180.66716 317.45ZM183.69841 313.21564Q183.69841 311.6844 184.01091 310.7625Q184.32341 309.825 184.93279 309.325Q185.55779 308.825 186.49529 308.825Q187.18279 308.825 187.69841 309.10626Q188.22966 309.3875 188.57341 309.91876Q188.91716 310.4344 189.10466 311.1844Q189.29216 311.9344 189.29216 313.21564Q189.29216 314.73126 188.97966 315.65314Q188.68279 316.575 188.05779 317.09064Q187.44841 317.59064 186.49529 317.59064Q185.26091 317.59064 184.54216 316.7Q183.69841 315.6375 183.69841 313.21564ZM184.77654 313.21564Q184.77654 315.325 185.27654 316.02814Q185.77654 316.73126 186.49529 316.73126Q187.22966 316.73126 187.71404 316.02814Q188.21404 315.325 188.21404 313.21564Q188.21404 311.09064 187.71404 310.40314Q187.22966 309.7 186.47966 309.7Q185.76091 309.7 185.32341 310.3094Q184.77654 311.09064 184.77654 313.21564ZM190.69841 313.21564Q190.69841 311.6844 191.01091 310.7625Q191.32341 309.825 191.93279 309.325Q192.55779 308.825 193.49529 308.825Q194.18279 308.825 194.69841 309.10626Q195.22966 309.3875 195.57341 309.91876Q195.91716 310.4344 196.10466 311.1844Q196.29216 311.9344 196.29216 313.21564Q196.29216 314.73126 195.97966 315.65314Q195.68279 316.575 195.05779 317.09064Q194.44841 317.59064 193.49529 317.59064Q192.26091 317.59064 191.54216 316.7Q190.69841 315.6375 190.69841 313.21564ZM191.77654 313.21564Q191.77654 315.325 192.27654 316.02814Q192.77654 316.73126 193.49529 316.73126Q194.22966 316.73126 194.71404 316.02814Q195.21404 315.325 195.21404 313.21564Q195.21404 311.09064 194.71404 310.40314Q194.22966 309.7 193.47966 309.7Q192.76091 309.7 192.32341 310.3094Q191.77654 311.09064 191.77654 313.21564Z" fill-rule="nonzero"/><path fill="#000000" d="M278.05878 316.4344L278.05878 317.45L272.37128 317.45Q272.37128 317.075 272.49628 316.71564Q272.71503 316.1375 273.18378 315.575Q273.66815 315.0125 274.5744 314.27814Q275.98065 313.1219 276.46503 312.45Q276.96503 311.77814 276.96503 311.1844Q276.96503 310.5594 276.5119 310.1375Q276.05878 309.7 275.34003 309.7Q274.5744 309.7 274.12128 310.15314Q273.66815 310.60626 273.65253 311.41876L272.5744 311.3094Q272.68378 310.09064 273.40253 309.46564Q274.1369 308.825 275.37128 308.825Q276.60565 308.825 277.3244 309.5125Q278.04315 310.2 278.04315 311.21564Q278.04315 311.73126 277.8244 312.23126Q277.62128 312.71564 277.12128 313.27814Q276.6369 313.825 275.5119 314.77814Q274.55878 315.575 274.27753 315.8719Q274.0119 316.15314 273.84003 316.4344L278.05878 316.4344ZM279.5119 313.21564Q279.5119 311.6844 279.8244 310.7625Q280.1369 309.825 280.74628 309.325Q281.37128 308.825 282.30878 308.825Q282.99628 308.825 283.5119 309.10626Q284.04315 309.3875 284.3869 309.91876Q284.73065 310.4344 284.91815 311.1844Q285.10565 311.9344 285.10565 313.21564Q285.10565 314.73126 284.79315 315.65314Q284.49628 316.575 283.87128 317.09064Q283.2619 317.59064 282.30878 317.59064Q281.0744 317.59064 280.35565 316.7Q279.5119 315.6375 279.5119 313.21564ZM280.59003 313.21564Q280.59003 315.325 281.09003 316.02814Q281.59003 316.73126 282.30878 316.73126Q283.04315 316.73126 283.52753 316.02814Q284.02753 315.325 284.02753 313.21564Q284.02753 311.09064 283.52753 310.40314Q283.04315 309.7 282.29315 309.7Q281.5744 309.7 281.1369 310.3094Q280.59003 311.09064 280.59003 313.21564ZM286.5119 313.21564Q286.5119 311.6844 286.8244 310.7625Q287.1369 309.825 287.74628 309.325Q288.37128 308.825 289.30878 308.825Q289.99628 308.825 290.5119 309.10626Q291.04315 309.3875 291.3869 309.91876Q291.73065 310.4344 291.91815 311.1844Q292.10565 311.9344 292.10565 313.21564Q292.10565 314.73126 291.79315 315.65314Q291.49628 316.575 290.87128 317.09064Q290.2619 317.59064 289.30878 317.59064Q288.0744 317.59064 287.35565 316.7Q286.5119 315.6375 286.5119 313.21564ZM287.59003 313.21564Q287.59003 315.325 288.09003 316.02814Q288.59003 316.73126 289.30878 316.73126Q290.04315 316.73126 290.52753 316.02814Q291.02753 315.325 291.02753 313.21564Q291.02753 311.09064 290.52753 310.40314Q290.04315 309.7 289.29315 309.7Q288.5744 309.7 288.1369 310.3094Q287.59003 311.09064 287.59003 313.21564Z" fill-rule="nonzero"/><path fill="#000000" d="M368.3254 315.1844L369.3879 315.04376Q369.55978 315.9344 369.99728 316.34064Q370.43478 316.73126 371.05978 316.73126Q371.80978 316.73126 372.3254 316.21564Q372.84103 315.7 372.84103 314.9344Q372.84103 314.21564 372.35666 313.7469Q371.8879 313.2625 371.15353 313.2625Q370.85666 313.2625 370.40353 313.3875L370.52853 312.45Q370.6379 312.46564 370.7004 312.46564Q371.37228 312.46564 371.90353 312.1219Q372.4504 311.7625 372.4504 311.02814Q372.4504 310.45 372.05978 310.075Q371.66916 309.6844 371.04416 309.6844Q370.43478 309.6844 370.0129 310.075Q369.60666 310.46564 369.49728 311.23126L368.43478 311.04376Q368.62228 309.9969 369.30978 309.41876Q369.99728 308.825 371.0129 308.825Q371.71603 308.825 372.30978 309.1375Q372.90353 309.4344 373.21603 309.95Q373.52853 310.46564 373.52853 311.0594Q373.52853 311.60626 373.23166 312.075Q372.93478 312.52814 372.35666 312.79376Q373.10666 312.96564 373.52853 313.52814Q373.9504 314.075 373.9504 314.91876Q373.9504 316.04376 373.12228 316.825Q372.30978 317.60626 371.05978 317.60626Q369.93478 317.60626 369.18478 316.9344Q368.43478 316.2469 368.3254 315.1844ZM375.3254 313.21564Q375.3254 311.6844 375.6379 310.7625Q375.9504 309.825 376.55978 309.325Q377.18478 308.825 378.12228 308.825Q378.80978 308.825 379.3254 309.10626Q379.85666 309.3875 380.2004 309.91876Q380.54416 310.4344 380.73166 311.1844Q380.91916 311.9344 380.91916 313.21564Q380.91916 314.73126 380.60666 315.65314Q380.30978 316.575 379.68478 317.09064Q379.0754 317.59064 378.12228 317.59064Q376.8879 317.59064 376.16916 316.7Q375.3254 315.6375 375.3254 313.21564ZM376.40353 313.21564Q376.40353 315.325 376.90353 316.02814Q377.40353 316.73126 378.12228 316.73126Q378.85666 316.73126 379.34103 316.02814Q379.84103 315.325 379.84103 313.21564Q379.84103 311.09064 379.34103 310.40314Q378.85666 309.7 378.10666 309.7Q377.3879 309.7 376.9504 310.3094Q376.40353 311.09064 376.40353 313.21564ZM382.3254 313.21564Q382.3254 311.6844 382.6379 310.7625Q382.9504 309.825 383.55978 309.325Q384.18478 308.825 385.12228 308.825Q385.80978 308.825 386.3254 309.10626Q386.85666 309.3875 387.2004 309.91876Q387.54416 310.4344 387.73166 311.1844Q387.91916 311.9344 387.91916 313.21564Q387.91916 314.73126 387.60666 315.65314Q387.30978 316.575 386.68478 317.09064Q386.0754 317.59064 385.12228 317.59064Q383.8879 317.59064 383.16916 316.7Q382.3254 315.6375 382.3254 313.21564ZM383.40353 313.21564Q383.40353 315.325 383.90353 316.02814Q384.40353 316.73126 385.12228 316.73126Q385.85666 316.73126 386.34103 316.02814Q386.84103 315.325 386.84103 313.21564Q386.84103 311.09064 386.34103 310.40314Q385.85666 309.7 385.10666 309.7Q384.3879 309.7 383.9504 310.3094Q383.40353 311.09064 383.40353 313.21564Z" fill-rule="nonzero"/><path fill="#000000" d="M467.5139 317.45L467.5139 315.3875L463.79514 315.3875L463.79514 314.41876L467.717 308.85626L468.5764 308.85626L468.5764 314.41876L469.73264 314.41876L469.73264 315.3875L468.5764 315.3875L468.5764 317.45L467.5139 317.45ZM467.5139 314.41876L467.5139 310.5594L464.8264 314.41876L467.5139 314.41876ZM471.1389 313.21564Q471.1389 311.6844 471.4514 310.7625Q471.7639 309.825 472.37326 309.325Q472.99826 308.825 473.93576 308.825Q474.62326 308.825 475.1389 309.10626Q475.67014 309.3875 476.0139 309.91876Q476.35764 310.4344 476.54514 311.1844Q476.73264 311.9344 476.73264 313.21564Q476.73264 314.73126 476.42014 315.65314Q476.12326 316.575 475.49826 317.09064Q474.8889 317.59064 473.93576 317.59064Q472.7014 317.59064 471.98264 316.7Q471.1389 315.6375 471.1389 313.21564ZM472.217 313.21564Q472.217 315.325 472.717 316.02814Q473.217 316.73126 473.93576 316.73126Q474.67014 316.73126 475.1545 316.02814Q475.6545 315.325 475.6545 313.21564Q475.6545 311.09064 475.1545 310.40314Q474.67014 309.7 473.92014 309.7Q473.2014 309.7 472.7639 310.3094Q472.217 311.09064 472.217 313.21564ZM478.1389 313.21564Q478.1389 311.6844 478.4514 310.7625Q478.7639 309.825 479.37326 309.325Q479.99826 308.825 480.93576 308.825Q481.62326 308.825 482.1389 309.10626Q482.67014 309.3875 483.0139 309.91876Q483.35764 310.4344 483.54514 311.1844Q483.73264 311.9344 483.73264 313.21564Q483.73264 314.73126 483.42014 315.65314Q483.12326 316.575 482.49826 317.09064Q481.8889 317.59064 480.93576 317.59064Q479.7014 317.59064 478.98264 316.7Q478.1389 315.6375 478.1389 313.21564ZM479.217 313.21564Q479.217 315.325 479.717 316.02814Q480.217 316.73126 480.93576 316.73126Q481.67014 316.73126 482.1545 316.02814Q482.6545 315.325 482.6545 313.21564Q482.6545 311.09064 482.1545 310.40314Q481.67014 309.7 480.92014 309.7Q480.2014 309.7 479.7639 310.3094Q479.217 311.09064 479.217 313.21564Z" fill-rule="nonzero"/><path fill="#000000" d="M559.9524 315.2L561.06177 315.10626Q561.18677 315.91876 561.62427 316.325Q562.0774 316.73126 562.718 316.73126Q563.468 316.73126 563.99927 316.15314Q564.5305 315.575 564.5305 314.6375Q564.5305 313.73126 564.0149 313.21564Q563.5149 312.6844 562.68677 312.6844Q562.18677 312.6844 561.7649 312.91876Q561.35864 313.15314 561.12427 313.5125L560.1399 313.3875L560.968 308.98126L565.24927 308.98126L565.24927 309.98126L561.81177 309.98126L561.35864 312.29376Q562.12427 311.7469 562.968 311.7469Q564.093 311.7469 564.85864 312.52814Q565.6399 313.3094 565.6399 314.54376Q565.6399 315.7 564.968 316.5594Q564.1399 317.59064 562.718 317.59064Q561.54614 317.59064 560.79614 316.9344Q560.06177 316.27814 559.9524 315.2ZM566.9524 313.21564Q566.9524 311.6844 567.2649 310.7625Q567.5774 309.825 568.18677 309.325Q568.81177 308.825 569.74927 308.825Q570.43677 308.825 570.9524 309.10626Q571.48364 309.3875 571.8274 309.91876Q572.17114 310.4344 572.35864 311.1844Q572.54614 311.9344 572.54614 313.21564Q572.54614 314.73126 572.23364 315.65314Q571.93677 316.575 571.31177 317.09064Q570.7024 317.59064 569.74927 317.59064Q568.5149 317.59064 567.79614 316.7Q566.9524 315.6375 566.9524 313.21564ZM568.0305 313.21564Q568.0305 315.325 568.5305 316.02814Q569.0305 316.73126 569.74927 316.73126Q570.48364 316.73126 570.968 316.02814Q571.468 315.325 571.468 313.21564Q571.468 311.09064 570.968 310.40314Q570.48364 309.7 569.73364 309.7Q569.0149 309.7 568.5774 310.3094Q568.0305 311.09064 568.0305 313.21564ZM573.9524 313.21564Q573.9524 311.6844 574.2649 310.7625Q574.5774 309.825 575.18677 309.325Q575.81177 308.825 576.74927 308.825Q577.43677 308.825 577.9524 309.10626Q578.48364 309.3875 578.8274 309.91876Q579.17114 310.4344 579.35864 311.1844Q579.54614 311.9344 579.54614 313.21564Q579.54614 314.73126 579.23364 315.65314Q578.93677 316.575 578.31177 317.09064Q577.7024 317.59064 576.74927 317.59064Q575.5149 317.59064 574.79614 316.7Q573.9524 315.6375 573.9524 313.21564ZM575.0305 313.21564Q575.0305 315.325 575.5305 316.02814Q576.0305 316.73126 576.74927 316.73126Q577.48364 316.73126 577.968 316.02814Q578.468 315.325 578.468 313.21564Q578.468 311.09064 577.968 310.40314Q577.48364 309.7 576.73364 309.7Q576.0149 309.7 575.5774 310.3094Q575.0305 311.09064 575.0305 313.21564Z" fill-rule="nonzero"/><path stroke="#4285f4" stroke-width="4.0" stroke-linecap="butt" d="M192.5 25.55L204.5 25.55" fill-rule="nonzero"/><path fill="#1a1a1a" d="M213.39062 29.55L213.39062 20.95625L215.10938 20.95625L217.14062 27.034374Q217.42188 27.89375 217.54688 28.315624Q217.6875 27.846874 218.0 26.940624L220.0625 20.95625L221.59375 20.95625L221.59375 29.55L220.5 29.55L220.5 22.3625L218.0 29.55L216.96875 29.55L214.48438 22.2375L214.48438 29.55L213.39062 29.55ZM227.35938 28.784374Q226.76562 29.284374 226.21875 29.4875Q225.6875 29.690624 225.0625 29.690624Q224.03125 29.690624 223.48438 29.190624Q222.9375 28.690624 222.9375 27.909374Q222.9375 27.45625 223.14062 27.08125Q223.34375 26.690624 223.6875 26.471874Q224.03125 26.2375 224.45312 26.128124Q224.75 26.034374 225.39062 25.95625Q226.65625 25.815624 227.26562 25.596874Q227.26562 25.378124 227.26562 25.33125Q227.26562 24.675 226.96875 24.409374Q226.5625 24.065624 225.76562 24.065624Q225.03125 24.065624 224.67188 24.33125Q224.3125 24.58125 224.14062 25.2375L223.10938 25.096874Q223.25 24.440624 223.57812 24.034374Q223.90625 23.628124 224.51562 23.409374Q225.125 23.190624 225.92188 23.190624Q226.71875 23.190624 227.21875 23.378124Q227.71875 23.565624 227.95312 23.846874Q228.1875 24.128124 228.28125 24.565624Q228.32812 24.83125 228.32812 25.534374L228.32812 26.940624Q228.32812 28.409374 228.39062 28.8Q228.46875 29.190624 228.67188 29.55L227.5625 29.55Q227.40625 29.221874 227.35938 28.784374ZM227.26562 26.425Q226.6875 26.659374 225.54688 26.83125Q224.89062 26.925 224.625 27.05Q224.35938 27.159374 224.20312 27.378124Q224.0625 27.596874 224.0625 27.878124Q224.0625 28.3 224.375 28.58125Q224.70312 28.8625 225.3125 28.8625Q225.92188 28.8625 226.39062 28.596874Q226.875 28.33125 227.09375 27.8625Q227.26562 27.503124 227.26562 26.815624L227.26562 26.425ZM230.29688 31.940624L230.29688 23.33125L231.25 23.33125L231.25 24.128124Q231.59375 23.659374 232.01562 23.425Q232.45312 23.190624 233.0625 23.190624Q233.85938 23.190624 234.46875 23.596874Q235.07812 24.003124 235.375 24.753124Q235.6875 25.503124 235.6875 26.39375Q235.6875 27.346874 235.34375 28.1125Q235.01562 28.878124 234.35938 29.284374Q233.70312 29.690624 232.98438 29.690624Q232.45312 29.690624 232.03125 29.471874Q231.60938 29.2375 231.34375 28.909374L231.34375 31.940624L230.29688 31.940624ZM231.25 26.471874Q231.25 27.675 231.73438 28.253124Q232.21875 28.815624 232.90625 28.815624Q233.60938 28.815624 234.10938 28.221874Q234.60938 27.628124 234.60938 26.378124Q234.60938 25.190624 234.125 24.6125Q233.64062 24.01875 232.95312 24.01875Q232.28125 24.01875 231.76562 24.64375Q231.25 25.26875 231.25 26.471874Z" fill-rule="nonzero"/><path stroke="#ea4335" stroke-width="4.0" stroke-linecap="butt" d="M252.5 25.55L264.5 25.55" fill-rule="nonzero"/><path fill="#1a1a1a" d="M273.04688 26.784374L274.10938 26.690624Q274.1875 27.346874 274.46875 27.753124Q274.75 28.159374 275.32812 28.425Q275.92188 28.675 276.65625 28.675Q277.29688 28.675 277.79688 28.4875Q278.29688 28.284374 278.53125 27.95625Q278.78125 27.6125 278.78125 27.221874Q278.78125 26.815624 278.54688 26.51875Q278.3125 26.20625 277.78125 26.003124Q277.42188 25.8625 276.23438 25.58125Q275.0625 25.3 274.59375 25.05Q273.96875 24.721874 273.67188 24.253124Q273.375 23.76875 273.375 23.175Q273.375 22.534374 273.73438 21.971874Q274.10938 21.39375 274.8125 21.1125Q275.53125 20.815624 276.39062 20.815624Q277.34375 20.815624 278.07812 21.128124Q278.8125 21.425 279.20312 22.034374Q279.59375 22.628124 279.625 23.378124L278.53125 23.45625Q278.4375 22.64375 277.92188 22.2375Q277.42188 21.815624 276.4375 21.815624Q275.40625 21.815624 274.9375 22.190624Q274.46875 22.565624 274.46875 23.096874Q274.46875 23.565624 274.79688 23.8625Q275.125 24.159374 276.5 24.471874Q277.89062 24.784374 278.40625 25.01875Q279.15625 25.378124 279.51562 25.909374Q279.875 26.425 279.875 27.128124Q279.875 27.815624 279.48438 28.425Q279.09375 29.01875 278.35938 29.3625Q277.625 29.690624 276.70312 29.690624Q275.53125 29.690624 274.73438 29.3625Q273.95312 29.01875 273.5 28.33125Q273.0625 27.64375 273.04688 26.784374ZM280.90625 26.440624Q280.90625 24.70625 281.85938 23.878124Q282.65625 23.190624 283.8125 23.190624Q285.09375 23.190624 285.90625 24.034374Q286.73438 24.8625 286.73438 26.346874Q286.73438 27.55 286.375 28.2375Q286.01562 28.925 285.3125 29.315624Q284.625 29.690624 283.8125 29.690624Q282.51562 29.690624 281.70312 28.8625Q280.90625 28.01875 280.90625 26.440624ZM281.98438 26.440624Q281.98438 27.628124 282.5 28.221874Q283.03125 28.815624 283.8125 28.815624Q284.60938 28.815624 285.125 28.221874Q285.64062 27.628124 285.64062 26.409374Q285.64062 25.253124 285.10938 24.659374Q284.59375 24.065624 283.8125 24.065624Q283.03125 24.065624 282.5 24.659374Q281.98438 25.2375 281.98438 26.440624ZM288.28125 29.55L288.28125 23.33125L289.23438 23.33125L289.23438 24.26875Q289.59375 23.6125 289.89062 23.409374Q290.20312 23.190624 290.57812 23.190624Q291.10938 23.190624 291.65625 23.51875L291.29688 24.503124Q290.90625 24.26875 290.53125 24.26875Q290.17188 24.26875 289.89062 24.4875Q289.625 24.690624 289.51562 25.065624Q289.32812 25.628124 289.32812 26.284374L289.32812 29.55L288.28125 29.55ZM294.59375 28.6125L294.75 29.534374Q294.29688 29.628124 293.95312 29.628124Q293.375 29.628124 293.0625 29.45625Q292.75 29.26875 292.60938 28.971874Q292.48438 28.675 292.48438 27.721874L292.48438 24.14375L291.71875 24.14375L291.71875 23.33125L292.48438 23.33125L292.48438 21.784374L293.53125 21.159374L293.53125 23.33125L294.59375 23.33125L294.59375 24.14375L293.53125 24.14375L293.53125 27.784374Q293.53125 28.2375 293.57812 28.3625Q293.64062 28.4875 293.76562 28.565624Q293.89062 28.64375 294.125 28.64375Q294.3125 28.64375 294.59375 28.6125Z" fill-rule="nonzero"/><path stroke="#fbbc04" stroke-width="4.0" stroke-linecap="butt" d="M310.5 25.55L322.5 25.55" fill-rule="nonzero"/><path fill="#1a1a1a" d="M331.375 29.55L331.375 20.95625L332.51562 20.95625L332.51562 28.534374L336.75 28.534374L336.75 29.55L331.375 29.55ZM338.29688 22.175L338.29688 20.95625L339.35938 20.95625L339.35938 22.175L338.29688 22.175ZM338.29688 29.55L338.29688 23.33125L339.35938 23.33125L339.35938 29.55L338.29688 29.55ZM341.29688 29.55L341.29688 23.33125L342.23438 23.33125L342.23438 24.20625Q342.92188 23.190624 344.21875 23.190624Q344.78125 23.190624 345.25 23.39375Q345.73438 23.596874 345.96875 23.925Q346.20312 24.253124 346.29688 24.690624Q346.34375 24.9875 346.34375 25.721874L346.34375 29.55L345.29688 29.55L345.29688 25.76875Q345.29688 25.1125 345.17188 24.8Q345.04688 24.4875 344.73438 24.3Q344.42188 24.096874 344.0 24.096874Q343.32812 24.096874 342.82812 24.534374Q342.34375 24.95625 342.34375 26.14375L342.34375 29.55L341.29688 29.55ZM352.54688 27.55L353.64062 27.675Q353.39062 28.628124 352.6875 29.159374Q351.98438 29.690624 350.90625 29.690624Q349.54688 29.690624 348.73438 28.846874Q347.9375 28.003124 347.9375 26.4875Q347.9375 24.925 348.75 24.065624Q349.5625 23.190624 350.84375 23.190624Q352.09375 23.190624 352.875 24.034374Q353.67188 24.878124 353.67188 26.425Q353.67188 26.51875 353.67188 26.70625L349.03125 26.70625Q349.09375 27.7375 349.60938 28.284374Q350.125 28.815624 350.90625 28.815624Q351.48438 28.815624 351.89062 28.51875Q352.3125 28.20625 352.54688 27.55ZM349.09375 25.846874L352.5625 25.846874Q352.5 25.05 352.17188 24.659374Q351.65625 24.05 350.85938 24.05Q350.125 24.05 349.625 24.534374Q349.14062 25.01875 349.09375 25.846874ZM359.35938 28.784374Q358.76562 29.284374 358.21875 29.4875Q357.6875 29.690624 357.0625 29.690624Q356.03125 29.690624 355.48438 29.190624Q354.9375 28.690624 354.9375 27.909374Q354.9375 27.45625 355.14062 27.08125Q355.34375 26.690624 355.6875 26.471874Q356.03125 26.2375 356.45312 26.128124Q356.75 26.034374 357.39062 25.95625Q358.65625 25.815624 359.26562 25.596874Q359.26562 25.378124 359.26562 25.33125Q359.26562 24.675 358.96875 24.409374Q358.5625 24.065624 357.76562 24.065624Q357.03125 24.065624 356.67188 24.33125Q356.3125 24.58125 356.14062 25.2375L355.10938 25.096874Q355.25 24.440624 355.57812 24.034374Q355.90625 23.628124 356.51562 23.409374Q357.125 23.190624 357.92188 23.190624Q358.71875 23.190624 359.21875 23.378124Q359.71875 23.565624 359.95312 23.846874Q360.1875 24.128124 360.28125 24.565624Q360.32812 24.83125 360.32812 25.534374L360.32812 26.940624Q360.32812 28.409374 360.39062 28.8Q360.46875 29.190624 360.67188 29.55L359.5625 29.55Q359.40625 29.221874 359.35938 28.784374ZM359.26562 26.425Q358.6875 26.659374 357.54688 26.83125Q356.89062 26.925 356.625 27.05Q356.35938 27.159374 356.20312 27.378124Q356.0625 27.596874 356.0625 27.878124Q356.0625 28.3 356.375 28.58125Q356.70312 28.8625 357.3125 28.8625Q357.92188 28.8625 358.39062 28.596874Q358.875 28.33125 359.09375 27.8625Q359.26562 27.503124 359.26562 26.815624L359.26562 26.425ZM362.28125 29.55L362.28125 23.33125L363.23438 23.33125L363.23438 24.26875Q363.59375 23.6125 363.89062 23.409374Q364.20312 23.190624 364.57812 23.190624Q365.10938 23.190624 365.65625 23.51875L365.29688 24.503124Q364.90625 24.26875 364.53125 24.26875Q364.17188 24.26875 363.89062 24.4875Q363.625 24.690624 363.51562 25.065624Q363.32812 25.628124 363.32812 26.284374L363.32812 29.55L362.28125 29.55ZM369.04688 26.784374L370.10938 26.690624Q370.1875 27.346874 370.46875 27.753124Q370.75 28.159374 371.32812 28.425Q371.92188 28.675 372.65625 28.675Q373.29688 28.675 373.79688 28.4875Q374.29688 28.284374 374.53125 27.95625Q374.78125 27.6125 374.78125 27.221874Q374.78125 26.815624 374.54688 26.51875Q374.3125 26.20625 373.78125 26.003124Q373.42188 25.8625 372.23438 25.58125Q371.0625 25.3 370.59375 25.05Q369.96875 24.721874 369.67188 24.253124Q369.375 23.76875 369.375 23.175Q369.375 22.534374 369.73438 21.971874Q370.10938 21.39375 370.8125 21.1125Q371.53125 20.815624 372.39062 20.815624Q373.34375 20.815624 374.07812 21.128124Q374.8125 21.425 375.20312 22.034374Q375.59375 22.628124 375.625 23.378124L374.53125 23.45625Q374.4375 22.64375 373.92188 22.2375Q373.42188 21.815624 372.4375 21.815624Q371.40625 21.815624 370.9375 22.190624Q370.46875 22.565624 370.46875 23.096874Q370.46875 23.565624 370.79688 23.8625Q371.125 24.159374 372.5 24.471874Q373.89062 24.784374 374.40625 25.01875Q375.15625 25.378124 375.51562 25.909374Q375.875 26.425 375.875 27.128124Q375.875 27.815624 375.48438 28.425Q375.09375 29.01875 374.35938 29.3625Q373.625 29.690624 372.70312 29.690624Q371.53125 29.690624 370.73438 29.3625Q369.95312 29.01875 369.5 28.33125Q369.0625 27.64375 369.04688 26.784374ZM381.54688 27.55L382.64062 27.675Q382.39062 28.628124 381.6875 29.159374Q380.98438 29.690624 379.90625 29.690624Q378.54688 29.690624 377.73438 28.846874Q376.9375 28.003124 376.9375 26.4875Q376.9375 24.925 377.75 24.065624Q378.5625 23.190624 379.84375 23.190624Q381.09375 23.190624 381.875 24.034374Q382.67188 24.878124 382.67188 26.425Q382.67188 26.51875 382.67188 26.70625L378.03125 26.70625Q378.09375 27.7375 378.60938 28.284374Q379.125 28.815624 379.90625 28.815624Q380.48438 28.815624 380.89062 28.51875Q381.3125 28.20625 381.54688 27.55ZM378.09375 25.846874L381.5625 25.846874Q381.5 25.05 381.17188 24.659374Q380.65625 24.05 379.85938 24.05Q379.125 24.05 378.625 24.534374Q378.14062 25.01875 378.09375 25.846874ZM388.35938 28.784374Q387.76562 29.284374 387.21875 29.4875Q386.6875 29.690624 386.0625 29.690624Q385.03125 29.690624 384.48438 29.190624Q383.9375 28.690624 383.9375 27.909374Q383.9375 27.45625 384.14062 27.08125Q384.34375 26.690624 384.6875 26.471874Q385.03125 26.2375 385.45312 26.128124Q385.75 26.034374 386.39062 25.95625Q387.65625 25.815624 388.26562 25.596874Q388.26562 25.378124 388.26562 25.33125Q388.26562 24.675 387.96875 24.409374Q387.5625 24.065624 386.76562 24.065624Q386.03125 24.065624 385.67188 24.33125Q385.3125 24.58125 385.14062 25.2375L384.10938 25.096874Q384.25 24.440624 384.57812 24.034374Q384.90625 23.628124 385.51562 23.409374Q386.125 23.190624 386.92188 23.190624Q387.71875 23.190624 388.21875 23.378124Q388.71875 23.565624 388.95312 23.846874Q389.1875 24.128124 389.28125 24.565624Q389.32812 24.83125 389.32812 25.534374L389.32812 26.940624Q389.32812 28.409374 389.39062 28.8Q389.46875 29.190624 389.67188 29.55L388.5625 29.55Q388.40625 29.221874 388.35938 28.784374ZM388.26562 26.425Q387.6875 26.659374 386.54688 26.83125Q385.89062 26.925 385.625 27.05Q385.35938 27.159374 385.20312 27.378124Q385.0625 27.596874 385.0625 27.878124Q385.0625 28.3 385.375 28.58125Q385.70312 28.8625 386.3125 28.8625Q386.92188 28.8625 387.39062 28.596874Q387.875 28.33125 388.09375 27.8625Q388.26562 27.503124 388.26562 26.815624L388.26562 26.425ZM391.28125 29.55L391.28125 23.33125L392.23438 23.33125L392.23438 24.26875Q392.59375 23.6125 392.89062 23.409374Q393.20312 23.190624 393.57812 23.190624Q394.10938 23.190624 394.65625 23.51875L394.29688 24.503124Q393.90625 24.26875 393.53125 24.26875Q393.17188 24.26875 392.89062 24.4875Q392.625 24.690624 392.51562 25.065624Q392.32812 25.628124 392.32812 26.284374L392.32812 29.55L391.28125 29.55ZM399.35938 27.26875L400.39062 27.409374Q400.21875 28.471874 399.51562 29.08125Q398.8125 29.690624 397.79688 29.690624Q396.51562 29.690624 395.73438 28.8625Q394.96875 28.01875 394.96875 26.45625Q394.96875 25.45625 395.29688 24.70625Q395.64062 23.940624 396.3125 23.565624Q397.0 23.190624 397.8125 23.190624Q398.8125 23.190624 399.45312 23.70625Q400.10938 24.20625 400.29688 25.159374L399.26562 25.315624Q399.125 24.690624 398.75 24.378124Q398.375 24.05 397.84375 24.05Q397.04688 24.05 396.54688 24.628124Q396.04688 25.190624 396.04688 26.425Q396.04688 27.690624 396.53125 28.253124Q397.01562 28.815624 397.78125 28.815624Q398.40625 28.815624 398.8125 28.440624Q399.23438 28.065624 399.35938 27.26875ZM401.29688 29.55L401.29688 20.95625L402.34375 20.95625L402.34375 24.034374Q403.07812 23.190624 404.20312 23.190624Q404.90625 23.190624 405.40625 23.471874Q405.92188 23.7375 406.14062 24.221874Q406.35938 24.690624 406.35938 25.6125L406.35938 29.55L405.3125 29.55L405.3125 25.6125Q405.3125 24.815624 404.96875 24.45625Q404.625 24.096874 404.0 24.096874Q403.53125 24.096874 403.10938 24.346874Q402.70312 24.58125 402.51562 25.003124Q402.34375 25.409374 402.34375 26.14375L402.34375 29.55L401.29688 29.55Z" fill-rule="nonzero"/></svg>