<?xml version="1.0" encoding="UTF-8"?>
<!DOCTYPE svg PUBLIC "-//W3C//DTD SVG 1.1//EN" "http://www.w3.org/Graphics/SVG/1.1/DTD/svg11.dtd">
<svg xmlns="http://www.w3.org/2000/svg" xmlns:xlink="http://www.w3.org/1999/xlink" version="1.1" width="761px" height="531px" viewBox="-0.5 -0.5 761 531"><defs/><g><ellipse cx="40" cy="300" rx="40" ry="40" fill="#000000" stroke="#000000" pointer-events="none"/><ellipse cx="230" cy="120" rx="40" ry="40" fill="#000000" stroke="#000000" pointer-events="none"/><ellipse cx="470" cy="40" rx="40" ry="40" fill="#000000" stroke="#000000" pointer-events="none"/><ellipse cx="230" cy="300" rx="40" ry="40" fill="#000000" stroke="#000000" pointer-events="none"/><ellipse cx="470" cy="195" rx="40" ry="40" fill="#000000" stroke="#000000" pointer-events="none"/><ellipse cx="510" cy="430" rx="40" ry="40" fill="#ffffff" stroke="#000000" pointer-events="none"/><ellipse cx="230" cy="490" rx="40" ry="40" fill="#cccccc" stroke="#000000" pointer-events="none"/><ellipse cx="720" cy="330" rx="40" ry="40" fill="#cccccc" stroke="#000000" pointer-events="none"/><path d="M 80 300 L 183.63 300" fill="none" stroke="#000000" stroke-miterlimit="10" pointer-events="none"/><path d="M 188.88 300 L 181.88 303.5 L 183.63 300 L 181.88 296.5 Z" fill="#000000" stroke="#000000" stroke-miterlimit="10" pointer-events="none"/><path d="M 270 120 L 424.3 42.85" fill="none" stroke="#000000" stroke-miterlimit="10" pointer-events="none"/><path d="M 429 40.5 L 424.3 46.76 L 424.3 42.85 L 421.17 40.5 Z" fill="#000000" stroke="#000000" stroke-miterlimit="10" pointer-events="none"/><path d="M 270 120 L 424.23 192.3" fill="none" stroke="#000000" stroke-miterlimit="10" pointer-events="none"/><path d="M 428.99 194.53 L 421.16 194.72 L 424.23 192.3 L 424.14 188.39 Z" fill="#000000" stroke="#000000" stroke-miterlimit="10" pointer-events="none"/><path d="M 270 300 L 673.73 326.92" fill="none" stroke="#000000" stroke-miterlimit="10" pointer-events="none"/><path d="M 678.97 327.26 L 671.76 330.29 L 673.73 326.92 L 672.22 323.31 Z" fill="#000000" stroke="#000000" stroke-miterlimit="10" pointer-events="none"/><path d="M 80 300 L 188.64 474.59" fill="none" stroke="#000000" stroke-miterlimit="10" pointer-events="none"/><path d="M 191.41 479.05 L 184.74 474.96 L 188.64 474.59 L 190.68 471.26 Z" fill="#000000" stroke="#000000" stroke-miterlimit="10" pointer-events="none"/></g></svg>